<?xml version="1.0" encoding="UTF-8"?>
<svg width="200px" height="200px" viewBox="0 0 200 200" version="1.1" xmlns="http://www.w3.org/2000/svg" xmlns:xlink="http://www.w3.org/1999/xlink">
    <!-- Generator: Sketch 54.1 (76490) - https://sketchapp.com -->
    <title>chaminade</title>
    <desc>Created with Sketch.</desc>
    <defs>
        <path d="M5.2587493,0.0310556078 C5.2587493,0.0310556078 5.02226738,146.299852 4.33628765,154.448457 C3.70549061,161.945861 2.49832916,166.579487 2.49832916,166.579487 C2.49832916,166.579487 1.35235085,161.945861 0.721125204,154.448457 C0.0360026848,146.299852 0.0887209018,0.451219714 0.0887209018,0.451219714 L5.2587493,0.0310556078 L5.2587493,0.0310556078 Z" id="path-1"></path>
        <path d="M8.27193828,1.01456199 C8.27193828,1.01456199 8.31801315,2.30069399 8.14850051,2.58535249 C7.97770205,2.87237508 7.12092388,2.98531433 6.92130185,3.85884733 C6.72039401,4.73152065 7.46959274,17.3340797 7.46959274,17.3340797 L7.23053919,22.9777111 L0.186228173,24.4187343 C0.186228173,24.4187343 -0.0707195594,7.88855423 0.153654315,6.86146253 C0.377921039,5.83383354 0.868136167,5.51897911 0.868136167,5.51897911 L3.69584703,0.0365145174 L8.04595714,0.0730397808 L8.27193828,1.01456199 Z" id="path-3"></path>
    </defs>
    <g id="chaminade" stroke="none" stroke-width="1" fill="none" fill-rule="evenodd">
        <g id="chaminade_BGL">
            <g id="chaminade" transform="translate(23.000000, 0.000000)">
                <g id="g10">
                    <g transform="translate(77.500000, 99.551832) scale(-1, 1) rotate(-180.000000) translate(-77.500000, -99.551832) translate(0.000000, 0.046882)">
                        <g id="g12">
                            <path d="M85.9183564,19.7479916 C85.5416834,20.3519443 85.0536669,21.078547 84.522713,21.9266148 C84.0045352,21.7270434 83.5175254,21.5537695 83.0640813,21.4034013 C83.4038752,20.8937559 83.6899843,20.5142969 83.8551818,20.3957973 C84.0162096,20.280709 84.2122208,20.0207869 84.420819,19.6834105 C84.8936536,19.6876499 85.3933977,19.707731 85.9183564,19.7479916 Z M88.9493323,20.178759 C95.4651797,21.5237529 104.519899,26.0589238 114.040647,39.0894464 C134.637183,67.2776223 126.036184,86.841903 126.036184,86.841903 C126.036184,86.841903 126.519435,65.6993742 111.495814,44.9211308 C103.08308,33.2858838 94.9442964,27.1630559 88.9192837,23.9498813 C89.0969677,22.8280463 89.0669648,21.4766 88.9493323,20.178759 Z M83.6693258,31.1751433 C84.4767018,31.0321832 85.315225,30.712052 85.7960051,30.2173213 C86.0727039,29.9324004 86.3565535,29.627973 86.6385569,29.2777415 C93.359313,31.7509766 102.787206,38.1692419 106.892614,54.8233564 C112.961638,79.4411045 98.7140041,90.8514077 98.7140041,90.8514077 C98.7140041,90.8514077 104.711451,67.0963392 99.8043712,52.6363539 C96.5849097,43.1515388 88.7076926,35.3915207 83.6693258,31.1751433 Z M81.5865048,29.4979656 C80.1011499,28.3489019 79.1660464,27.7276833 79.1660464,27.7276833 C79.1660464,27.7276833 80.2047893,27.7186976 81.8942184,28.0047499 C81.7582987,28.551213 81.6542612,29.0606517 81.5865079,29.497968 Z M80.09929,20.1263878 C80.10713,20.2885579 80.1149429,20.4497844 80.1227058,20.6096391 C79.4096003,20.4678107 79.0250359,20.4365242 79.0250359,20.4365242 C79.0250359,20.4365242 79.3999201,20.2901491 80.09929,20.1263878 Z M79.7785001,12.7336454 C79.7788585,12.7920471 79.7803235,12.8701008 79.7827968,12.9659589 C79.3706595,13.0266826 79.1660464,13.0864463 79.1660464,13.0864463 C79.1660464,13.0864463 79.367821,12.9424921 79.7785001,12.7336454 Z M85.2495515,11.2862137 C91.0890211,10.7136794 101.274736,12.1245645 116.416181,22.2771869 C145.386556,41.7015562 143.974308,63.0363289 143.974308,63.0363289 C143.974308,63.0363289 136.408387,44.1400124 116.014366,28.6314436 C102.042008,18.0054406 92.1758124,14.4019487 86.1914846,13.2901373 C86.1284544,12.9068628 86.0232072,12.5416526 85.8567596,12.2364468 C85.6997204,11.9475515 85.4868073,11.620841 85.2495515,11.2862137 Z M96.7141407,107.133573 C92.1112618,108.591467 90.8388454,102.454062 90.2934476,100.571383 C89.7484784,98.6888115 89.6257907,95.7722708 93.2609904,94.6787695 C96.89619,93.5853757 99.4410226,97.5953102 99.8043712,99.7826351 C100.16847,101.969638 101.317448,105.675678 96.7141407,107.133573 Z M100.851556,125.560294 C96.3081462,126.489813 95.7074585,120.500057 95.3755052,118.646392 C95.0432304,116.793801 95.2190649,113.995573 98.799832,113.317507 C102.381349,112.639442 104.410572,116.725027 104.53776,118.851638 C104.666662,120.976099 105.394109,124.630775 100.851556,125.560294 Z M101.108933,144.287148 C96.6702089,144.639613 96.7965397,138.858327 96.696568,137.053018 C96.5956319,135.248784 97.0887401,132.602073 100.582393,132.375334 C104.075725,132.149671 105.532334,136.282538 105.406753,138.323182 C105.281172,140.3649 105.547764,143.934683 101.108933,144.287148 Z M98.2460764,161.206544 C94.0235829,160.949717 94.905113,155.528418 95.0482665,153.816599 C95.1918486,152.104779 96.005445,149.680508 99.3217637,149.930887 C102.637975,150.181266 103.463358,154.262553 103.075365,156.166724 C102.688229,158.06982 102.468463,161.463371 98.2460764,161.206544 Z M93.7431692,176.670947 C90.3666317,175.983211 91.6905875,171.711721 92.0002535,170.346994 C92.3087408,168.983341 93.2392387,167.120005 95.8853289,167.699208 C98.5319548,168.277336 98.7357558,171.663365 98.2083593,173.154894 C97.679677,174.646422 97.1201353,177.358684 93.7431692,176.670947 Z M87.6489647,189.533772 C84.951335,188.577388 86.5326672,185.216075 86.9441264,184.129666 C87.3564429,183.043257 88.335373,181.618353 90.4462447,182.401728 C92.5557235,183.185103 92.3339212,185.993002 91.727876,187.158931 C91.1208665,188.32486 90.3478803,190.490155 87.6489647,189.533772 Z M86.658248,81.6783978 C84.6596704,74.9332057 88.5333878,65.5166941 87.0215965,57.0111112 C84.8404338,44.7394179 79.1242576,35.8073308 79.1660464,34.5328688 C79.2070852,33.2563651 89.9300991,41.8228772 93.2609904,58.4693278 C95.9941942,72.130464 86.658248,81.6783978 86.658248,81.6783978 Z M79.1660464,6.88912244 C79.1660464,6.88912244 85.8433658,-3.0818876 116.040082,4.33823201 C149.886892,12.6532797 153.781825,35.0789747 153.781825,35.0789747 C153.781825,35.0789747 142.310255,18.8418349 117.856289,11.2638367 C87.8867324,1.97497547 79.1660464,6.88912244 79.1660464,6.88912244 Z" id="path14" fill="#231F20"></path>
                            <path d="M86.0477925,19.5379069 C85.6227442,20.2374484 85.0207368,21.1188655 84.3650832,22.1800224 C83.8434435,21.9787339 83.3541736,21.8043258 82.8998452,21.6533106 C83.3107795,21.0197202 83.6639733,20.5329551 83.8551818,20.3957973 C84.050245,20.2563836 84.2966428,19.9044404 84.5545646,19.459739 C85.0272675,19.4689453 85.5255545,19.4936709 86.0477925,19.5379069 Z M88.9282296,19.9558244 C95.5308164,21.306548 104.701115,25.8529407 114.25602,38.9302999 C134.708974,66.9199992 126.368352,86.7524973 126.28156,86.9493619 L125.768307,86.8351331 C125.773665,86.6248361 126.072616,65.5389381 111.27937,45.0789878 C102.960663,33.5741711 94.866076,27.4776444 88.8638079,24.2587495 C89.1143119,23.01982 89.0747555,21.4415405 88.9282296,19.9558244 Z M81.9592425,27.7498664 C81.7547036,28.5322131 81.6117188,29.2521835 81.542484,29.8125387 C80.0279943,28.6306122 79.0567099,27.9776146 79.0182854,27.9523037 L78.289231,27.4666971 L79.1640105,27.4590676 C79.1640105,27.4590676 79.1660464,27.4590676 79.1689395,27.4590676 C79.2543691,27.4590676 80.3046739,27.4668065 81.9592425,27.7498664 Z M86.8096305,29.0590458 C88.0184466,29.5064962 89.3098292,30.0790501 90.6366518,30.8116762 C96.2411769,33.9065986 103.655908,40.5740979 107.151919,54.7599557 C110.30644,67.5530393 107.896617,76.7340012 105.320925,82.1846364 C102.523645,88.1023953 99.0275275,90.9429626 98.8809452,91.0612748 L98.258613,91.5591316 L98.4544848,90.7855354 C98.5139535,90.5479439 104.376605,66.9435327 99.550638,52.7224284 C96.3280021,43.2275929 88.3074883,35.4033558 83.2977598,31.2288215 C84.2082938,31.1271868 85.2407388,30.7886995 85.7960051,30.2173213 C86.1287546,29.8746842 86.4718454,29.5038372 86.8096305,29.0590458 Z M80.1365351,20.8940528 C79.4230791,20.7449604 79.027064,20.7062612 79.0028557,20.7043117 L78.9275286,20.1871122 C78.9529607,20.1769005 79.3566364,20.0274939 80.0867344,19.8663441 C80.1034759,20.2135355 80.1201494,20.5574823 80.1365351,20.8940528 Z M86.2251678,13.5284256 C86.1691384,13.0595466 86.0574228,12.604392 85.8567596,12.2364468 C85.6538603,11.8631857 85.3576888,11.426798 85.036252,10.9917701 C85.7965357,10.9088224 86.6314707,10.859684 87.5426711,10.859684 C93.6397686,10.859684 103.152835,13.0604412 116.565121,22.0537799 C145.330838,41.3414616 144.256115,62.8387121 144.241113,63.0548118 L143.726789,63.1362657 C143.650712,62.9482127 135.955138,44.1323828 115.852568,28.8463613 C102.786698,18.9084865 92.7090621,14.8112269 86.2251678,13.5284256 Z M79.7901501,13.2148677 C79.5918875,13.2529249 79.4085207,13.2966847 79.2401948,13.3454221 L79.0112134,12.8681974 C79.0742988,12.8229422 79.3340643,12.6447755 79.7987433,12.4118969 C79.7855404,12.5023599 79.7784135,12.6004421 79.7784135,12.7070091 C79.7784135,12.807001 79.7825582,12.9806571 79.7901501,13.2148677 Z M89.316982,181.911715 C89.7003677,181.911715 90.1092553,181.99016 90.5395731,182.149199 C91.3008799,182.431816 91.8618146,182.993826 92.1609798,183.773977 C92.6156208,184.956025 92.4063552,186.433584 91.9655366,187.283583 C91.913247,187.382445 91.8609574,187.48883 91.8052389,187.600587 C91.2226598,188.775112 90.2473728,190.742684 87.5602438,189.7863 C86.847905,189.533772 86.3493321,189.102862 86.0785619,188.50539 C85.4624445,187.141738 86.1936419,185.298818 86.585814,184.308048 L86.6938221,184.034028 C87.2212185,182.64351 88.1462518,181.911715 89.316982,181.911715 Z M94.9679034,167.325251 C95.2763906,167.325251 95.6020221,167.361787 95.9426546,167.437008 C96.8815103,167.642255 97.6315663,168.207488 98.1112806,169.072532 C98.842478,170.391052 98.840335,172.169496 98.4603781,173.245159 C98.415589,173.373035 98.3695142,173.509508 98.3221535,173.651353 C97.8308669,175.132136 97.0000192,177.60369 93.6900223,176.934221 C92.8130998,176.75584 92.1580867,176.332452 91.7450202,175.679102 C90.7936278,174.175753 91.3557411,171.869686 91.6566207,170.63176 L91.7395555,170.287891 C92.1740522,168.366527 93.3279596,167.325251 94.9679034,167.325251 Z M98.8793379,149.646121 C99.029992,149.646121 99.1843964,149.651494 99.3413723,149.663314 C100.500852,149.75143 101.495319,150.302694 102.213979,151.258004 C103.305097,152.706549 103.607798,154.895486 103.337778,156.220453 C103.304346,156.382716 103.272951,156.555725 103.239413,156.73733 C102.875314,158.72317 102.336131,161.720197 98.2292537,161.474117 C97.1506733,161.408567 96.2976454,161.014193 95.693636,160.30389 C94.2982106,158.659769 94.5856963,155.776648 94.7406364,154.228166 C94.7560661,154.065903 94.7711744,153.919759 94.7816752,153.794032 C95.0043346,151.1355 96.4880524,149.646121 98.8793379,149.646121 Z M100.849413,132.099165 C101.95446,132.099165 102.963178,132.525777 103.780632,133.342464 C105.12709,134.687849 105.761208,136.921918 105.673345,138.340375 C105.662844,138.514458 105.655772,138.700362 105.647414,138.893788 C105.557407,141.011802 105.422183,144.214076 101.129934,144.55472 C99.9998143,144.646061 99.0559225,144.361295 98.3255823,143.710094 C96.6353848,142.20567 96.5139829,139.162435 96.4495853,137.526912 C96.4428348,137.354977 96.4370486,137.200237 96.4294409,137.069137 C96.2641072,134.096825 97.7709695,132.288293 100.564821,132.107762 C100.661149,132.101314 100.755335,132.099165 100.849413,132.099165 Z M99.5707823,112.975788 C100.518746,112.975788 101.422885,113.294941 102.222337,113.919277 C103.781489,115.13786 104.716916,117.361184 104.80478,118.834445 C104.816566,119.01605 104.831996,119.208401 104.847962,119.410424 C105.023367,121.606883 105.288244,124.926287 100.905132,125.823568 C99.7507957,126.059978 98.7428277,125.886969 97.906944,125.30884 C95.9740498,123.970978 95.4647618,120.843925 95.1918486,119.164343 C95.1620607,118.988111 95.1361302,118.830146 95.1119141,118.694748 C94.5660877,115.651513 95.8916508,113.594751 98.7504354,113.053158 C99.0266703,113.001578 99.299905,112.975788 99.5707823,112.975788 Z M94.476081,94.2275498 C95.3001781,94.2275498 96.1092742,94.4664309 96.8647948,94.9377454 C98.6088892,96.0279154 99.8169078,98.2249116 100.067641,99.738577 C100.099036,99.9250181 100.135789,100.122635 100.174792,100.328741 C100.59418,102.581616 101.228299,105.985053 96.7949325,107.389217 C95.6292384,107.758661 94.5689807,107.690962 93.6439475,107.184723 C91.5017877,106.013637 90.6345088,102.834359 90.1699027,101.125871 C90.1206133,100.945877 90.0765743,100.784689 90.0359641,100.646497 C89.5119965,98.8331287 89.2219392,95.6136615 93.1843775,94.4219429 C93.6159811,94.2922401 94.0479062,94.2275498 94.476081,94.2275498 Z M79.2903414,34.1395694 C80.7892746,34.1395694 90.4022057,42.8148299 93.5234028,58.4168878 C96.2528563,72.0586815 86.9441264,81.7698453 86.8495122,81.8651613 L86.5313814,82.190869 L86.4016217,81.754801 C85.3615084,78.245195 85.8805471,74.0714932 86.4314096,69.6547195 C86.9511984,65.4810178 87.4878098,61.1667598 86.7578983,57.0585005 C85.2309987,48.4672729 81.9369673,41.4619229 80.1676925,37.6975319 C79.2778047,35.8043219 78.8843468,34.948842 78.8985979,34.524487 C78.9053484,34.3117185 79.0509664,34.158912 79.262375,34.1408589 C79.27159,34.1395694 79.2811264,34.1395694 79.2903414,34.1395694 Z M96.2172822,1.30251947 C101.318198,1.30251947 107.833398,2.04508162 116.103301,4.07797741 C149.731523,12.3384252 154.00577,34.8069963 154.045416,35.0328748 L153.562166,35.23479 C153.448586,35.0723122 141.854864,18.9816388 117.776997,11.5194813 C102.393886,6.75143541 92.7419516,5.82208829 87.3656579,5.860709 C81.5371875,5.9156957 79.3175577,7.1115945 79.2970919,7.1233505 L78.9442442,6.73884124 C79.1438662,6.43997668 82.7941741,1.30251947 96.2172822,1.30251947 Z" id="path16" fill="#231F20" fill-rule="nonzero"></path>
                            <path d="M57.3303109,107.133573 C61.9336185,108.591467 63.2064634,102.454062 63.751004,100.571383 C64.2968304,98.6888115 64.4185538,95.7722708 60.7837828,94.6787695 C57.1491189,93.5853757 54.6046077,97.5953102 54.2409377,99.7826351 C53.8771606,101.969638 52.727432,105.675678 57.3303109,107.133573 Z M53.1937525,125.560294 C57.7363055,126.489813 58.3369932,120.500057 58.6692679,118.646392 C59.0016499,116.793801 58.8262439,113.995573 55.2450483,113.317507 C51.6634241,112.639442 49.6347371,116.725027 49.5065847,118.851638 C49.3781108,120.976099 48.6510923,124.630775 53.1937525,125.560294 L53.1937525,125.560294 Z M52.9358404,144.287148 C57.3751,144.639613 57.248662,138.858327 57.3491695,137.053018 C57.4495698,135.248784 56.9557116,132.602073 53.4623796,132.375334 C49.9695835,132.149671 48.5129748,136.282538 48.6385556,138.323182 C48.7641364,140.3649 48.4978666,143.934683 52.9358404,144.287148 L52.9358404,144.287148 Z M55.7992325,161.206544 C60.0207616,160.949717 59.1397673,155.528418 58.9961852,153.816599 C58.8521744,152.104779 58.0393281,149.680508 54.7235451,149.930887 C51.4073335,150.181266 50.5819506,154.262553 50.9695152,156.166724 C51.3570798,158.06982 51.5768462,161.463371 55.7992325,161.206544 Z M60.3016039,176.670947 C63.6777128,175.983211 62.3542927,171.711721 62.0453768,170.346994 C61.7356037,168.983341 60.8056415,167.120005 58.1594442,167.699208 C55.513354,168.277336 55.3095531,171.663365 55.8368424,173.154894 C56.3646675,174.646422 56.9256022,177.358684 60.3016039,176.670947 Z M66.3958084,189.533772 C69.0938667,188.577388 67.5121059,185.216075 67.1007538,184.129666 C66.688866,183.043257 65.7089715,181.618353 63.5990641,182.401728 C61.4887282,183.185103 61.7113876,185.993002 62.3170042,187.158931 C62.923478,188.32486 63.6974286,190.490155 66.3958084,189.533772 Z M67.3862037,81.6783978 C69.3856385,74.9332057 65.5114925,65.5166941 67.0232838,57.0111112 C69.2039107,44.7394179 74.9210513,35.8073308 74.8795839,34.5328688 C74.8382237,33.2563651 64.114674,41.8228772 60.7837828,58.4693278 C58.0502575,72.130464 67.3862037,81.6783978 67.3862037,81.6783978 L67.3862037,81.6783978 Z M55.3313047,90.8514077 C55.3313047,90.8514077 49.3333217,67.0963392 54.2409377,52.6363539 C59.1481251,38.1780879 74.8795839,27.7276833 74.8795839,27.7276833 C74.8795839,27.7276833 53.8771606,27.5460018 47.1526948,54.8233564 C41.0835637,79.4411045 55.3313047,90.8514077 55.3313047,90.8514077 Z M75.0198444,20.4365242 C75.0198444,20.4365242 59.3293171,21.7130279 42.5489587,44.9211308 C27.5256598,65.6993742 28.0086958,86.841903 28.0086958,86.841903 C28.0086958,86.841903 19.4068401,67.2776223 40.0049832,39.0894464 C58.3800678,13.9394546 75.0198444,20.4365242 75.0198444,20.4365242 Z M74.8795839,13.0864463 C74.8795839,13.0864463 63.0244141,9.62386422 38.0297645,28.6314436 C17.6372438,44.1400124 10.0700902,63.0363289 10.0700902,63.0363289 C10.0700902,63.0363289 8.65829209,41.7015562 37.6279488,22.2771869 C63.4721975,4.94856604 74.8795839,13.0864463 74.8795839,13.0864463 Z M74.8795839,6.88912244 C74.8795839,6.88912244 66.1585764,1.97497547 36.1880558,11.2638367 C11.7351608,18.8418349 0.263691807,35.0789747 0.263691807,35.0789747 C0.263691807,35.0789747 4.15795649,12.6532797 38.0051198,4.33823201 C68.2019431,-3.0818876 74.8795839,6.88912244 74.8795839,6.88912244 L74.8795839,6.88912244 L74.8795839,6.88912244 Z" id="path22" fill="#231F20"></path>
                            <path d="M65.1598234,189.502609 C63.7802562,189.502609 63.2018559,188.335605 62.7188199,187.360954 C62.6619228,187.245973 62.6074902,187.136365 62.554772,187.034279 C62.177601,186.311081 61.990087,184.989337 62.3826877,183.966329 C62.6292418,183.325874 63.0695246,182.884218 63.6919639,182.653181 C65.5499596,181.962221 66.4352399,183.127075 66.8504494,184.225304 L66.9604934,184.505772 C67.3245919,185.422396 68.0023211,187.127768 67.4795321,188.282951 C67.2681234,188.749322 66.8847377,189.075997 66.3063374,189.280169 L66.3063374,189.280169 C65.8718408,189.434909 65.4930625,189.502609 65.1598234,189.502609 L65.1598234,189.502609 Z M64.7283269,181.911715 C64.3453698,181.911715 63.936375,181.99016 63.5057357,182.149199 C62.7438932,182.431816 62.1830657,182.993826 61.8837934,183.773977 C61.4292595,184.956025 61.6385251,186.433584 62.0792365,187.282509 C62.1312047,187.382445 62.1843515,187.48883 62.2395342,187.600587 C62.8209347,188.775112 63.7949359,190.741609 66.4853865,189.7863 C67.1978325,189.533772 67.6958696,189.102862 67.966747,188.504316 C68.5832929,187.140663 67.8511312,185.297744 67.458209,184.306973 L67.3506296,184.034028 C66.8244118,182.64351 65.8990571,181.911715 64.7283269,181.911715 Z M59.2866711,176.512983 C57.2374112,176.512983 56.6849414,174.850594 56.2295503,173.480494 C56.1813324,173.335424 56.1349361,173.194653 56.0888612,173.064628 C55.7569079,172.127587 55.7540148,170.50066 56.401956,169.333657 C56.8100936,168.596489 57.4203176,168.135491 58.2167699,167.961407 C60.5920899,167.441306 61.4668694,169.004833 61.7841431,170.407171 L61.8691137,170.761785 C62.1512419,171.922341 62.6766025,174.083338 61.8477907,175.392187 C61.5104798,175.925183 60.9872622,176.257231 60.2480285,176.407673 C59.8956094,176.47967 59.5758712,176.512983 59.2866711,176.512983 L59.2866711,176.512983 Z M59.0765483,167.325251 C58.768061,167.325251 58.4432868,167.361787 58.1025471,167.437008 C57.1632628,167.642255 56.4132068,168.207488 55.9335996,169.072532 C55.2019737,170.391052 55.2040095,172.169496 55.5845022,173.245159 C55.6297198,173.37196 55.6745089,173.507359 55.722191,173.650279 C56.2140134,175.131062 57.0389678,177.613361 60.3548579,176.934221 C61.2312447,176.75584 61.8859364,176.333526 62.2998601,175.679102 C63.2503953,174.177902 62.6899963,171.872909 62.3894382,170.633909 L62.3065034,170.287891 C61.8699709,168.366527 60.7152062,167.325251 59.0765483,167.325251 L59.0765483,167.325251 Z M55.3635571,160.951866 C52.1234227,160.951866 51.6684602,158.471716 51.3320065,156.640617 C51.2980397,156.455788 51.2653587,156.278481 51.231499,156.112994 C50.9849449,154.903008 51.2611798,152.903199 52.2577898,151.58038 C52.8910513,150.740052 53.7273637,150.27583 54.7431537,150.198459 C57.771451,149.972796 58.5796898,152.052124 58.7295939,153.839165 C58.7404161,153.967041 58.7550958,154.116409 58.7718113,154.281896 C58.9182865,155.750858 59.1907711,158.485686 57.9435352,159.955723 C57.4378904,160.551045 56.7108719,160.882018 55.7829455,160.938971 C55.6385062,160.947568 55.4986743,160.951866 55.3635571,160.951866 Z M55.1655424,149.646121 C55.0148883,149.646121 54.8608054,149.651494 54.7034008,149.663314 C53.5436,149.75143 52.5504188,150.302694 51.8313294,151.256929 C50.739248,152.705474 50.4375112,154.895486 50.7069956,156.220453 C50.7401052,156.383791 50.7723576,156.5568 50.8053601,156.738405 C51.1699944,158.72317 51.700284,161.709451 55.8150908,161.474117 C56.894207,161.408567 57.7476635,161.015267 58.3511371,160.30389 C59.7462411,158.659769 59.4586482,155.776648 59.3046725,154.228166 C59.2882784,154.065903 59.2737059,153.919759 59.2632051,153.794032 C59.0396884,151.1355 57.555542,149.646121 55.1655424,149.646121 L55.1655424,149.646121 Z M52.9358404,144.287148 L52.9571634,144.019575 C49.1378786,143.716541 49.0193697,140.916164 48.9332205,138.871222 C48.9248627,138.673498 48.9165049,138.48437 48.9060042,138.307063 C48.8260696,137.006811 49.4070415,134.957571 50.6425979,133.721794 C51.4286566,132.93627 52.3787631,132.570909 53.4452355,132.643981 C56.6417596,132.850302 57.1871574,135.147773 57.0821496,137.037974 C57.0745419,137.173372 57.0683271,137.330262 57.0615766,137.50542 C56.9992148,139.061424 56.8841348,141.955291 55.3643072,143.308198 C54.7474398,143.857313 53.9429512,144.094797 52.9571634,144.019575 L52.9358404,144.287148 Z M53.1953597,132.099165 C52.0899916,132.099165 51.0820236,132.525777 50.2646769,133.342464 C48.9176836,134.687849 48.2844221,136.921918 48.3711071,138.340375 C48.3819294,138.514458 48.3898585,138.700362 48.3978948,138.893788 C48.4874729,141.011802 48.6225902,144.214076 52.9153746,144.55472 C54.0454946,144.646061 54.9897078,144.359145 55.7197265,143.710094 C57.4098169,142.20567 57.5307902,139.162435 57.596045,137.526912 C57.6032241,137.354977 57.6091174,137.200237 57.616618,137.069137 C57.7819518,134.096825 56.2743393,132.288293 53.4795238,132.107762 C53.3845881,132.101314 53.2899739,132.099165 53.1953597,132.099165 L53.1953597,132.099165 Z M53.2468993,125.298094 L53.2468993,125.298094 C49.3287142,124.495377 49.5610173,121.582167 49.7305299,119.454482 C49.746924,119.248161 49.7623537,119.052586 49.7737117,118.866682 C49.8552535,117.510552 50.7170678,115.464535 52.1523534,114.34159 C53.0673145,113.628063 54.0911408,113.371237 55.1952231,113.581856 C58.4808967,114.204043 58.7546672,116.65303 58.4055697,118.59911 C58.380925,118.737732 58.3548873,118.899994 58.324778,119.079451 C58.0645085,120.680588 57.5784723,123.660422 55.8330921,124.867184 C55.1224677,125.358271 54.2547602,125.503341 53.2468993,125.298094 Z M54.4736693,112.975788 C53.5255986,112.975788 52.622317,113.294941 51.8237217,113.918202 C50.2642483,115.136786 49.327857,117.360109 49.2391361,118.834445 C49.2283139,119.01605 49.212777,119.209476 49.1969187,119.411499 C49.0219414,121.607958 48.7573859,124.926287 53.140177,125.823568 L53.140177,125.823568 C54.2945131,126.059978 55.3019454,125.885894 56.1369719,125.309915 C58.0694375,123.972052 58.5796898,120.846074 58.8534602,119.166492 C58.8822838,118.989185 58.9083215,118.830146 58.9329662,118.694748 C59.2531329,116.905558 59.2071652,113.794624 55.2948734,113.053158 C55.0186386,113.001578 54.7440109,112.975788 54.4736693,112.975788 L54.4736693,112.975788 Z M57.4111027,106.877498 C53.4309844,105.616898 53.9893475,102.618582 54.3970565,100.429967 C54.4355236,100.218811 54.4732407,100.017325 54.5050645,99.8268007 C54.7373676,98.4285461 55.8536651,96.3994007 57.4642495,95.3932634 C58.4926833,94.7514117 59.584229,94.5969934 60.707277,94.9361335 C64.0511335,95.9418409 64.0682777,98.5150505 63.4939491,100.496269 C63.4534461,100.636933 63.4089785,100.800593 63.3592605,100.982736 C62.9151203,102.613961 62.0875943,105.650963 60.1443065,106.712979 C59.3527832,107.144856 58.4323574,107.201164 57.4111027,106.877498 L57.4111027,106.877498 Z M59.5687993,94.2275498 C58.744595,94.2275498 57.9363561,94.466001 57.1812641,94.9377454 C55.4375984,96.0270557 54.2284011,98.2244818 53.9768109,99.738577 C53.9458443,99.9254479 53.9085558,100.123924 53.8705172,100.33132 C53.4515574,102.582475 52.8178673,105.985912 57.2499478,107.389217 L57.2499478,107.389217 C58.4164991,107.758661 59.4766496,107.689887 60.400397,107.184723 C62.5438426,106.012347 63.4098357,102.83264 63.8757276,101.124689 C63.9242669,100.945017 63.9681988,100.783829 64.0079518,100.646497 C64.533741,98.8335585 64.8237983,95.6139839 60.8608242,94.4219429 C60.4297564,94.2922401 59.9974027,94.2275498 59.5687993,94.2275498 Z M67.2573012,81.1356231 C65.6516458,79.2916293 58.6626246,70.4350857 61.0467309,58.522305 C64.0619558,43.4512012 73.0366965,35.3174259 74.5870621,34.71254 C74.4735893,35.1713893 73.9872316,36.2039614 73.3937231,37.4678924 C71.6131975,41.2532378 68.2985931,48.3014639 66.7595855,56.9649039 C66.0154229,61.1516081 66.5578205,65.5078825 67.0823239,69.7202694 C67.600934,73.8834402 68.0914706,77.8270726 67.2573012,81.1356231 L67.2573012,81.1356231 Z M74.7544317,34.1395694 C73.2573201,34.1395694 63.6434246,42.8148299 60.5213703,58.4168878 C57.7920239,72.0586815 67.1007538,81.7698453 67.1952609,81.8651613 L67.5133917,82.190869 L67.6427228,81.754801 C68.6832647,78.2439055 68.1637974,74.0714932 67.6138992,69.6538599 C67.0935747,65.4802656 66.5569633,61.1654703 67.286982,57.0585005 C68.813453,48.4660908 72.1083415,41.4606334 73.8780449,37.6966723 C74.7678256,35.8031399 75.1608549,34.948842 75.1466038,34.524487 C75.1399605,34.3117185 74.9943425,34.158912 74.7833624,34.1408589 C74.7745761,34.1395694 74.7645039,34.1395694 74.7544317,34.1395694 Z M54.8713061,90.0731907 C53.7302568,88.9737792 51.2440356,86.2709741 49.1952043,81.9264128 C46.6637655,76.5602402 44.3002321,67.5123124 47.4125356,54.8879392 C50.8589355,40.9065756 58.1402642,34.3414846 63.6417102,31.2961007 C68.1332594,28.8086433 72.2029557,28.1962353 73.9608725,28.0454705 C70.7266314,30.3776499 58.242379,40.0132702 53.9877402,52.5507092 C51.4365857,60.0661663 51.8680822,70.1017483 52.6797499,77.1974712 C53.3657296,83.1945347 54.4313448,88.1603157 54.8713061,90.0731907 Z M74.877548,27.4590676 C74.4719821,27.4590676 53.5591369,27.7180434 46.8927469,54.7599557 C43.7388688,67.5530393 46.147727,76.7340012 48.7243835,82.1846364 C51.5219849,88.1023953 55.0169241,90.9429626 55.1642566,91.0612748 L55.7858386,91.5591316 L55.5908241,90.7855354 C55.5313554,90.5479439 49.6685967,66.9413836 54.4941352,52.7224284 C59.3147446,38.5198071 74.8703689,28.0551418 75.0273449,27.9523037 L75.7565064,27.4666971 L74.8817269,27.4590676 C74.8812983,27.4590676 74.8795839,27.4590676 74.877548,27.4590676 L74.877548,27.4590676 Z M27.7746783,85.3201782 C26.3226772,80.3523556 23.067113,62.722764 40.2208922,39.247196 C55.520426,18.3078718 69.7275569,19.4941101 73.7783946,20.3751652 C69.7477012,21.2264542 56.3266289,25.4085378 42.332514,44.7641334 C29.7322172,62.1905203 28.0044098,80.078228 27.7746783,85.3201782 Z M69.9201069,19.4555324 C63.5112004,19.4555324 51.9622678,22.2686976 39.7885385,38.9302999 C19.3365491,66.9199992 27.6771711,86.7524973 27.763749,86.9493619 L28.2761443,86.8351331 C28.2715368,86.6248361 27.9722645,65.5389381 42.7657248,45.0789878 C59.2665268,22.2578443 74.8859058,20.7168844 75.041596,20.7043117 L75.116923,20.1871122 C75.0604545,20.1644384 73.1375254,19.4555324 69.9201069,19.4555324 Z M10.3563759,61.7317785 C10.6221635,56.8444425 13.3209934,38.8988144 37.7765671,22.5009162 C58.0200409,8.92663896 69.3952821,11.0984576 73.2347112,12.5802076 C69.1223689,12.3225213 57.6291547,13.3916294 37.8677524,28.4173856 C20.5892497,41.5575613 12.4152473,57.3108139 10.3563759,61.7317785 Z M66.5029592,10.859684 C60.4058617,10.859684 50.8937595,13.0595816 37.4793306,22.0537799 C8.71395696,41.3414616 9.78840137,62.8387121 9.80304889,63.0548118 L10.3182945,63.1362657 C10.3940501,62.9482127 18.0972424,44.1257204 38.191348,28.8463613 C62.7958614,10.1334556 74.687891,13.3089936 74.8046855,13.3454221 L75.0348455,12.8681974 C74.8088643,12.7070091 72.0886258,10.859684 66.5029592,10.859684 Z M0.841301309,33.8990765 C2.26481532,29.1158681 9.34430396,11.6550944 38.0686603,4.59806751 C62.2583927,-1.3444929 71.3029958,3.98899074 73.8378634,6.19189718 C70.6187304,5.19118663 60.2791023,3.51507572 36.1089784,11.0081921 C15.3974696,17.4268167 3.84822625,30.1980862 0.841301309,33.8990765 Z M57.8283481,1.30251947 C52.7265748,1.30251947 46.2142677,2.04381361 37.9414722,4.07797741 C20.3829843,8.39018289 11.0055707,16.5645669 6.23149684,22.660815 C1.04472076,29.2838263 0.010045392,34.9765664 0,35.0328748 L0.481759854,35.23479 C0.596445549,35.0723122 12.1905519,18.9816388 36.2672402,11.5194813 C51.6526018,6.75143541 61.2827843,5.81369575 66.6800796,5.860709 C72.5088714,5.9156957 74.7272154,7.1115945 74.748967,7.1233505 L75.1018148,6.73884124 C74.9009069,6.43997668 71.2486703,1.30251947 57.8283481,1.30251947 L57.8283481,1.30251947 Z" id="path24" fill="#231F20" fill-rule="nonzero"></path>
                            <path d="M80.0500409,31.6239577 C80.0500409,31.6239577 79.813559,177.892754 79.1275793,186.041359 C78.4967822,193.538763 77.2896208,198.172389 77.2896208,198.172389 C77.2896208,198.172389 76.1436425,193.538763 75.5124168,186.041359 C74.8272943,177.892754 74.8800125,32.0441218 74.8800125,32.0441218 L80.0500409,31.6239577 L80.0500409,31.6239577" id="path26" fill="#8A9889" fill-rule="nonzero"></path>
                            <g id="g28" transform="translate(74.791292, 31.592902)">
                                <g id="g30-Clipped">
                                    <mask id="mask-2" fill="white">
                                        <use xlink:href="#path-1"></use>
                                    </mask>
                                    <g id="path32"></g>
                                    <g id="g30" mask="url(#mask-2)" fill="#231F20" fill-rule="nonzero">
                                        <g transform="translate(2.250168, 5.372943)" id="path36">
                                            <polyline points="0.356166667 0.0935966589 0.122333333 161.345166 0.632166667 161.345166 0.865833333 0.0935966589 0.356166667 0.0935966589"></polyline>
                                        </g>
                                    </g>
                                </g>
                            </g>
                            <path d="M75.1952503,32.3367323 L79.7344817,31.9668589 C79.721945,39.8899074 79.4749623,178.163551 78.8131987,186.014494 C78.3896314,191.055389 77.6973297,194.822896 77.2972285,196.72062 C76.9145928,194.821822 76.2503647,191.054314 75.8263688,186.014494 C75.1646052,178.145283 75.1926787,39.6653184 75.1952503,32.3367323 L75.1952503,32.3367323 Z M80.3660288,31.2822386 L74.5653105,31.7528009 L74.5653105,32.0441218 C74.5644533,33.5036279 74.5200928,177.999139 75.198572,186.068224 C75.8243329,193.504376 76.9727757,198.201402 76.9845623,198.248684 L77.5943578,198.251908 C77.6068944,198.205701 78.8157703,193.506525 79.4411026,186.068224 C80.1203319,178.000213 80.3631357,33.0876547 80.3652787,31.6239577 L80.3660288,31.2822386 L80.3660288,31.2822386 Z" id="path38" fill="#231F20" fill-rule="nonzero"></path>
                            <path d="M81.3488163,9.50381119 C81.3488163,9.50381119 81.3948912,10.7899432 81.2253785,11.0746017 C81.0545801,11.3616243 80.1978019,11.4745635 79.9981799,12.3480965 C79.7972721,13.2207699 80.5464708,25.8233289 80.5464708,25.8233289 L80.3074172,31.4669603 L73.2631062,32.9079835 C73.2631062,32.9079835 73.0061585,16.3778034 73.2305324,15.3507117 C73.4547991,14.3230827 73.9450142,14.0082283 73.9450142,14.0082283 L76.7727251,8.52576372 L81.1228352,8.56228898 L81.3488163,9.50381119 L81.3488163,9.50381119" id="path40" fill="#231F20" fill-rule="nonzero"></path>
                            <g id="g42" transform="translate(73.076878, 8.489249)">
                                <g id="g44-Clipped">
                                    <mask id="mask-4" fill="white">
                                        <use xlink:href="#path-3"></use>
                                    </mask>
                                    <g id="path46"></g>
                                    <g id="g44" mask="url(#mask-4)" fill="#D29908" fill-rule="nonzero">
                                        <g transform="translate(-1.285810, 4.190895)" id="path50">
                                            <path d="M5.6258481,0.00752211955 L5.59155983,0.639272702 C5.93937148,0.658615296 6.93587436,0.769405371 7.36447775,1.05191469 C7.94844987,1.43683229 8.25897303,1.68409511 8.39837628,1.80208493 L8.38241081,3.23547853 C7.91619747,2.81112353 7.15103327,2.31251447 6.03816456,2.15884831 C4.1722397,1.9019142 1.16740848,1.58716722 1.13676334,1.58372854 L0.789808897,1.54719253 L0.786487221,4.6938026 L1.10708256,4.68832219 C1.14437105,4.6896117 5.03523263,4.62707065 6.69274909,4.89066721 C8.0216339,5.1030059 8.45613059,5.96729744 8.54067261,6.17340351 L8.53863674,6.88832724 C8.20582621,6.58819467 7.70436024,6.30224667 6.96019761,6.18307481 C5.31521779,5.91990808 1.09454591,6.26076756 0.914103881,6.27462975 L0.62447514,6.29805578 L0.626189553,9.27584799 L0.985252043,9.22630946 C1.02961249,9.22007684 5.39354506,8.60766885 6.69735658,8.92660672 C7.66375007,9.16301619 8.33430007,9.42199202 8.62939351,9.54664429 L8.67750424,10.6866752 C7.99527479,10.5116248 6.60992149,10.174204 5.53916307,10.0335403 C4.06166003,9.83882491 0.876493933,10.5053922 0.741269564,10.5322569 L0.477142724,10.5888877 L0.61943905,13.2497837 L0.960607348,13.2002452 C0.99746724,13.1939051 4.64263192,12.674664 6.59609903,12.7888927 C7.91619747,12.8681974 8.62521463,13.0280961 8.93413052,13.1175019 L8.8742332,14.720573 C8.16896632,14.4834113 6.66724719,14.0439046 5.13198984,14.0082283 C3.0781224,13.9729818 0.179584821,14.436022 0.0564684967,14.4553646 L0.158583254,15.0786259 C0.18837119,15.074435 3.12409011,14.5896882 5.11731018,14.6399789 C7.06906287,14.6853265 9.03870975,15.450541 9.05885411,15.4568811 L9.47192062,15.6201111 L9.57950007,12.6960483 L9.39037883,12.6070724 C9.31923067,12.5748347 8.63903709,12.2793229 6.63370897,12.158754 C4.95861977,12.0538742 2.18073405,12.3976351 1.21176894,12.5273379 L1.13558468,11.0984576 C1.93085827,10.9423198 4.31367882,10.5171052 5.45762127,10.6598105 C6.86226173,10.8449621 8.9069142,11.4003095 8.92780862,11.4057899 L9.34301815,11.5186217 L9.24304641,9.13529181 L9.07353377,9.05211866 C9.03956695,9.03750426 8.2426861,8.6537687 6.84640341,8.31419873 C5.64802833,8.01664518 2.35774725,8.40865506 1.25612939,8.55264992 L1.25484358,6.88284684 C2.24845339,6.8106345 5.52834083,6.59775851 6.86183313,6.80773311 C8.25190107,7.02888342 8.53649372,7.93476153 8.54774456,7.97333926 L9.16514775,7.88726472 L9.17061244,6.06594466 L9.15475411,6.01769564 C9.13632417,5.95848581 8.66496759,4.56485198 6.79111357,4.26729842 C5.3470416,4.03604697 2.39835742,4.04690032 1.41728426,4.05238072 L1.41889152,2.24911374 C2.26484747,2.33937918 4.47183347,2.58116159 5.95233673,2.78425882 C7.65335644,3.01851911 8.39130433,4.17789265 8.42141371,4.22743118 L8.99274203,5.14835353 L9.03035198,1.53676902 L8.94045242,1.44317236 C8.90980728,1.41286897 8.62017854,1.12283753 7.70982494,0.523432062 C7.06274097,0.0977875541 5.7706089,0.0159039099 5.6258481,0.00752211955"></path>
                                        </g>
                                    </g>
                                </g>
                            </g>
                            <path d="M73.3736859,32.7707586 C73.3497913,31.1815496 73.1321679,16.3282649 73.3401477,15.3741378 C73.5502705,14.4146377 74.0014827,14.1061233 74.0065188,14.1026846 L74.0307349,14.0867807 L76.8409802,8.63951966 L81.0341143,8.67394947 L81.2366294,9.51850082 C81.2538807,10.0045909 81.239201,10.8319596 81.1290499,11.0178634 C81.0872611,11.0876042 80.9575014,11.1618583 80.8206698,11.2404107 C80.4874307,11.4305054 80.0324682,11.6924901 79.8880288,12.323381 C79.6863709,13.2002452 80.4028886,25.3140814 80.4342838,25.8299914 L80.1990877,31.3737935 L73.3736859,32.7707586 Z M76.7048986,8.4128567 L73.857472,13.9331146 C73.7461422,14.0170399 73.3250394,14.3911042 73.1203813,15.3258887 C72.8961146,16.3551296 73.1405256,32.234324 73.1509193,32.9105625 L73.1530623,33.0457458 L80.4162825,31.560557 L80.4196042,31.4724407 L80.6582291,25.8287019 C80.3999956,21.4627562 79.9516764,13.05077 80.1077952,12.3729195 C80.2304829,11.8389565 80.619762,11.6152272 80.9324281,11.4359858 C81.1026908,11.3390579 81.2504518,11.2529834 81.3216,11.1329518 C81.5037565,10.8277687 81.4660394,9.63478204 81.4605747,9.49919046 L81.4589674,9.47694648 L81.2119847,8.44937122 L81.124121,8.44853304 L76.7048986,8.4128567 L76.7048986,8.4128567 Z" id="path52" fill="#231F20" fill-rule="nonzero"></path>
                            <path d="M78.6290064,0.112915611 C79.963463,0.137681652 80.0735069,1.80958555 80.0735069,1.80958555 L79.6251878,3.86096427 C79.6251878,3.86096427 81.2274144,4.9561204 81.2400582,5.27094259 C81.2525949,5.58576479 81.0754745,6.30774857 81.0754745,6.30774857 C81.0754745,6.30774857 85.5268422,6.67420474 88.4727404,10.1053336 C91.4185315,13.5356243 91.3348467,21.3607778 90.8488105,24.433886 C90.36331,27.5073166 88.7916213,30.3516449 86.3477248,31.6466315 C83.9020067,32.9424778 81.5400806,33.5346835 80.6268339,33.3895066 C79.7143373,33.2446521 79.4736765,32.6137612 79.4736765,32.6137612 C79.4736765,32.6137612 78.60104,39.9037696 77.6119305,40.0594775 C76.6233568,40.2151853 74.9465532,33.4872942 74.9465532,33.4872942 C74.9465532,33.4872942 72.3050705,33.6601955 71.0745502,34.5564023 C69.8434941,35.4530389 69.7523087,37.2193401 69.7523087,37.2193401 C69.7523087,37.2193401 70.9267891,37.2516852 71.4667223,38.1789476 C72.0062268,39.1066398 70.7040225,40.2420501 69.8050269,40.223997 C68.9059242,40.2068036 67.6310434,38.2242952 67.809771,37.096837 C67.9867842,35.9705607 70.5860494,33.6993105 70.5860494,33.6993105 C70.5860494,33.6993105 69.7435223,33.7206948 69.8246355,33.2034953 C69.9062845,32.6880152 72.7315309,29.9843506 73.3108955,29.2631942 C73.890153,28.5420379 79.6787632,21.6584388 80.97711,19.9314676 C82.2767427,18.2033144 85.9709824,16.1058251 85.9709824,16.1058251 C85.9709824,16.1058251 86.5544188,13.2015347 85.4046902,11.6139377 C84.2544259,10.0268349 83.2897468,8.84394938 83.0473716,8.80532866 C82.8032819,8.76628886 82.2989229,9.59195969 81.2978125,9.43160959 C80.2961664,9.27378478 78.7571588,8.96651694 78.7571588,8.96651694 C78.7571588,8.96651694 76.8785901,9.04249035 76.4378787,10.2526704 C75.9971672,11.4628505 75.1500326,12.6986273 74.720572,13.4440693 C74.2906828,14.1887592 73.3137886,15.062722 73.3137886,15.062722 C73.3137886,15.062722 74.3769393,9.29939222 74.6766402,8.19248009 C74.9763411,7.08682523 75.2713274,6.9785282 74.8239726,6.46893684 C74.3769393,5.96061349 74.0131622,5.49971174 74.1194558,4.82809392 C74.2249994,4.15647611 76.6027838,3.10119795 76.6027838,3.10119795 C76.6027838,3.10119795 76.812478,1.1958988 76.9544529,0.875621997 C77.095892,0.556603534 77.2946569,0.0889893607 78.6290064,0.112915611 L78.6290064,0.112915611 Z M85.4695165,17.3063554 C85.4695165,17.3063554 83.4152204,20.4730602 82.2319536,22.4404169 C81.0475081,24.4070213 79.844097,26.7119062 79.4653187,27.931779 C79.0852547,29.1515445 78.9651386,31.0941856 78.9153134,30.620292 C78.8654883,30.1455388 78.3825594,28.0723352 78.1050387,27.2786442 C77.8279466,26.4831263 77.4641695,26.0222353 77.4641695,26.0222353 C77.4641695,26.0222353 81.7896349,20.7148426 82.8660723,19.6057598 C83.9439027,18.498074 85.4695165,17.3063554 85.4695165,17.3063554 L85.4695165,17.3063554 Z M75.7799725,27.8133594 L75.1211019,31.984912 C75.1211019,31.984912 73.7377845,32.4538624 73.4506202,31.7197035 C73.1639917,30.9867267 75.7799725,27.8133594 75.7799725,27.8133594 Z M88.1517165,15.2977345 C88.1517165,15.2977345 89.5840019,21.2017387 88.8214093,24.4532286 C88.0582809,27.7038588 86.8729783,29.108346 85.7960051,30.2173213 C84.7190319,31.3255445 81.8469606,31.5576556 81.55101,30.8847483 C81.2538807,30.2131304 82.1649843,25.9891379 83.6320937,23.4130269 C85.099096,20.835304 86.5255952,19.0944706 86.6645699,18.212126 L86.962985,16.3262232 L88.1517165,15.2977345 L88.1517165,15.2977345 L88.1517165,15.2977345 Z" id="path54" fill="#D29908"></path>
                            <path d="M74.248894,32.021448 C73.9491931,32.021448 73.6595644,31.9442925 73.5553066,31.6789766 C73.3807578,31.2306583 74.6281009,29.436203 75.6028521,28.2112795 L75.0211302,31.8980852 C74.886763,31.936663 74.5623102,32.021448 74.248894,32.021448 L74.248894,32.021448 Z M75.9552713,27.4225316 L75.6932874,27.7402874 C75.4212314,28.0714756 73.043447,30.9888759 73.346041,31.7604304 C73.6683507,32.5868965 75.0956,32.1130029 75.1575332,32.0923708 L75.2216094,32.0709865 L75.9552713,27.4225316 Z M77.6064658,26.0264262 C78.1138251,25.4030574 81.9515398,20.7093622 82.9464355,19.6843123 C83.6103421,19.0017336 84.4524406,18.2810071 84.9945168,17.834838 C84.3415395,18.8480675 83.0000109,20.9448046 82.1357322,22.3816369 C81.0424721,24.197584 79.7582691,26.6077785 79.3573107,27.8985743 C79.1471879,28.5765322 79.0132493,29.484452 78.9317075,30.060324 C78.7655165,29.2460008 78.4293843,27.8662291 78.2113324,27.2395291 C77.991566,26.6099277 77.7203672,26.1876144 77.6064658,26.0264262 L77.6064658,26.0264262 Z M85.4005113,17.2169496 C85.3845458,17.2299521 83.856039,18.4258617 82.7852806,19.5273149 C81.7180581,20.6266189 77.4202377,25.8962935 77.3767344,25.9500229 L77.3198373,26.0209458 L77.3754486,26.0919761 C77.3791989,26.0965968 77.7320466,26.5507179 77.9987451,27.3159324 C78.2791588,28.1189724 78.755873,30.1787436 78.8035551,30.6321125 C78.8090198,30.687024 78.8215564,30.8041541 78.9317075,30.8063033 C78.9358864,30.8063033 78.9392081,30.8063033 78.9421011,30.8063033 C79.0530023,30.8063033 79.0593242,30.7642869 79.145152,30.1581115 C79.2246579,29.5952421 79.3585965,28.6529354 79.5733268,27.9648764 C79.9676419,26.6938531 81.2408083,24.3028937 82.3282822,22.498767 C83.4968694,20.5556961 85.5440935,17.399952 85.5637021,17.3684666 L85.4005113,17.2169496 Z M87.0671356,16.3853255 L88.0847472,15.5051301 C88.3136214,16.5205088 89.3851299,21.5564604 88.7112582,24.4263639 C87.9620595,27.6211155 86.8206887,29.0000275 85.7152134,30.1388764 C84.9065459,30.9716825 83.0829456,31.2671943 82.1825571,31.1051464 C81.8979644,31.0534587 81.7054143,30.9556711 81.6535533,30.8394006 C81.3773185,30.21442 82.296887,25.9845172 83.729601,23.4687981 C84.325574,22.4223638 84.9032242,21.5316374 85.4143338,20.7437491 C86.1538889,19.6015689 86.6896432,18.776285 86.775471,18.2301791 L87.0671356,16.3853255 Z M88.2174,15.0924881 L86.85787,16.2670134 L86.5535616,18.1937505 C86.4753415,18.6936491 85.9508381,19.5024919 85.2246768,20.6211385 C84.7132458,21.411176 84.1335597,22.3052336 83.5350151,23.3571483 C82.0959792,25.8845805 81.1094413,30.1657411 81.4484666,30.9309556 C81.5342944,31.1252412 81.7673475,31.2595647 82.1428041,31.3264041 C83.1117692,31.5026367 85.0028745,31.1954118 85.8763682,30.2958738 C87.0035952,29.1352107 88.168432,27.7285744 88.9310246,24.4792336 C89.6907241,21.2382747 88.2751543,15.3300796 88.260046,15.2721593 L88.2174,15.0924881 Z M78.6273991,0.22667155 L78.6290064,0.112915611 L78.6273991,0.22667155 C79.7792707,0.245979757 79.9446045,1.64211093 79.959177,1.80329921 L79.4988569,3.91049205 L79.5616473,3.9533144 C80.2983094,4.45744685 81.1061197,5.10639085 81.1282999,5.2764015 C81.1395507,5.57064533 80.9680022,6.27458676 80.967145,6.28088385 L80.9357498,6.40974851 L81.0663667,6.41940906 C81.1102985,6.42402979 85.5072336,6.82363702 88.3881984,10.1783734 C91.2938079,13.5645307 91.2184809,21.3733505 90.7379093,24.4158329 C90.2222995,27.6816148 88.5618899,30.3461645 86.2948994,31.5466948 C83.9061856,32.8135272 81.5413664,33.4218517 80.6448353,33.2790389 C79.8127018,33.145575 79.5880064,32.5965678 79.5783629,32.5730343 L79.3614896,32.6007587 C79.0292148,35.3850175 78.2536569,39.8437001 77.5947864,39.9491172 C77.5872858,39.9499769 77.5793567,39.9499769 77.5717489,39.9499769 C76.9523099,39.9499769 75.733469,36.1783862 75.055847,33.4595698 L75.0328096,33.3693044 L74.9390526,33.3743549 C74.8297588,33.381877 72.2510665,33.5603662 71.0083309,34.4652772 C69.7485584,35.3829758 69.643872,37.1387459 69.6396932,37.2131074 L69.6337999,37.3280884 L69.7488799,37.3309898 C69.7602379,37.3322793 70.8686062,37.3751554 71.369215,38.2360082 C71.5763376,38.5915896 71.4566501,38.9441621 71.3201399,39.1784224 C71.0163672,39.696374 70.3504247,40.1123472 69.8263499,40.1123472 C69.820028,40.1123472 69.8138133,40.1123472 69.8070628,40.1123472 C69.5237559,40.1056848 69.1583715,39.8597115 68.8046666,39.4361087 C68.2818776,38.8098385 67.8106282,37.8103637 67.9206721,37.1153199 C68.0893275,36.0414836 70.6341602,33.8067693 70.6596621,33.7840955 L70.8945367,33.5796013 L70.5834778,33.5872309 C70.4558612,33.5926038 70.1146929,33.5636974 69.9828973,33.4133625 C69.9385369,33.3617822 69.923,33.3005307 69.9360724,33.2219783 C69.9841831,32.9189443 71.3139251,31.5391727 72.1941694,30.6270619 C72.7311023,30.0679535 73.1952797,29.5864304 73.3983306,29.334117 C73.5607713,29.1323093 74.122456,28.4572528 74.9009069,27.523328 C76.8572671,25.175567 80.1308326,21.2436476 81.0671167,19.9990592 C82.3379258,18.310021 85.989841,16.2241373 86.0262723,16.2049021 L86.0710613,16.1780374 L86.0805978,16.1284989 C86.1057782,16.0071779 86.661141,13.1561871 85.495447,11.5484952 C84.5738425,10.2761717 83.4052554,8.74824652 83.0649443,8.6945171 C82.9351846,8.67394947 82.8137827,8.76545068 82.6442701,8.89221989 C82.3478908,9.11469195 81.9453251,9.4156627 81.3153853,9.32079803 C80.3275616,9.16423048 78.7939115,8.85780082 78.7789104,8.85570537 C78.6726168,8.85696264 76.793298,8.94720658 76.3324422,10.2140497 C75.9971672,11.1337041 75.4320537,12.0567756 74.9779484,12.798564 C74.8440098,13.0163831 74.7226079,13.2152895 74.6230648,13.3870087 C74.3387936,13.8793851 73.8022893,14.4373115 73.4870515,14.7432468 C73.7202117,13.4915662 74.5322009,9.15666538 74.7853983,8.22185934 C74.8699403,7.90787533 74.9541609,7.67701073 75.0223088,7.48979592 C75.1935359,7.02133981 75.2713274,6.80769012 74.9085146,6.39505888 C74.4505519,5.87372227 74.1332783,5.45773831 74.2304641,4.8465661 C74.3003264,4.40035397 75.7506131,3.60196694 76.6484301,3.2031979 L76.7074702,3.17759045 L76.7149708,3.11295395 C76.7722965,2.58866222 76.9464166,1.17112954 77.0573177,0.921795991 C77.1929707,0.614530302 77.3813419,0.19015166 78.6273991,0.22667155 L78.6273991,0.22667155 Z M78.5323563,0 C77.2193298,0 77.0004206,0.494478349 76.8539454,0.824411407 C76.7175424,1.13251957 76.5399934,2.6520522 76.4982046,3.02395653 C76.0704584,3.21830661 74.1140982,4.13842302 74.0081261,4.81004084 C73.8963677,5.51818391 74.2568232,5.99503256 74.7398592,6.54407207 C75.0139511,6.85679882 74.9754839,6.96341949 74.8110074,7.41340343 C74.7418951,7.60397095 74.6556386,7.84029446 74.5677749,8.16267101 C74.2706456,9.26202878 73.2468193,14.8066476 73.203316,15.0420899 L73.1429901,15.3666156 L73.3882584,15.1462175 C73.42844,15.110971 74.3840112,14.2521599 74.8176507,13.4999479 C74.9160152,13.3290884 75.0369885,13.1326536 75.1692126,12.9155867 C75.6045665,12.2049613 76.2005396,11.2336408 76.5437437,10.2912804 C76.9540243,9.16506866 78.7433363,9.07901561 78.7617663,9.07817743 C78.7499797,9.07901561 80.2878086,9.38670254 81.2798112,9.54327008 C82.0039366,9.65954056 82.4684355,9.30484039 82.7794944,9.07397579 C82.8695012,9.00513765 82.98876,8.92034187 83.030656,8.91698916 C83.1938468,8.95686714 83.9794768,9.83794374 85.3133977,11.6806696 C86.3414029,13.0982668 85.9383014,15.6462236 85.8692963,16.0340426 C85.4214057,16.2917289 82.1231955,18.2206153 80.8876391,19.862694 C79.9549981,21.1026616 76.6827184,25.0324318 74.7280726,27.3784734 C73.9491931,28.313258 73.3862225,28.9891741 73.2233533,29.1935609 C73.0261957,29.437385 72.565447,29.9163291 72.0317287,30.4687751 C70.7090586,31.8422066 69.768167,32.8396397 69.7137344,33.1863019 C69.690697,33.3307266 69.725521,33.4595698 69.8138133,33.5615482 C69.9372511,33.7035014 70.1440522,33.7656126 70.3135648,33.7924773 C69.6936972,34.3557766 67.852417,36.1006934 67.6988699,37.0796435 C67.5778965,37.8427088 68.0767909,38.9152556 68.6322609,39.581393 C69.0332194,40.0616267 69.4488575,40.3302738 69.8028839,40.3377959 C69.8109202,40.3377959 69.8188494,40.3377959 69.8263499,40.3377959 C70.4312165,40.3377959 71.1678785,39.8823853 71.5144044,39.2921138 C71.7500291,38.8883909 71.7680304,38.4735998 71.5642295,38.1223168 C71.0967304,37.3192768 70.199342,37.1505664 69.8744607,37.1153199 C69.9188211,36.7227727 70.1419092,35.3753462 71.1402336,34.6479572 C72.2016699,33.8742535 74.3835826,33.6484824 74.8607254,33.606466 C75.189357,34.9124134 76.5759961,40.175748 77.5855714,40.175748 C77.6002511,40.175748 77.6149307,40.1737062 77.6295033,40.1711272 C78.5821814,40.0208997 79.3313802,34.6588106 79.5469677,32.9394689 C79.721945,33.1477242 80.0471478,33.4121804 80.6092612,33.5015862 C81.5359017,33.6560046 83.8790764,33.0834638 86.4000144,31.7465682 C88.728831,30.5119735 90.4336009,27.785635 90.9598187,24.4523689 C91.4457478,21.3759295 91.5156102,13.4764145 88.557711,10.0322938 C85.8972627,6.93235314 81.9725414,6.30481494 81.2136991,6.20995027 C81.2651315,5.98453383 81.3622102,5.51482045 81.352138,5.26674095 C81.3391727,4.9443644 80.275272,4.172423 79.7520544,3.81058756 L80.1865511,1.81840792 L80.1852653,1.80329921 C80.1839795,1.78482703 80.0526125,0.0256054024 78.631578,0 C78.5976112,0 78.5650373,0 78.5323563,0 L78.5323563,0 Z" id="path56" fill="#231F20" fill-rule="nonzero"></path>
                            <path d="M87.0671356,16.3853255 L88.0847472,15.5051301 C88.3136214,16.5205088 89.3851299,21.5564604 88.7112582,24.4263639 C87.9620595,27.6211155 86.8206887,29.0000275 85.7152134,30.1388764 C84.9065459,30.9716825 83.0829456,31.2671943 82.1825571,31.1051464 C81.8979644,31.0534587 81.7054143,30.9556711 81.6535533,30.8394006 C81.3773185,30.21442 82.296887,25.9845172 83.729601,23.4687981 C84.325574,22.4223638 84.9032242,21.5316374 85.4143338,20.7437491 C86.1538889,19.6015689 86.6896432,18.776285 86.775471,18.2301791 L87.0671356,16.3853255 Z M88.2174,15.0924881 L86.85787,16.2670134 L86.5535616,18.1937505 C86.4753415,18.6936491 85.9508381,19.5024919 85.2246768,20.6211385 C84.7132458,21.411176 84.1335597,22.3052336 83.5350151,23.3571483 C82.0959792,25.8845805 81.1094413,30.1657411 81.4484666,30.9309556 C81.5342944,31.1252412 81.7673475,31.2595647 82.1428041,31.3264041 C83.1117692,31.5026367 85.0028745,31.1954118 85.8763682,30.2958738 C87.0035952,29.1352107 88.168432,27.7285744 88.9310246,24.4792336 C89.6907241,21.2382747 88.2751543,15.3300796 88.260046,15.2721593 L88.2174,15.0924881 L88.2174,15.0924881 Z" id="path60" fill="#231F20" fill-rule="nonzero"></path>
                        </g>
                    </g>
                </g>
            </g>
        </g>
    </g>
</svg>