<?xml version="1.0" encoding="UTF-8"?>
<svg width="200px" height="200px" viewBox="0 0 200 200" version="1.1" xmlns="http://www.w3.org/2000/svg" xmlns:xlink="http://www.w3.org/1999/xlink">
    <title>drexel_BGD</title>
    <defs>
        <polygon id="path-1" points="0 0 200 0 200 110.489706 0 110.489706"></polygon>
    </defs>
    <g id="drexel_BGD" stroke="none" stroke-width="1" fill="none" fill-rule="evenodd">
        <g id="Drexel_bgd" transform="translate(0.000000, 41.000000)">
            <path d="M172.399805,117.89743 C172.251188,117.908393 172.105007,117.919357 171.952735,117.926666 C172.105007,117.919357 172.252406,117.908393 172.399805,117.89743 Z M173.401145,117.804848 C173.261055,117.820685 173.123401,117.836521 172.978438,117.849921 C173.122183,117.836521 173.262273,117.820685 173.401145,117.804848 Z M174.307467,117.681813 C174.183214,117.701303 174.057742,117.719576 173.926179,117.737849 C174.056523,117.719576 174.184432,117.701303 174.307467,117.681813 Z M175.105372,117.544159 C174.998173,117.564868 174.888537,117.58314 174.774029,117.603849 C174.887319,117.584359 175.000609,117.56365 175.105372,117.544159 Z M175.769278,117.406505 C175.68766,117.424778 175.598733,117.44305 175.509806,117.462541 C175.597515,117.44305 175.690096,117.424778 175.769278,117.406505 Z M176.290657,117.284688 C176.235839,117.298087 176.170057,117.312706 176.106712,117.328542 C176.167621,117.313924 176.237057,117.298087 176.290657,117.284688 Z M170.850286,117.951029 C171.009867,117.952248 171.165794,117.947375 171.322938,117.944938 C171.207212,117.947375 171.095139,117.954684 170.976976,117.954684 C170.935559,117.954684 170.891704,117.952248 170.850286,117.951029 Z M169.830674,117.913266 C170.037763,117.926666 170.243635,117.935193 170.44707,117.940066 C170.242417,117.935193 170.038982,117.926666 169.830674,117.913266 Z M168.792788,117.808503 C168.995005,117.835303 169.196004,117.85723 169.398221,117.876721 C169.196004,117.85723 168.995005,117.835303 168.792788,117.808503 Z M165.289317,116.792545 C165.074918,116.687782 164.869046,116.565964 164.664393,116.444147 C164.869046,116.565964 165.074918,116.687782 165.289317,116.792545 Z M164.347667,116.258984 C164.044342,116.060421 163.749543,115.843586 163.468145,115.599951 C163.749543,115.843586 164.044342,116.060421 164.347667,116.258984 Z M159.641856,110.010964 C159.77951,110.265562 159.9196,110.526252 160.063345,110.799123 C159.9196,110.526252 159.77951,110.265562 159.641856,110.010964 Z M158.58448,108.289682 C158.740407,108.499208 158.890242,108.728225 159.03886,108.966987 C158.890242,108.728225 158.740407,108.499208 158.58448,108.289682 Z M159.121696,109.099769 C159.263004,109.333658 159.403094,109.577293 159.544402,109.831892 C159.403094,109.577293 159.263004,109.333658 159.121696,109.099769 Z M154.75941,106.41491 C154.576684,106.418565 154.384212,106.430747 154.184432,106.450238 C154.384212,106.430747 154.576684,106.418565 154.75941,106.41491 Z M153.025947,106.623218 C153.346327,106.556219 153.64478,106.509928 153.931051,106.474601 C153.64478,106.509928 153.346327,106.556219 153.025947,106.623218 Z M158.569862,108.271409 C158.418809,108.069192 158.260446,107.885248 158.094774,107.711049 C158.260446,107.885248 158.418809,108.069192 158.569862,108.271409 Z M156.686564,106.724327 C156.464856,106.634182 156.223657,106.567182 155.96784,106.514801 C156.223657,106.567182 156.464856,106.634182 156.686564,106.724327 Z M157.355342,107.083689 C157.156779,106.952126 156.949689,106.831526 156.721891,106.736509 C156.949689,106.831526 157.156779,106.952126 157.355342,107.083689 Z M158.000975,107.612377 C157.834085,107.445487 157.657449,107.295651 157.46985,107.160434 C157.657449,107.295651 157.834085,107.445487 158.000975,107.612377 Z M155.828968,106.485565 C155.567061,106.440492 155.284444,106.416129 154.982336,106.412474 C155.284444,106.416129 155.567061,106.440492 155.828968,106.485565 Z M159.400658,100.260689 C159.421367,100.260689 159.442076,100.263126 159.462785,100.263126 C159.167986,100.260689 158.874406,100.272871 158.57839,100.303326 C158.853697,100.275308 159.127787,100.260689 159.400658,100.260689 Z M160.348398,100.324035 C160.154708,100.299671 159.958582,100.288708 159.763674,100.28018 C159.958582,100.288708 160.154708,100.299671 160.348398,100.324035 Z M161.230357,100.486052 C161.053722,100.443416 160.87465,100.410525 160.695578,100.380071 C160.87465,100.410525 161.052503,100.443416 161.230357,100.486052 Z M162.108661,100.750396 C161.936899,100.688269 161.763918,100.633451 161.590937,100.584724 C161.763918,100.633451 161.936899,100.688269 162.108661,100.750396 Z M162.983311,101.118285 C162.812766,101.036667 162.642222,100.959922 162.471677,100.889268 C162.642222,100.959922 162.812766,101.036667 162.983311,101.118285 Z M163.861615,101.597028 C163.687416,101.491046 163.513217,101.387502 163.3378,101.29492 C163.513217,101.387502 163.687416,101.491046 163.861615,101.597028 Z M164.763065,102.203679 C164.57303,102.063589 164.384212,101.924717 164.192959,101.800463 C164.384212,101.924717 164.57303,102.063589 164.763065,102.203679 Z M165.872823,103.108783 C165.596297,102.856621 165.317335,102.623949 165.038373,102.404678 C165.317335,102.623949 165.596297,102.856621 165.872823,103.108783 Z M166.278475,117.209161 C166.076258,117.13607 165.880132,117.052016 165.682787,116.965526 C165.878913,117.052016 166.076258,117.13607 166.278475,117.209161 Z M167.301742,117.521014 C167.101961,117.471068 166.905835,117.411378 166.708491,117.349251 C166.904617,117.411378 167.103179,117.471068 167.301742,117.521014 Z M168.346936,117.740285 C168.145937,117.707394 167.946157,117.667195 167.746376,117.624558 C167.946157,117.667195 168.145937,117.707394 168.346936,117.740285 Z M176.977707,113.75198 C171.677427,112.373005 170.437325,109.634547 169.12535,106.734072 C168.410281,105.149226 167.736631,103.65818 166.447801,102.480205 C164.216104,100.440979 161.844317,99.4079669 159.400658,99.4079669 C159.09855,99.4079669 158.79157,99.4238031 158.489463,99.4554757 C154.077232,99.923255 151.282738,103.622853 150.979413,104.044342 L148.996224,106.820563 L147.73054,108.593008 L149.863564,108.15081 L153.198928,107.457668 C153.834815,107.326105 154.408576,107.259106 154.90681,107.259106 C157.127543,107.259106 157.862103,108.466317 159.310513,111.198684 C160.194908,112.865148 161.197466,114.754538 162.909002,116.243148 C164.869046,117.944938 167.58314,118.807407 170.976976,118.807407 C174.024851,118.807407 176.570837,118.104519 177.04958,117.963211 L181.616518,116.593982 L184.53283,115.719332 L181.586064,114.951882 L176.977707,113.75198 L176.977707,113.75198 Z" id="Fill-1" fill="#FFFFFE"></path>
            <g id="Group-5">
                <mask id="mask-2" fill="white">
                    <use xlink:href="#path-1"></use>
                </mask>
                <g id="Clip-3"></g>
                <path d="M195.003045,108.826897 C195.061518,108.808625 195.13339,108.787916 195.185772,108.770861 C195.13339,108.787916 195.062736,108.808625 195.003045,108.826897 Z M194.375685,109.008405 C194.462176,108.98526 194.560848,108.960897 194.640029,108.937751 C194.55963,108.960897 194.463394,108.98526 194.375685,109.008405 Z M193.59118,109.199659 C193.705689,109.174077 193.829943,109.148496 193.937142,109.122914 C193.828725,109.149714 193.706907,109.174077 193.59118,109.199659 Z M192.678767,109.376294 C192.817639,109.353149 192.962602,109.331222 193.092947,109.30564 C192.961384,109.331222 192.817639,109.353149 192.678767,109.376294 Z M191.654282,109.518821 C191.812645,109.501766 191.974662,109.48593 192.125716,109.465221 C191.973444,109.48593 191.812645,109.501766 191.654282,109.518821 Z M190.531124,109.607748 C190.705323,109.59922 190.881959,109.594348 191.050067,109.580948 C190.880741,109.594348 190.705323,109.59922 190.531124,109.607748 Z M189.270313,109.619929 C189.478621,109.62602 189.686929,109.632111 189.889146,109.630893 C189.831892,109.630893 189.77951,109.636984 189.722256,109.636984 C189.574857,109.636984 189.420149,109.624802 189.270313,109.619929 Z M182.298697,107.579486 C182.019734,107.401632 181.745645,107.190888 181.470337,106.983798 C181.745645,107.190888 182.019734,107.401632 182.298697,107.579486 Z M183.587526,108.294555 C183.331709,108.171519 183.080765,108.021684 182.827385,107.877939 C183.080765,108.021684 183.332927,108.171519 183.587526,108.294555 Z M181.040322,106.670727 C180.62736,106.333293 180.22049,105.961749 179.824583,105.550006 C180.22049,105.961749 180.62736,106.333293 181.040322,106.670727 Z M163.01742,96.1310756 C163.276891,96.1505665 163.547326,96.1761481 163.818979,96.202948 C163.547326,96.1761481 163.276891,96.1505665 163.01742,96.1310756 Z M161.860153,96.0677305 C162.08308,96.0762578 162.313315,96.0896577 162.54355,96.1030576 C162.313315,96.0896577 162.08308,96.0762578 161.860153,96.0677305 Z M164.23925,96.2431478 C164.65952,96.2906566 165.090754,96.3454745 165.537824,96.4136923 C165.090754,96.3454745 164.65952,96.2906566 164.23925,96.2431478 Z M160.398343,96.0458034 C159.90011,96.0470216 159.416494,96.056767 158.951151,96.0738214 C159.416494,96.056767 159.90011,96.0470216 160.398343,96.0458034 Z M157.344378,96.1469119 C157.780485,96.1249848 158.23121,96.1030576 158.692898,96.084785 C158.232428,96.1030576 157.779267,96.1249848 157.344378,96.1469119 Z M153.378,96.1383847 C153.655744,96.1664027 153.93836,96.1883299 154.228286,96.1992935 C153.93836,96.1871117 153.655744,96.1664027 153.378,96.1383847 Z M152.547204,96.0214399 C152.729931,96.0543306 152.91753,96.0799123 153.106347,96.1030576 C152.91753,96.0799123 152.729931,96.0543306 152.547204,96.0214399 Z M151.746863,95.8374954 C151.907662,95.8825679 152.070898,95.9215495 152.23657,95.9568766 C152.072116,95.9215495 151.907662,95.8825679 151.746863,95.8374954 Z M150.967231,95.5755878 C151.120721,95.6352784 151.275429,95.6925326 151.431356,95.7424778 C151.275429,95.6925326 151.120721,95.6352784 150.967231,95.5755878 Z M150.197344,95.2174443 C150.352053,95.299062 150.506761,95.3794616 150.662687,95.4488976 C150.506761,95.3794616 150.352053,95.299062 150.197344,95.2174443 Z M149.389694,94.7179924 C149.56633,94.8422463 149.742965,94.9628457 149.922037,95.0688269 C149.742965,94.9628457 149.56633,94.8422463 149.389694,94.7179924 Z M154.242904,96.2005116 C154.540139,96.2126934 154.845901,96.2163479 155.157754,96.2163479 C155.135827,96.2163479 155.110245,96.2175661 155.088318,96.2175661 C154.79961,96.2175661 154.518212,96.2126934 154.242904,96.2005116 Z M148.495554,94.0004873 C148.728225,94.2161043 148.963333,94.4110123 149.199659,94.5888659 C148.963333,94.4110123 148.728225,94.2161043 148.495554,94.0004873 Z M147.791448,93.2829821 C147.963211,93.4730174 148.134974,93.6447801 148.306737,93.8116701 C148.134974,93.6447801 147.963211,93.4730174 147.791448,93.2829821 Z M146.373493,91.4313558 C146.518455,91.6469728 146.660982,91.8528444 146.804727,92.0501888 C146.660982,91.8528444 146.517237,91.6469728 146.373493,91.4313558 Z M145.642587,90.2619077 C145.791205,90.5140699 145.939822,90.7601413 146.087221,90.9915946 C145.939822,90.7601413 145.791205,90.5140699 145.642587,90.2619077 Z M147.087343,92.4326958 C147.235961,92.6239493 147.38336,92.8030211 147.530759,92.9760019 C147.38336,92.8030211 147.235961,92.6239493 147.087343,92.4326958 Z M145.361189,89.7831648 C145.197953,89.4944573 145.032282,89.1850408 144.86661,88.8695334 C145.032282,89.1850408 145.197953,89.4944573 145.361189,89.7831648 Z M144.624193,88.4139359 C144.375685,87.9291022 144.123523,87.4186868 143.867706,86.8729443 C144.123523,87.4186868 144.375685,87.9291022 144.624193,88.4139359 Z M146.28822,85.2064807 C146.198075,85.1869899 146.104276,85.1674991 146.016567,85.1480083 C146.104276,85.1674991 146.198075,85.1869899 146.28822,85.2064807 Z M147.033743,85.3672798 C146.92898,85.3453527 146.822999,85.3222073 146.721891,85.3002802 C146.822999,85.3222073 146.92898,85.3453527 147.033743,85.3672798 Z M147.859666,85.5402607 C147.728103,85.5134608 147.595322,85.4854428 147.466196,85.458643 C147.595322,85.4854428 147.728103,85.5134608 147.859666,85.5402607 Z M148.642953,85.7010598 C148.501645,85.6730418 148.360336,85.6438056 148.220246,85.6157876 C148.360336,85.6438056 148.501645,85.6730418 148.642953,85.7010598 Z M149.383603,85.8508954 C149.261786,85.8265319 149.13875,85.8021684 149.016933,85.7778048 C149.13875,85.8021684 149.261786,85.8265319 149.383603,85.8508954 Z M150.168108,86.0043854 C150.0536,85.9824583 149.939091,85.9605311 149.823365,85.9373858 C149.939091,85.9605311 150.0536,85.9824583 150.168108,86.0043854 Z M150.995249,86.16153 C150.867341,86.1383847 150.739432,86.1140212 150.610306,86.0896577 C150.739432,86.1140212 150.867341,86.1383847 150.995249,86.16153 Z M151.771227,86.3040565 C151.6421,86.2809112 151.512974,86.2577659 151.382629,86.2334024 C151.512974,86.2577659 151.6421,86.2809112 151.771227,86.3040565 Z M152.500914,86.4331831 C152.383969,86.4136923 152.267024,86.3929833 152.147643,86.3722743 C152.267024,86.3929833 152.383969,86.4136923 152.500914,86.4331831 Z M153.212328,86.5525643 C153.102692,86.5355098 152.995493,86.5172372 152.882202,86.4989646 C152.994275,86.5172372 153.10391,86.5355098 153.212328,86.5525643 Z M153.87867,86.6573273 C153.775125,86.641491 153.67158,86.6256548 153.563162,86.6086003 C153.67158,86.6256548 153.775125,86.641491 153.87867,86.6573273 Z M154.485321,86.7438178 C154.39274,86.731636 154.300158,86.7182361 154.202704,86.7048362 C154.300158,86.7182361 154.39274,86.731636 154.485321,86.7438178 Z M155.026191,86.8108174 C154.945791,86.801072 154.864173,86.7925448 154.777683,86.7815812 C154.864173,86.7913266 154.945791,86.801072 155.026191,86.8108174 Z M155.49397,86.8546717 C155.425752,86.849799 155.356316,86.8437081 155.282008,86.8363991 C155.356316,86.8437081 155.425752,86.849799 155.49397,86.8546717 Z M155.874041,86.8753807 C155.820441,86.8741625 155.764405,86.8717262 155.703496,86.8692898 C155.764405,86.8717262 155.820441,86.8741625 155.874041,86.8753807 Z M156.222439,96.1956389 C156.109148,96.1992935 156.000731,96.1992935 155.888659,96.202948 C156.000731,96.1992935 156.10793,96.1992935 156.222439,96.1956389 Z M161.393592,96.0555488 C161.180412,96.0506761 160.968449,96.0458034 160.761359,96.0445852 C160.968449,96.0458034 161.180412,96.0506761 161.393592,96.0555488 Z M177.373614,80.8368863 C177.274942,80.8843952 177.177488,80.9331222 177.078816,80.9818492 C177.177488,80.9331222 177.27616,80.8843952 177.373614,80.8368863 Z M178.3579,80.3605799 C178.259228,80.4068705 178.160555,80.4543793 178.060665,80.5018882 C178.160555,80.4543793 178.259228,80.4068705 178.3579,80.3605799 Z M180.47387,79.4834937 C180.384943,79.5139481 180.294798,79.5444025 180.205872,79.5772932 C180.294798,79.5444025 180.384943,79.5139481 180.47387,79.4834937 Z M181.450847,79.1740772 C181.350956,79.2020953 181.252284,79.2313315 181.153612,79.2605677 C181.252284,79.2313315 181.350956,79.2020953 181.450847,79.1740772 Z M182.407114,78.9438421 C182.354733,78.9535875 182.302351,78.9682056 182.248751,78.9791692 C182.302351,78.9682056 182.354733,78.9535875 182.407114,78.9438421 Z M183.650871,78.775734 C183.559508,78.7842612 183.466927,78.7879157 183.376782,78.7976611 C183.466927,78.7879157 183.559508,78.7842612 183.650871,78.775734 Z M184.732611,78.7367523 C184.622975,78.7355342 184.514557,78.7355342 184.407358,78.7379705 C184.468267,78.7367523 184.525521,78.7282251 184.587648,78.7282251 C184.635157,78.7282251 184.685102,78.7355342 184.732611,78.7367523 Z M185.837495,78.7988793 C185.781459,78.7927884 185.72786,78.7915702 185.671824,78.7866975 C185.72786,78.7915702 185.781459,78.7927884 185.837495,78.7988793 Z M188.2507,79.2946766 C188.373736,79.3312218 188.495554,79.3653307 188.619808,79.4055305 C188.495554,79.3653307 188.373736,79.3312218 188.2507,79.2946766 Z M186.987453,78.9791692 C187.094652,79.0010964 187.205506,79.0291144 187.313924,79.0534779 C187.205506,79.0291144 187.094652,79.0010964 186.987453,78.9791692 Z M184.886101,108.835425 C184.643684,108.748934 184.400049,108.640517 184.156414,108.536972 C184.400049,108.640517 184.643684,108.748934 184.886101,108.835425 Z M186.183457,109.220368 C185.948349,109.163114 185.712023,109.087587 185.475697,109.015714 C185.712023,109.087587 185.948349,109.163114 186.183457,109.220368 Z M187.461323,109.468876 C187.234742,109.435985 187.005725,109.387258 186.77549,109.342185 C187.005725,109.387258 187.234742,109.435985 187.461323,109.468876 Z M188.703862,109.59922 C188.488245,109.58582 188.267755,109.560239 188.046047,109.535875 C188.266537,109.560239 188.488245,109.58582 188.703862,109.59922 Z M198.600317,106.893653 L196.411256,105.497625 C188.646607,100.544524 184.608357,95.625533 184.732611,91.2717749 C184.871483,86.2882202 190.465343,83.0478743 190.521379,83.0149836 L194.512121,80.7747594 L192.852966,80.1132903 L190.259471,79.0814959 C188.226337,78.2701913 186.371056,77.8755025 184.587648,77.8755025 C181.310756,77.8755025 178.747716,79.1765136 175.779023,80.6833963 C171.551955,82.8273846 166.295529,85.4927519 156.068949,86.0238762 L155.970277,86.0263126 C154.493848,86.0263126 148.986478,84.9409185 145.54757,84.1710318 L141.197466,83.2050189 L143.095383,87.2359605 C147.026434,95.5987331 150.095018,97.0702887 155.088318,97.0702887 C155.860641,97.0702887 156.684127,97.0337435 157.387014,96.9984164 C158.337191,96.9496894 159.411621,96.8948715 160.564015,96.8948715 C162.247533,96.8948715 163.787307,97.0093799 165.408698,97.2566695 C170.075527,97.9632111 173.429163,100.123036 179.209404,106.140821 C181.944208,108.98526 185.579242,110.489706 189.722256,110.489706 C193.225728,110.489706 195.934949,109.414058 196.04824,109.368985 L200,107.787794 L198.600317,106.893653 L198.600317,106.893653 Z" id="Fill-2" fill="#FFFFFE" mask="url(#mask-2)"></path>
                <path d="M111.550737,44.8775734 C110.672433,44.875137 109.781947,44.8653916 108.870752,44.83981 C109.781947,44.8653916 110.672433,44.875137 111.550737,44.8775734 Z M117.014253,44.7204288 C117.71714,44.6741381 118.3981,44.6132294 119.063223,44.5437934 C118.3981,44.6132294 117.71714,44.6741381 117.014253,44.7204288 Z M121.466683,44.2319406 C120.840541,44.3330491 120.183944,44.4171032 119.513948,44.4938482 C120.183944,44.4171032 120.840541,44.3330491 121.466683,44.2319406 Z M133.574126,48.323791 C133.315873,48.3079547 133.058838,48.2909002 132.798148,48.282373 C133.058838,48.2909002 133.315873,48.3079547 133.574126,48.323791 Z M132.12937,48.2689731 C131.872335,48.2641004 131.616518,48.2592277 131.358265,48.261664 C131.430138,48.2604459 131.500792,48.2567913 131.571446,48.2567913 C131.757827,48.2567913 131.942989,48.2653186 132.12937,48.2689731 Z M141.627482,50.6541601 C141.304666,50.423925 140.963577,50.215617 140.604215,50.0231453 C140.963577,50.215617 141.304666,50.423925 141.627482,50.6541601 Z M139.479839,49.5029845 C139.735656,49.6053112 139.975636,49.7259106 140.218053,49.8428554 C139.975636,49.7259106 139.735656,49.6053112 139.479839,49.5029845 Z M138.266537,49.0851504 C138.51139,49.1570228 138.744061,49.2447314 138.979169,49.3275673 C138.744061,49.2447314 138.51139,49.1570228 138.266537,49.0851504 Z M136.977707,48.7611158 C137.224997,48.8134974 137.462541,48.8780607 137.702522,48.9401876 C137.462541,48.8780607 137.224997,48.8134974 136.977707,48.7611158 Z M139.678402,70.9282495 C139.823365,70.7004507 139.957364,70.451943 140.074309,70.1729809 C139.957364,70.451943 139.823365,70.7004507 139.678402,70.9282495 Z M139.215495,71.5361189 C139.323913,71.4155196 139.425021,71.2778658 139.524912,71.1377756 C139.423803,71.2778658 139.323913,71.4155196 139.215495,71.5361189 Z M138.702643,72.0112072 C138.808625,71.9283713 138.91217,71.8309173 139.014496,71.7322451 C138.910951,71.8309173 138.808625,71.9283713 138.702643,72.0112072 Z M138.161774,72.3656962 C138.268973,72.3072238 138.373736,72.2402241 138.479717,72.1683518 C138.373736,72.2402241 138.268973,72.3072238 138.161774,72.3656962 Z M137.611158,72.6129857 C137.71714,72.5752223 137.824339,72.531368 137.93032,72.4814228 C137.823121,72.531368 137.718358,72.5752223 137.611158,72.6129857 Z M137.071507,72.7664758 C137.175052,72.7445487 137.279815,72.7201852 137.387014,72.6885126 C137.279815,72.7201852 137.175052,72.7445487 137.071507,72.7664758 Z M136.559873,72.8359118 C136.658545,72.8298209 136.759654,72.8212937 136.865635,72.8054574 C136.759654,72.8212937 136.659764,72.8298209 136.559873,72.8359118 Z M135.98124,72.8286028 C136.104276,72.8432209 136.24193,72.8493117 136.386892,72.8468754 C136.372274,72.8468754 136.356438,72.8493117 136.343038,72.8493117 C136.213912,72.8493117 136.092094,72.8420027 135.98124,72.8286028 Z M135.626751,48.5247899 C135.880132,48.5601169 136.124985,48.6076258 136.372274,48.6514801 C136.124985,48.6076258 135.880132,48.5601169 135.626751,48.5247899 Z M134.229504,48.3676453 C134.486539,48.3895724 134.737483,48.4200268 134.990864,48.449263 C134.738701,48.4200268 134.486539,48.3895724 134.229504,48.3676453 Z M129.852601,48.2982093 C130.08649,48.2884639 130.319162,48.2835912 130.553052,48.2775003 C130.319162,48.2835912 130.08649,48.2884639 129.852601,48.2982093 Z M128.356682,48.3871361 C128.586917,48.3700816 128.817152,48.3578999 129.048605,48.3432818 C128.817152,48.3578999 128.585699,48.3700816 128.356682,48.3871361 Z M126.886344,48.5199172 C127.108052,48.4967718 127.333415,48.477281 127.557559,48.4577902 C127.333415,48.477281 127.108052,48.4967718 126.886344,48.5199172 Z M125.457425,48.6868072 C125.665733,48.6600073 125.877695,48.636862 126.08844,48.6124985 C125.877695,48.636862 125.664515,48.6600073 125.457425,48.6868072 Z M124.080887,48.8829334 C124.273359,48.852479 124.473139,48.8268973 124.669265,48.7976611 C124.473139,48.8268973 124.273359,48.852479 124.080887,48.8829334 Z M122.781094,49.0948958 C122.944329,49.0656596 123.118528,49.0388598 123.286637,49.0120599 C123.118528,49.0388598 122.944329,49.0656596 122.781094,49.0948958 Z M121.561701,49.3178219 C121.679864,49.2946766 121.80899,49.2727494 121.929589,49.2496041 C121.80899,49.2727494 121.679864,49.2946766 121.561701,49.3178219 Z M114.724083,44.8312827 C115.396516,44.8093556 116.056767,44.7789012 116.7024,44.7387014 C116.056767,44.7789012 115.396516,44.8093556 114.724083,44.8312827 Z M112.003898,44.8800097 C112.776221,44.8787916 113.533926,44.867828 114.275795,44.847119 C113.533926,44.867828 112.776221,44.8787916 112.003898,44.8800097 Z M119.580948,73.9091241 C119.41893,73.9773419 119.264222,74.0589597 119.129005,74.1698136 C119.264222,74.0589597 119.41893,73.9773419 119.580948,73.9091241 Z M120.123036,73.7519795 C119.984164,73.776343 119.850164,73.8116701 119.721038,73.8567426 C119.851383,73.8116701 119.984164,73.776343 120.123036,73.7519795 Z M120.796687,73.6935071 C120.612742,73.692289 120.428798,73.7044707 120.250944,73.727616 C120.416616,73.7056889 120.584724,73.692289 120.755269,73.692289 C120.768669,73.692289 120.782068,73.6935071 120.796687,73.6935071 Z M121.368011,73.7337069 C121.207212,73.7142161 121.043976,73.7020344 120.880741,73.6971617 C121.043976,73.7020344 121.207212,73.7142161 121.368011,73.7337069 Z M121.977098,73.8323791 C121.816299,73.7982702 121.646973,73.769034 121.472774,73.7446705 C121.648191,73.769034 121.816299,73.7982702 121.977098,73.8323791 Z M122.537459,73.9688147 C122.673895,74.0065781 122.790839,74.0431234 122.893166,74.0772323 C122.790839,74.0431234 122.672676,74.0065781 122.537459,73.9688147 Z M122.078207,73.8543062 C122.220733,73.8859788 122.355951,73.9188695 122.480205,73.9529784 C122.355951,73.9188695 122.220733,73.8859788 122.078207,73.8543062 Z M122.962602,74.1003776 C123.052747,74.130832 123.13071,74.15885 123.180655,74.1771227 C123.131928,74.15885 123.050311,74.1296138 122.962602,74.1003776 Z M123.530272,78.4017542 C123.368254,78.574735 123.212328,78.7635522 123.068583,78.9803874 C123.212328,78.762334 123.368254,78.574735 123.530272,78.4017542 Z M124.051651,77.9351931 C123.923742,78.0314289 123.800707,78.1386283 123.678889,78.2555732 C123.800707,78.1386283 123.923742,78.0314289 124.051651,77.9351931 Z M124.691193,77.5368498 C124.527957,77.6172494 124.368376,77.7110488 124.210013,77.8182483 C124.368376,77.7110488 124.527957,77.6172494 124.691193,77.5368498 Z M125.295407,77.3005238 C125.111463,77.3553417 124.927519,77.4223413 124.744792,77.5076136 C124.928737,77.4223413 125.111463,77.3553417 125.295407,77.3005238 Z M125.848459,77.1750518 C125.716896,77.1957608 125.584115,77.224997 125.450116,77.2591059 C125.584115,77.224997 125.716896,77.1957608 125.848459,77.1750518 Z M126.433183,77.1190157 C126.296747,77.1226702 126.154221,77.1336338 126.009258,77.1506883 C126.155439,77.1324156 126.295529,77.1226702 126.433183,77.1190157 Z M126.860763,77.1336338 C126.74869,77.1238884 126.636618,77.1153612 126.513583,77.1153612 C126.520892,77.1153612 126.528201,77.114143 126.53551,77.114143 C126.650018,77.114143 126.754781,77.1251066 126.860763,77.1336338 Z M127.010598,77.142161 C127.164088,77.1604337 127.306615,77.1860153 127.430869,77.2176879 C127.306615,77.1860153 127.164088,77.1604337 127.010598,77.142161 Z M132.332805,86.064076 C132.229261,86.0494579 132.12937,86.0311853 132.027043,86.0141308 C132.12937,86.0311853 132.229261,86.0494579 132.332805,86.064076 Z M136.06164,86.2151297 C136.291875,86.2041662 136.516019,86.202948 136.753563,86.1858935 C136.516019,86.202948 136.291875,86.2041662 136.06164,86.2151297 Z M134.13205,86.2273115 C134.25265,86.2334024 134.375685,86.2358387 134.497503,86.2394932 C134.375685,86.2358387 134.25265,86.2334024 134.13205,86.2273115 Z M169.143623,52.7274942 C168.645389,53.2038007 168.152028,53.7154343 167.665976,54.2599586 C168.152028,53.7154343 168.645389,53.2038007 169.143623,52.7274942 Z M170.660251,51.3972469 C170.316726,51.6725545 169.980509,51.9844074 169.643075,52.2889512 C169.980509,51.9844074 170.316726,51.6725545 170.660251,51.3972469 Z M172.210988,50.2704349 C171.895481,50.4775247 171.586064,50.7199415 171.274211,50.9501766 C171.586064,50.7199415 171.895481,50.4775247 172.210988,50.2704349 Z M180.477525,47.7073943 C180.163235,47.7061761 179.853819,47.7415032 179.543184,47.760994 C179.837983,47.7415032 180.131563,47.7073943 180.430016,47.7073943 C180.445852,47.7073943 180.461688,47.7073943 180.477525,47.7073943 Z M182.064807,59.8672189 C182.158606,59.7514923 182.251188,59.6369838 182.348642,59.5261299 C182.251188,59.6369838 182.158606,59.7514923 182.064807,59.8672189 Z M181.441101,60.7065416 C181.527592,60.5798514 181.6153,60.4543793 181.704227,60.3325618 C181.614082,60.4543793 181.527592,60.5798514 181.441101,60.7065416 Z M180.873432,61.6092094 C180.952613,61.4727738 181.034231,61.3387745 181.115848,61.2072116 C181.034231,61.3387745 180.952613,61.4727738 180.873432,61.6092094 Z M180.349616,62.5679133 C180.421489,62.4266049 180.495797,62.2889512 180.570106,62.1512974 C180.495797,62.2889512 180.421489,62.4266049 180.349616,62.5679133 Z M179.855037,63.581435 C179.922037,63.4376903 179.990255,63.2976002 180.058472,63.15751 C179.990255,63.2976002 179.922037,63.4376903 179.855037,63.581435 Z M179.383603,64.6400292 C179.442076,64.5023754 179.502985,64.3683762 179.562675,64.2331587 C179.502985,64.3683762 179.443294,64.5011573 179.383603,64.6400292 Z M178.921915,65.7363869 C178.966987,65.6267511 179.01206,65.5207699 179.057132,65.4123523 C179.01206,65.5207699 178.966987,65.6267511 178.921915,65.7363869 Z M183.05762,58.7964429 C182.954075,58.8926788 182.856621,58.9950055 182.757949,59.0948958 C182.856621,58.9950055 182.954075,58.8926788 183.05762,58.7964429 Z M183.845779,58.1471556 C183.73858,58.2251188 183.641126,58.3116092 183.538799,58.3932269 C183.641126,58.3116092 183.73858,58.2251188 183.845779,58.1471556 Z M184.720429,57.5855768 C184.631502,57.635522 184.551102,57.6939944 184.464612,57.7463759 C184.551102,57.6939944 184.631502,57.635522 184.720429,57.5855768 Z M185.898404,57.0471434 C185.831405,57.0727251 185.758314,57.0922159 185.693751,57.1177975 C185.758314,57.0922159 185.831405,57.0727251 185.898404,57.0471434 Z M187.204288,56.654891 C187.06298,56.6889999 186.914362,56.7145816 186.779145,56.752345 C186.914362,56.7145816 187.06298,56.6889999 187.204288,56.654891 Z M188.515044,56.4234377 C188.337191,56.4453648 188.155683,56.4636375 187.985138,56.4916555 C188.155683,56.4636375 188.337191,56.4453648 188.515044,56.4234377 Z M189.935437,56.3162383 C189.729565,56.3223292 189.522475,56.3272019 189.325131,56.3406018 C189.522475,56.3272019 189.730783,56.3235473 189.935437,56.3162383 Z M191.266902,56.3174565 C191.137776,56.3125837 191.009867,56.3089292 190.883177,56.3064929 C191.009867,56.3089292 191.137776,56.3125837 191.266902,56.3174565 Z M177.846266,47.9717383 C178.145937,47.9157023 178.443172,47.8450481 178.74528,47.8085029 C178.443172,47.8450481 178.145937,47.9157023 177.846266,47.9717383 Z M176.178584,48.3907906 C176.474601,48.2969911 176.766963,48.1897917 177.065416,48.1167012 C176.766963,48.1897917 176.474601,48.2969911 176.178584,48.3907906 Z M174.530393,49.0218053 C174.823974,48.8890242 175.117554,48.741625 175.414789,48.6295529 C175.117554,48.741625 174.823974,48.8890242 174.530393,49.0218053 Z M172.900475,49.8684371 C173.198928,49.6930199 173.494945,49.5029845 173.795834,49.3482763 C173.494945,49.5029845 173.198928,49.6930199 172.900475,49.8684371 Z M171.857717,77.6501401 C171.953953,77.5673042 172.051407,77.489341 172.146425,77.4028505 C172.051407,77.489341 171.953953,77.5673042 171.857717,77.6501401 Z M170.900231,78.4127177 C171.019613,78.3250091 171.138994,78.2385187 171.255939,78.1483737 C171.138994,78.2385187 171.019613,78.3250091 170.900231,78.4127177 Z M169.933,79.0717505 C170.062127,78.9901328 170.190035,78.908515 170.317944,78.8232428 C170.190035,78.908515 170.062127,78.9901328 169.933,79.0717505 Z M168.938969,79.6540383 C169.070532,79.5833841 169.199659,79.5078572 169.330004,79.4335485 C169.199659,79.5078572 169.070532,79.5833841 168.938969,79.6540383 Z M167.919357,80.1681082 C168.041174,80.1108539 168.161774,80.0499452 168.282373,79.9902546 C168.161774,80.0499452 168.042392,80.1108539 167.919357,80.1681082 Z M166.876599,80.6200512 C166.947253,80.5920331 167.016689,80.5591424 167.087343,80.5299062 C167.016689,80.5591424 166.947253,80.5920331 166.876599,80.6200512 Z M165.481788,81.1170666 C165.592642,81.0805214 165.704714,81.0488488 165.815568,81.0110854 C165.704714,81.0488488 165.592642,81.0805214 165.481788,81.1170666 Z M164.309904,81.4642466 C164.449994,81.4264831 164.590084,81.3899379 164.730174,81.3497381 C164.590084,81.3899379 164.449994,81.4264831 164.309904,81.4642466 Z M163.187964,81.7407723 C163.335364,81.7078816 163.482763,81.6749909 163.630162,81.6384456 C163.482763,81.6749909 163.335364,81.7078816 163.187964,81.7407723 Z M162.081861,81.9661347 C162.228042,81.9393349 162.374223,81.9113168 162.520404,81.8820806 C162.374223,81.9113168 162.228042,81.9393349 162.081861,81.9661347 Z M160.985504,82.1476428 C161.120721,82.128152 161.255939,82.1050067 161.391156,82.0842977 C161.255939,82.1050067 161.120721,82.128152 160.985504,82.1476428 Z M159.902546,82.2889512 C160.003655,82.2779876 160.104763,82.2633695 160.20709,82.2511877 C160.104763,82.2633695 160.003655,82.2779876 159.902546,82.2889512 Z M158.618589,82.4095505 C158.69168,82.4034596 158.762334,82.3998051 158.835425,82.3937142 C158.762334,82.3998051 158.69168,82.4034596 158.618589,82.4095505 Z M157.413814,82.4814228 C157.53685,82.4765501 157.659885,82.4716774 157.784139,82.4643684 C157.659885,82.4716774 157.53685,82.4765501 157.413814,82.4814228 Z M156.360093,82.5155317 C156.491656,82.5130954 156.622,82.510659 156.754781,82.5070045 C156.622,82.510659 156.491656,82.5130954 156.360093,82.5155317 Z M155.42088,82.524059 C155.530515,82.524059 155.641369,82.524059 155.752223,82.5228408 C155.68766,82.524059 155.619442,82.5252771 155.553661,82.5252771 C155.508588,82.5252771 155.46717,82.524059 155.42088,82.524059 Z M153.976124,82.4960409 C154.038251,82.4972591 154.099159,82.5009136 154.161286,82.5021318 C154.097941,82.5009136 154.038251,82.4972591 153.976124,82.4960409 Z M150.553052,82.2438787 C150.505543,82.239006 150.464125,82.2329151 150.417834,82.2280424 C150.464125,82.2329151 150.506761,82.239006 150.553052,82.2438787 Z M151.659155,82.3535144 C151.595809,82.3474236 151.533683,82.3425509 151.471556,82.33646 C151.532464,82.3425509 151.595809,82.3474236 151.659155,82.3535144 Z M138.908515,85.0797905 C137.581922,85.2954075 136.291875,85.4038251 135.074918,85.4038251 C133.680107,85.4038251 132.346205,85.2612986 131.10123,84.9774638 L130.750396,84.8020465 L130.751614,84.8020465 C130.756487,84.8020465 128.3713,83.3256182 127.932757,81.3533926 C127.745158,80.5018882 127.941284,79.6881472 128.550372,78.7952248 L129.126568,77.9498112 L129.809965,76.9435985 L128.631989,76.6439274 L127.641613,76.3917651 C127.305397,76.3064929 126.92289,76.2614204 126.53551,76.2614204 C125.262517,76.2614204 124.095505,76.7133634 123.192837,77.5319771 C123.201364,77.2286515 123.369473,76.703618 124.094287,75.8935315 L124.795956,75.1138994 L125.63406,74.1832135 L124.460957,73.7446705 L123.479108,73.3779998 C123.148983,73.2525277 121.964917,72.8395663 120.755269,72.8395663 C120.355707,72.8395663 119.990255,72.8846388 119.658911,72.9735656 C119.077841,71.2705567 118.161774,69.645511 116.92289,68.1179194 C118.491899,67.9083932 120.158363,67.5673042 121.952735,67.1774881 L124.9531,70.5688878 L125.590206,71.2888293 L126.22853,70.5713242 L127.818248,68.7879157 C128.599099,69.7527104 129.616275,71.0110854 129.616275,71.0110854 L130.123036,71.6384456 L130.778414,71.1670118 C130.778414,71.1670118 133.036911,69.5370934 134.122305,68.7525886 C134.702156,69.2532586 135.110245,70.118163 134.59252,71.5982458 L134.297722,72.4326958 L133.946888,73.4291631 L134.994518,73.5619442 L135.874041,73.6740163 C136.017785,73.692289 136.17493,73.7032525 136.343038,73.7032525 C137.466196,73.7032525 138.836643,73.2500914 139.880619,72.079425 C139.936655,73.4181995 139.080278,75.0773541 137.391887,76.891217 L135.847241,78.546717 L134.001705,80.5250335 L138.864661,79.492021 C139.153368,79.4311122 145.530515,78.0363016 147.490559,72.8968206 C148.052138,73.3572908 148.373736,73.6399074 148.377391,73.6435619 L151.544646,76.4697283 L151.815081,76.710927 C150.601779,77.3663053 149.256913,77.9863564 147.73054,78.5540261 L140.412961,81.2803021 L143.406018,81.8528444 L148.08381,82.7482032 C148.215373,82.7737849 151.38872,83.3779998 155.553661,83.3779998 C161.126812,83.3779998 168.781825,82.3011329 173.60458,77.1689609 C176.405165,74.1868681 177.853575,70.6224875 179.254477,67.1762699 C181.621391,61.3533926 183.329273,57.1482519 190.481179,57.1482519 C191.179194,57.1482519 191.933244,57.1884517 192.721403,57.2700694 L196.110367,57.6209039 L198.278718,57.8450481 L194.58643,53.6533073 C194.346449,53.3792179 188.575953,46.8851261 180.481179,46.8546717 L180.430016,46.8546717 C175.592642,46.8546717 171.084176,49.1545864 167.030089,53.6910708 C165.024973,55.9337313 164.068705,58.7940066 163.056402,61.8211719 C161.447192,66.6402729 159.661347,71.9734438 153.033256,76.0214399 L152.941893,75.6364965 L151.960044,71.5105372 C148.093556,55.2698258 154.162505,47.1494701 154.423194,46.8120356 L158.287246,42.023389 L152.254842,43.3122183 C146.268729,44.6010476 143.014984,47.5149226 141.422829,49.5054209 C139.071751,48.1106103 135.763187,47.4040687 131.571446,47.4040687 C128.323791,47.4040687 125.031063,47.8292118 122.392496,48.2969911 C123.715434,46.4575466 125.331953,44.2112316 125.331953,44.2112316 L126.533073,42.5398952 L124.502375,42.8724571 L121.329029,43.3901815 C118.716043,43.8141065 115.521988,44.0297235 111.837008,44.0297235 C110.995249,44.0297235 110.116945,44.0187599 109.21915,43.9956146 C104.9933,39.9744183 92.2852966,26.6000731 89.6467292,9.12778658 L87.9510294,9.2690949 C88.038738,14.50603 87.2846875,28.4833719 82.9406749,32.4862955 C74.9689365,25.8984042 66.9655256,16.7499086 59.1436229,5.28078938 L55.542697,0 L57.6330856,6.03971251 C57.6781581,6.17005725 61.961262,18.7306615 60.7028871,30.9635766 L44.9202095,19.9269095 L41.4398831,33.4291631 C37.1640882,32.0635887 22.0063345,27.2225606 22.0063345,27.2225606 L20.9343404,26.8802534 L20.5018882,39.3921306 C16.0555488,38.7050798 1.31075649,36.4307467 1.31075649,36.4307467 L0.35083445,36.2833475 L-0.0730905104,54.5230844 L0.676087221,54.631502 C0.835668169,54.6546473 16.8035083,57.1287611 23.9444512,72.3705689 C31.3387745,88.1532464 40.4129614,94.4402485 48.3128274,98.5089536 L49.1034231,98.9158241 L49.4774029,98.108174 C49.5163845,98.0241199 53.3365818,89.9683274 64.0199781,82.2536241 C63.7215252,84.9104641 63.2817639,87.6866853 62.7055671,90.5323426 L64.3513217,90.9672311 C64.3708125,90.9087587 66.3296382,85.0456816 70.9136314,78.2263369 C72.6093312,77.4430503 74.346449,76.7852357 76.0786941,76.2699476 C79.617493,75.222317 82.6592764,74.9043732 84.7326105,74.8361554 C86.3868924,78.2909002 88.7513704,80.6042149 90.5140699,81.9710074 C90.9647947,82.5715678 91.3728834,83.073456 91.7931539,83.5448898 C97.32976,89.756365 103.153856,90.118163 108.785479,90.4689974 C111.633573,90.6480692 114.54623,90.8307955 117.332196,91.8370082 C124.370813,94.3756852 124.513339,106.708491 124.513339,106.832745 L124.523084,109.951273 L127.451578,108.879279 C139.674747,104.400049 141.371665,88.136192 141.437447,87.4454867 L141.712754,84.6193203 L140.617615,84.7996102 L138.908515,85.0797905 L138.908515,85.0797905 Z" id="Fill-4" fill="#FFFFFE" mask="url(#mask-2)"></path>
            </g>
            <path d="M144.429285,69.5395298 C141.327811,67.4138141 137.129979,65.0468997 133.473017,64.7374833 C131.427701,64.5657206 129.104641,64.8580826 126.7158,65.3014984 C125.753441,65.5536606 124.760629,65.8703862 123.731271,66.279693 C124.179559,66.7864539 125.24059,67.9839201 125.596297,68.3859179 C126.012913,67.9181386 127.888902,65.8119138 127.888902,65.8119138 C127.888902,65.8119138 130.118163,68.5686442 130.476306,69.0071872 C130.942868,68.6721891 133.983433,66.4770374 133.983433,66.4770374 L134.164941,66.5452552 C134.192959,66.5586551 136.758436,67.5721769 136.758436,70.3471799 C136.758436,70.7698867 136.671945,71.2498477 136.53551,71.759045 C137.301742,71.6981362 138.886588,71.2644658 139.403094,68.7477159 L139.507857,68.2299915 L139.950055,68.518699 C140.012182,68.5625533 141.526373,69.5785114 141.778536,71.6384456 C141.799245,71.8309173 141.811426,72.0246071 141.811426,72.2207333 C141.811426,73.7848703 141.026922,75.4878792 139.559021,77.2871239 C141.456938,76.6402729 145.217444,74.8982824 145.982458,71.196248 C145.785114,70.9440858 145.263735,70.313071 144.429285,69.5395298" id="Fill-6" fill="#FFFFFE"></path>
            <path d="M125.94104,80.7491777 C125.94104,79.8903642 126.234621,79.0412961 126.708491,78.205628 C125.959313,78.1556828 124.468267,78.3067365 123.645998,80.1595809 L123.496163,80.4945791 L123.163601,80.3386527 C123.10391,80.305762 121.621391,79.5882568 121.319284,78.0862468 C121.140212,77.1397247 121.480083,76.1079303 122.316969,75.0432452 C121.436229,74.7837739 120.267999,74.6022658 119.794128,75.0079181 C119.656475,75.1236448 119.590693,75.3148983 119.573639,75.5500061 C120.449507,77.8767207 122.700694,82.3254964 127.673285,84.6875381 C126.975271,83.9249604 126.316238,82.941893 126.054331,81.7773176 C125.977586,81.4337922 125.94104,81.0890486 125.94104,80.7491777" id="Fill-7" fill="#FFFFFE"></path>
            <path d="M54.5888659,47.6684127 C56.5903277,45.5975149 58.0789378,43.2257279 59.1704227,40.6833963 C52.8785479,40.0937995 36.3686198,40.4409794 11.029358,54.3817761 C15.0651724,56.2979656 22.6836399,61.0646851 27.2944329,71.2145206 C38.8281155,60.6919235 53.7288342,57.9705202 62.2694603,57.3187964 C59.0924595,49.9634547 54.5888659,47.6684127 54.5888659,47.6684127" id="Fill-8" fill="#F7C124"></path>
            <path d="M58.0350834,61.6311366 C58.0350834,61.6311366 60.0925813,72.8456572 63.8214155,77.2152516 C64.3220855,76.9009624 64.8178828,76.6037276 65.3075892,76.321111 C65.3563162,74.7606286 65.3441345,73.2829821 65.2880984,71.8772079 C62.9930564,69.7612377 60.1193812,66.4283104 58.0350834,61.6311366" id="Fill-9" fill="#F7C124"></path>
            <path d="M74.2660495,72.3742234 C76.536728,71.6603728 78.6392983,71.2133025 80.521379,70.9404312 C79.6613473,70.5043245 78.5406261,69.8781825 77.3114874,69.0620051 C76.2248751,70.1534901 75.2101352,71.2608113 74.2660495,72.3742234" id="Fill-10" fill="#F7C124"></path>
            <path d="M45.0152272,64.5937386 C47.9230113,73.866488 54.1015958,81.4837374 55.7936411,83.4535266 C57.2639786,82.0769887 58.7196979,80.855159 60.1449628,79.7709831 C52.8212937,75.4074796 45.0152272,64.5937386 45.0152272,64.5937386" id="Fill-11" fill="#F7C124"></path>
            <path d="M33.1453283,70.8003411 C36.8108174,80.8271409 45.8667316,89.2569131 48.5040809,91.5653551 C49.9062005,89.7344378 51.314411,88.066756 52.718967,86.5525643 C43.7702522,82.6714582 33.1453283,70.8003411 33.1453283,70.8003411" id="Fill-12" fill="#F7C124"></path>
            <path d="M101.867463,44.0589597 C103.151419,44.408576 104.301377,44.6436838 105.306371,44.7923011 C101.731027,41.4703374 92.6690218,32.2609331 89.9926909,21.9965891 C89.9926909,21.9965891 90.5238153,30.7418687 85.2844439,35.4184432 C87.871848,37.3589962 90.3033256,38.9194786 92.552077,40.1644536 L101.867463,44.0589597" id="Fill-13" fill="#F7C124"></path>
            <path d="M95.2698258,47.8523572 C95.2698258,47.8523572 103.63138,51.9259349 112.468023,49.6467292 C112.468023,49.6467292 109.271531,51.7237179 106.835181,51.5836277 L111.071994,54.2477768 C111.071994,54.2477768 99.7831648,51.6421001 95.2698258,47.8523572 Z M70.1924717,68.046047 C71.265684,60.1059812 80.8210501,52.3632598 80.8210501,52.3632598 C74.2989402,46.5074918 61.8162992,46.5123645 61.8162992,46.5123645 C71.5202826,42.9090023 81.6421001,45.987331 81.6421001,45.987331 C71.5239371,40.5396516 67.0641978,24.7204288 67.0641978,24.7204288 C76.1858935,40.6541601 88.901206,44.9762456 88.901206,44.9762456 C86.5306371,49.0729687 91.5324644,55.5768059 91.5324644,55.5768059 C78.4480448,54.5218662 70.1924717,68.046047 70.1924717,68.046047 Z M142.608113,58.6807163 C142.826166,57.9705202 145.437934,55.3538799 145.437934,55.3538799 C143.340236,59.0656596 144.692411,64.2514314 144.692411,64.2514314 C140.923377,60.8113047 139.876964,55.4135705 139.876964,55.4135705 C140.308198,57.0276526 142.608113,58.6807163 142.608113,58.6807163 Z M113.922524,64.82641 L114.571811,64.8057011 C116.769399,64.7070289 119.414058,64.130832 122.165915,63.5290535 C126.077476,62.6690218 130.119381,61.7809721 133.697162,62.0818614 C138.792788,62.5094409 144.46583,66.1724936 147.809721,68.6770618 C146.073821,58.3225728 148.132537,51.3667925 149.857474,47.6988671 C144.735047,49.7222561 143.272019,53.0466561 143.205019,53.2135461 L142.377878,55.1955171 L140.968449,53.5875259 C136.891217,48.9377512 122.738458,51.5495188 117.628213,52.9479839 L113.994396,53.943233 C113.994396,53.943233 117.553904,48.9974418 118.81837,47.2432696 C115.239371,47.5855768 111.078085,47.6830308 106.701182,47.4978682 C103.321964,47.2859057 84.4658302,44.9494457 64.8775734,19.1070776 C64.8775734,19.1070776 71.9003533,36.4380558 60.6029967,47.2859057 C60.6029967,47.2859057 72.2828603,56.7888902 67.7098307,77.2018516 C67.7098307,77.2018516 77.3565599,58.3737361 91.738336,58.6539164 C92.2292606,58.6697527 92.6994762,58.7002071 93.1453283,58.7404069 C93.1124376,58.9304422 93.0430016,59.0985504 92.9309295,59.2617858 C92.6093312,59.7259106 85.1285175,70.7820685 94.4195395,81.2059934 C98.9937873,86.3357291 103.633817,86.6232184 109.007187,86.9606529 C112.081861,87.1519064 115.256426,87.3492508 118.526008,88.526008 C125.920331,91.1925935 127.558777,100.634669 127.923011,104.81301 C134.681447,101.191375 136.986235,92.4375685 137.674504,88.7745158 C124.264831,90.0937995 118.095992,80.8039956 116.553782,74.8556462 C115.352662,70.2351078 110.937995,67.2700694 110.291144,66.8571081 C110.291144,66.8571081 100.641978,62.6885126 100.481179,56.4794737 C105.843586,63.9797783 111.717627,64.8008284 113.922524,64.82641 L113.922524,64.82641 Z" id="Fill-14" fill="#F7C124"></path>
            <path d="M165.917895,108.175174 C165.336825,106.883908 164.830065,105.768059 164.07236,105.078572 C162.338896,103.493726 160.588379,102.777439 158.875624,102.951638 C157.919357,103.050311 157.070289,103.420636 156.34182,103.86527 C159.696674,104.448776 161.12803,107.117798 162.419296,109.551712 C163.196492,111.01474 163.999269,112.531368 165.217444,113.586308 C166.908271,115.055427 169.395785,115.359971 171.560482,115.275917 C168.219028,113.214764 166.92289,110.397125 165.917895,108.175174" id="Fill-15" fill="#DB3540"></path>
            <path d="M171.04154,74.7606286 C173.393836,72.2572786 174.716774,69.0023145 175.995858,65.8533317 C178.337191,60.0877086 180.768669,54.1661591 189.336095,53.678889 C187.251797,52.1330247 184.08576,50.3812888 180.450725,50.3727406 C176.650018,50.3654526 173.016202,52.2694603 169.65282,56.0372762 C168.130101,57.7390669 167.321233,60.1522719 166.389329,62.9492021 C164.563284,68.4175904 162.334024,75.0432452 153.536363,79.7892557 C158.635644,80.0304544 166.568401,79.5212572 171.04154,74.7606286" id="Fill-16" fill="#DB3540"></path>
            <g id="Group-20" transform="translate(147.518577, 81.404376)">
                <path d="M33.692289,10.0671794 C33.692289,9.96241631 33.6935071,9.85399872 33.6983798,9.74801748 C33.8335973,5.25782379 36.7681813,2.00164155 38.9511512,0.192651414 C35.5865513,-0.478563106 33.2671458,0.68601236 29.8526008,2.41825746 C25.5719332,4.59026379 19.7064198,7.56261121 8.73553417,8.13515355 C7.22134243,8.21433493 2.91022049,7.39206669 3.46226208e-14,6.78906998 C3.08441954,12.401203 5.22962602,12.303749 9.69301986,12.0796048 C11.9673529,11.9650963 14.7959557,11.8213516 18.4188086,12.373185 C23.9115605,13.2064168 27.9010842,15.710985 34.228286,22.2988763 C37.5490316,25.7536211 41.8102083,25.8133117 44.5328298,25.3784231 C37.357778,20.2913236 33.692289,15.1518425 33.692289,10.0671794" id="Fill-17" fill="#DB3540"></path>
                <path d="M17.6988671,32.1819315 C16.4806919,31.1269918 15.6779145,29.6103637 14.9007187,28.1473353 C13.609453,25.7134213 12.1780972,23.0443995 8.82324278,22.4608936 C9.55171154,22.0162596 10.4007796,21.6459344 11.3570471,21.5472622 C13.0698014,21.3730632 14.8203192,22.0893502 16.5537824,23.6741961 C17.3114874,24.3636832 17.8182483,25.4795317 18.3993178,26.7707974 C19.4043123,28.9927489 20.7004507,31.810388 24.0419052,33.8715404 C21.8772079,33.9555945 19.3896942,33.6510507 17.6988671,32.1819315 Z M20.8271409,25.6756579 C20.1522719,24.1785206 19.5127299,22.7642192 18.3542453,21.7044068 C16.0250944,19.577473 13.5692533,18.6358235 11.0598124,18.8989494 C6.90827141,19.3399288 4.26361311,22.9847089 4.15154099,23.1394172 L2.17200633,25.9107657 L5.50736996,25.2188422 C9.85138263,24.3149562 10.9233768,26.337127 12.5447679,29.3947467 C13.3950542,30.9954289 14.3598489,32.811728 15.9495675,34.195575 C20.6407601,38.2679346 28.9377512,35.8449842 29.291022,35.7402212 L33.8530881,34.3734286 L29.2435132,33.1723079 C23.5461079,31.6897887 22.1646973,28.6309508 20.8271409,25.6756579 L20.8271409,25.6756579 Z" id="Fill-19" fill="#1D2D4F"></path>
            </g>
            <path d="M166.389329,62.9492021 C167.321233,60.1522719 168.130101,57.7390669 169.65282,56.0372762 C173.016202,52.2694603 176.650018,50.3654526 180.450725,50.3727406 C184.08576,50.3812888 187.251797,52.1330247 189.336095,53.678889 C180.768669,54.1661591 178.337191,60.0877086 175.995858,65.8533317 C174.716774,69.0023145 173.393836,72.2572786 171.04154,74.7606286 C166.568401,79.5212572 158.635644,80.0304544 153.536363,79.7892557 C162.334024,75.0432452 164.563284,68.4175904 166.389329,62.9492021 Z M143.565599,81.0147399 L148.243391,81.9113168 C148.926788,82.0428798 165.059081,85.0176635 172.983311,76.585455 C175.67426,73.720307 177.093434,70.2302351 178.465099,66.8546717 C181.061031,60.4665611 183.110001,55.4208795 192.809112,56.4222195 L196.198075,56.773054 L193.946888,54.2161043 C193.714216,53.9517603 188.148374,47.7366305 180.477525,47.7073096 C175.875259,47.691558 171.564137,49.8964551 167.665976,54.2599586 C165.775368,56.3734925 164.845901,59.158241 163.861615,62.1050067 C161.830917,68.1837008 159.52613,75.0749178 148.028993,79.353149 L143.565599,81.0147399 L143.565599,81.0147399 Z" id="Fill-21" fill="#1D2D4F"></path>
            <path d="M181.746863,103.703253 C175.419661,97.1153612 171.430138,94.610793 165.937386,93.7775612 C162.314533,93.2257279 159.48593,93.3694725 157.211597,93.483981 C152.748203,93.7081252 150.602997,93.8055792 147.518577,88.1934462 C150.428798,88.7964429 154.73992,89.6187112 156.254111,89.5395298 C167.224997,88.9669875 173.09051,85.99464 177.371178,83.8226337 C180.785723,82.0903886 183.105129,80.9258131 186.469728,81.5970277 C184.286758,83.4060178 181.352174,86.6622 181.216957,91.1523937 C181.212084,91.258375 181.210866,91.3667925 181.210866,91.4715556 C181.210866,96.5562188 184.876355,101.6957 192.051407,106.782799 C189.328785,107.217688 185.067609,107.157997 181.746863,103.703253 Z M195.952004,106.216348 C187.921793,101.093921 183.747107,95.9191132 183.879888,91.2474114 C184.033378,85.7376051 190.037763,82.3096601 190.101109,82.274333 L192.537459,80.9063223 L189.943964,79.8733098 C183.963942,77.4881228 180.520161,79.2337678 176.165185,81.4435376 C171.868681,83.622853 166.523328,86.3357291 156.112803,86.8753807 C154.711902,86.9509075 148.775734,85.7680594 145.361189,85.0030454 L142.709222,84.4134487 L143.867706,86.8729443 C148.243391,96.1834572 151.330247,96.4478012 157.344378,96.1469119 C159.610184,96.0299671 162.179315,95.9020587 165.537824,96.4136923 C170.421489,97.1531246 173.893288,99.3750761 179.824583,105.550006 C186.262639,112.247533 195.345353,108.73188 195.730296,108.577171 L198.141065,107.612377 L195.952004,106.216348 L195.952004,106.216348 Z" id="Fill-22" fill="#1D2D4F"></path>
            <path d="M144.692411,64.2514314 C144.692411,64.2514314 143.340236,59.0656596 145.437934,55.3538799 C145.437934,55.3538799 142.826166,57.9705202 142.608113,58.6807163 C142.608113,58.6807163 140.308198,57.0276526 139.876964,55.4135705 C139.876964,55.4135705 140.923377,60.8113047 144.692411,64.2514314" id="Fill-23" fill="#1D2D4F"></path>
            <path d="M88.901206,44.9762456 C88.901206,44.9762456 76.1858935,40.6541601 67.0641978,24.7204288 C67.0641978,24.7204288 71.5239371,40.5396516 81.6421001,45.987331 C81.6421001,45.987331 71.5202826,42.9090023 61.8162992,46.5123645 C61.8162992,46.5123645 74.2989402,46.5074918 80.8210501,52.3632598 C80.8210501,52.3632598 71.265684,60.1059812 70.1924717,68.046047 C70.1924717,68.046047 78.4480448,54.5218662 91.5324644,55.5768059 C91.5324644,55.5768059 86.5306371,49.0729687 88.901206,44.9762456" id="Fill-24" fill="#1D2D4F"></path>
            <path d="M106.835181,51.5836277 C109.271531,51.7237179 112.468023,49.6467292 112.468023,49.6467292 C103.63138,51.9259349 95.2698258,47.8523572 95.2698258,47.8523572 C99.7831648,51.6421001 111.071994,54.2477768 111.071994,54.2477768 L106.835181,51.5836277" id="Fill-25" fill="#1D2D4F"></path>
            <path d="M127.923011,104.81301 C127.558777,100.634669 125.920331,91.1925935 118.526008,88.526008 C115.256426,87.3492508 112.081861,87.1519064 109.007187,86.9606529 C103.633817,86.6232184 98.9937873,86.3357291 94.4195395,81.2059934 C85.1285175,70.7820685 92.6093312,59.7259106 92.9309295,59.2617858 C93.0430016,59.0985504 93.1124376,58.9304422 93.1453283,58.7404069 C92.6994762,58.7002071 92.2292606,58.6697527 91.738336,58.6539164 C77.3565599,58.3737361 67.7098307,77.2018516 67.7098307,77.2018516 C72.2828603,56.7888902 60.6029967,47.2859057 60.6029967,47.2859057 C71.9003533,36.4380558 64.8775734,19.1070776 64.8775734,19.1070776 C84.4658302,44.9494457 103.321964,47.2859057 106.701182,47.4978682 C111.078085,47.6830308 115.239371,47.5855768 118.81837,47.2432696 C117.553904,48.9974418 113.994396,53.943233 113.994396,53.943233 L117.628213,52.9479839 C122.738458,51.5495188 136.891217,48.9377512 140.968449,53.5875259 L142.377878,55.1955171 L143.205019,53.2135461 C143.272019,53.0466561 144.735047,49.7222561 149.857474,47.6988671 C148.132537,51.3667925 146.073821,58.3225728 147.809721,68.6770618 C144.46583,66.1724936 138.792788,62.5094409 133.697162,62.0818614 C130.119381,61.7809721 126.077476,62.6690218 122.165915,63.5290535 C119.414058,64.130832 116.769399,64.7070289 114.571811,64.8057011 L113.922524,64.82641 C111.717627,64.8008284 105.843586,63.9797783 100.481179,56.4794737 C100.641978,62.6885126 110.291144,66.8571081 110.291144,66.8571081 C110.937995,67.2700694 115.352662,70.2351078 116.553782,74.8556462 C118.095992,80.8039956 124.264831,90.0937995 137.674504,88.7745158 C136.986235,92.4375685 134.681447,101.191375 127.923011,104.81301 Z M74.2660495,72.3742234 C75.2101352,71.2608113 76.2248751,70.1534901 77.3114874,69.0620051 C78.5406261,69.8781825 79.6613473,70.5043245 80.521379,70.9404312 C78.6392983,71.2133025 76.536728,71.6603728 74.2660495,72.3742234 Z M65.3075892,76.321111 C64.8178828,76.6037276 64.3220855,76.9009624 63.8214155,77.2152516 C60.0925813,72.8456572 58.0350834,61.6311366 58.0350834,61.6311366 C60.1193812,66.4283104 62.9930564,69.7612377 65.2880984,71.8772079 C65.3441345,73.2829821 65.3563162,74.7606286 65.3075892,76.321111 Z M55.7936411,83.4535266 C54.1015958,81.4837374 47.9230113,73.866488 45.0152272,64.5937386 C45.0152272,64.5937386 52.8212937,75.4074796 60.1449628,79.7709831 C58.7196979,80.855159 57.2639786,82.0769887 55.7936411,83.4535266 Z M48.5040809,91.5653551 C45.8667316,89.2569131 36.8108174,80.8271409 33.1453283,70.8003411 C33.1453283,70.8003411 43.7702522,82.6714582 52.718967,86.5525643 C51.314411,88.066756 49.9062005,89.7344378 48.5040809,91.5653551 Z M11.029358,54.3817761 C36.3686198,40.4409794 52.8785479,40.0937995 59.1704227,40.6833963 C58.0789378,43.2257279 56.5903277,45.5975149 54.5888659,47.6684127 C54.5888659,47.6684127 59.0924595,49.9634547 62.2694603,57.3187964 C53.7288342,57.9705202 38.8281155,60.6919235 27.2944329,71.2145206 C22.6836399,61.0646851 15.0651724,56.2979656 11.029358,54.3817761 Z M89.9926909,21.9965891 C92.6690218,32.2609331 101.731027,41.4703374 105.306371,44.7923011 C104.301377,44.6436838 103.151419,44.408576 101.867463,44.0589597 L92.552077,40.1644536 C90.3033256,38.9194786 87.871848,37.3589962 85.2844439,35.4184432 C90.5238153,30.7418687 89.9926909,21.9965891 89.9926909,21.9965891 Z M139.559021,77.2871239 C141.026922,75.4878792 141.811426,73.7848703 141.811426,72.2207333 C141.811426,72.0246071 141.799245,71.8309173 141.778536,71.6384456 C141.526373,69.5785114 140.012182,68.5625533 139.950055,68.518699 L139.507857,68.2299915 L139.403094,68.7477159 C138.886588,71.2644658 137.301742,71.6981362 136.53551,71.759045 C136.671945,71.2498477 136.758436,70.7698867 136.758436,70.3471799 C136.758436,67.5721769 134.192959,66.5586551 134.164941,66.5452552 L133.983433,66.4770374 C133.983433,66.4770374 130.942868,68.6721891 130.476306,69.0071872 C130.118163,68.5686442 127.888902,65.8119138 127.888902,65.8119138 C127.888902,65.8119138 126.012913,67.9181386 125.596297,68.3859179 C125.24059,67.9839201 124.179559,66.7864539 123.731271,66.279693 C124.760629,65.8703862 125.753441,65.5536606 126.7158,65.3014984 C129.104641,64.8580826 131.427701,64.5657206 133.473017,64.7374833 C137.129979,65.0468997 141.327811,67.4138141 144.429285,69.5395298 C145.263735,70.313071 145.785114,70.9440858 145.982458,71.196248 C145.217444,74.8982824 141.456938,76.6402729 139.559021,77.2871239 Z M119.794128,75.0079181 C120.267999,74.6022658 121.436229,74.7837739 122.316969,75.0432452 C121.480083,76.1079303 121.140212,77.1397247 121.319284,78.0862468 C121.621391,79.5882568 123.10391,80.305762 123.163601,80.3386527 L123.496163,80.4945791 L123.645998,80.1595809 C124.468267,78.3067365 125.959313,78.1556828 126.708491,78.205628 C126.234621,79.0412961 125.94104,79.8903642 125.94104,80.7491777 C125.94104,81.0890486 125.977586,81.4337922 126.054331,81.7773176 C126.316238,82.941893 126.975271,83.9249604 127.673285,84.6875381 C122.700694,82.3254964 120.449507,77.8767207 119.573639,75.5500061 C119.590693,75.3148983 119.656475,75.1236448 119.794128,75.0079181 Z M130.327689,85.6657327 L130.367889,85.5646242 C130.339871,85.5500061 127.626995,83.9103423 127.100743,81.5385552 C126.861981,80.4555975 127.104398,79.401876 127.846266,78.3152637 L128.421245,77.4698502 L127.430869,77.2176879 C126.411256,76.9594348 124.331831,77.0605433 123.068583,78.9816056 C122.718967,78.6770618 122.340115,78.1873553 122.340115,77.5575588 C122.340115,76.898526 122.716531,76.1530028 123.459617,75.3246437 L124.162505,74.5437934 L123.180655,74.1771227 C122.712876,74.0004873 120.331344,73.1855281 119.129005,74.1698136 C118.383482,71.3156292 116.738945,69.0510415 115.182117,67.4418321 C117.358996,67.2919966 119.764892,66.7840175 122.259715,66.2382751 L125.592642,70.0036545 C125.592642,70.0036545 127.214033,68.184919 127.849921,67.4710683 C128.513826,68.2896821 130.278962,70.4750883 130.278962,70.4750883 C130.278962,70.4750883 133.54489,68.1191375 134.108905,67.7098307 C134.825192,68.108174 136.306493,69.2849312 135.396516,71.8796443 L135.101718,72.7165306 L135.98124,72.8286028 C137.056889,72.9638202 139.090023,72.5094409 140.074309,70.1729809 C140.355707,70.5627969 140.633451,71.0878304 140.713851,71.7931539 C140.894141,73.4401267 139.962237,75.3806797 138.016811,77.4722865 L136.470947,79.1277866 L138.688025,78.657571 C138.982824,78.595444 145.852114,77.0739432 147.031307,71.4398831 C148.201973,72.3522963 148.923133,72.9881837 148.946278,73.0088927 L152.112316,75.8338409 L151.130467,71.7078816 C147.101961,54.7886466 153.683762,46.3747107 153.749543,46.2894384 L156.112803,43.3597271 L152.433914,44.1466683 C146.100621,45.5098063 142.984529,48.7148252 141.627482,50.6541601 C136.389329,46.9155805 126.006822,48.3773907 120.444634,49.540748 C121.6019,47.9376294 124.638811,43.7129979 124.638811,43.7129979 L121.466683,44.2319406 C117.902302,44.8105738 113.580217,44.9701547 108.870752,44.83981 C104.414667,40.6505055 91.5117554,27.1872335 88.803752,9.25447679 C88.803752,9.25447679 89.1387502,29.2240224 82.9358022,33.5838714 C75.7363869,27.7378487 67.4357413,18.9535875 58.4395176,5.7607504 C58.4395176,5.7607504 63.1879644,19.4603484 61.3801925,32.4765501 L45.4391522,21.3302473 L42.0404434,34.5169935 C39.7015471,33.7678158 21.7468632,28.0350834 21.7468632,28.0350834 C21.7468632,28.0350834 21.3996833,38.0801559 21.3217201,40.3812888 C18.7769521,39.9878182 1.18162992,37.273724 1.18162992,37.273724 L0.796686564,53.7873066 C0.796686564,53.7873066 17.2834694,56.1432574 24.7167743,72.0087709 C32.1500792,87.8742843 41.3814106,93.9797783 48.7026434,97.7512486 C48.7026434,97.7512486 52.8505299,88.755025 65.0542088,80.4897064 C64.777683,83.6070167 64.2891948,87.0032891 63.5412352,90.7016689 C63.5412352,90.7016689 65.5305153,84.6485565 70.3386527,77.5539043 C72.3181874,76.6256548 74.1734681,75.9471312 75.8362773,75.4525521 C79.6576928,74.3208673 82.941893,74.0029236 85.2722622,73.9700329 C86.8924351,77.6269948 89.3848215,80.0328907 91.1280302,81.3667925 C91.5288098,81.905226 91.9527348,82.4424412 92.4302595,82.9784383 C97.7341942,88.929224 103.380436,89.2788403 108.843952,89.6187112 C111.728591,89.7990011 114.71312,89.9841637 117.622122,91.0354489 C125.24059,93.7824339 125.366062,106.701182 125.366062,106.830308 L125.372153,108.73188 L127.157997,108.07772 C138.847606,103.794616 140.523815,88.0338653 140.588379,87.3638689 L140.756487,85.6401511 L139.047387,85.9215495 C135.596297,86.4806919 132.720185,86.3028383 130.327689,85.6657327 L130.327689,85.6657327 Z" id="Fill-26" fill="#1D2D4F"></path>
            <path d="M30.4543793,92.3206237 L27.0873432,92.3206237 L27.0873432,93.1940553 C27.0873432,93.1940553 28.0850286,93.1940553 28.3055183,93.1940553 C28.3055183,93.4608357 28.3055183,97.7512486 28.3055183,97.7512486 L29.234986,97.7512486 C29.234986,97.7512486 29.234986,93.4608357 29.234986,93.1940553 C29.457912,93.1940553 30.4543793,93.1940553 30.4543793,93.1940553 L30.4543793,92.3206237" id="Fill-27" fill="#1D2D4F"></path>
            <path d="M33.2537459,95.9398221 C33.0308198,95.424534 31.4374467,91.7651358 31.4374467,91.7651358 L30.264344,97.7512486 L31.2218297,97.7512486 C31.2218297,97.7512486 31.6445365,95.3453527 31.7626995,94.6765745 C32.0428798,95.3148983 33.2537459,98.0716287 33.2537459,98.0716287 C33.2537459,98.0716287 34.4682665,95.319771 34.749665,94.6790108 C34.8690462,95.3502254 35.2941893,97.7512486 35.2941893,97.7512486 L36.2480205,97.7512486 L35.0785723,91.7651358 C35.0785723,91.7651358 33.4803265,95.424534 33.2537459,95.9398221" id="Fill-28" fill="#1D2D4F"></path>
        </g>
    </g>
</svg>