<?xml version="1.0" encoding="UTF-8"?>
<svg width="200px" height="200px" viewBox="0 0 200 200" version="1.1" xmlns="http://www.w3.org/2000/svg" xmlns:xlink="http://www.w3.org/1999/xlink">
    <!-- Generator: Sketch 54.1 (76490) - https://sketchapp.com -->
    <title>hartford</title>
    <desc>Created with Sketch.</desc>
    <g id="hartford" stroke="none" stroke-width="1" fill="none" fill-rule="evenodd">
        <g id="hartford_BGD" transform="translate(0.000000, 0.000000)">
            <g id="hartford" transform="translate(0.000000, 7.000000)">
                <g id="g10" transform="translate(100.000000, 93.489636) scale(-1, 1) rotate(-180.000000) translate(-100.000000, -93.489636) translate(0.000000, 0.989636)" fill-rule="nonzero">
                    <g id="g12">
                        <g id="g14" transform="translate(6.552916, 6.552916)" fill="#FFFFFF">
                            <path d="M58.6726128,6.71319073 L17.2367722,6.71319073 L17.2367722,6.71319073 L58.6723762,6.71319073 L61.7757853,19.897682 L58.6726128,6.71319073 Z M27.4215784,79.1539386 L27.4215784,79.1489386 L27.4195784,79.1489386 L27.4195784,79.1539386 C27.4205784,79.1539386 27.4215784,79.1539386 27.4215784,79.1539386 Z M114.19817,66.0434929 L114.29817,66.0434929 L114.29817,66.0384929 L114.19817,66.0384929 L114.19817,66.0434929 Z M184.827726,169.708705 C183.783281,171.028751 182.217205,171.786949 180.532845,171.786949 L136.541958,171.786949 C134.009505,171.786949 131.83545,170.065921 131.253495,167.600889 L118.062498,111.643597 L114.513987,114.249032 L114.286882,114.249032 L90.9111869,114.249032 L102.888002,165.051876 C103.274553,166.691288 102.895808,168.388659 101.851955,169.708705 C100.806209,171.028751 99.2414339,171.786949 97.5579022,171.786949 L53.5654779,171.786949 C51.0332607,171.786949 48.8596797,170.065921 48.2789068,167.600889 L34.9855945,111.209496 L32.9800945,102.748664 C32.7974645,102.746771 32.6109311,102.743814 32.4339787,102.741921 L32.9780837,102.741921 C26.7963416,102.658768 21.0214954,102.567926 16.090485,102.442427 C6.44480504,102.240399 0.0146080355,102.104964 0.0146080355,102.104964 L0.0107874724,101.702089 C0.0107874724,101.702089 6.43699832,101.434295 16.0759361,101.032131 C20.8654792,100.811886 26.4501252,100.607137 32.4327959,100.40227 L31.8587652,97.9445715 L31.8587652,97.9445715 L30.0891229,90.4283528 C29.6156333,90.4148685 29.147703,90.4023304 28.6916011,90.3877815 C20.595201,90.1866993 15.1973248,90.0533935 15.1973248,90.0533935 L15.1934215,89.6532398 C15.1934215,89.6532398 20.5884588,89.3874564 28.6790631,88.9884855 C29.0218492,88.9701515 29.3751626,88.9509896 29.7265834,88.9327739 L29.2897617,87.0375143 L29.2899983,87.0375143 L27.6268114,80.0234099 C24.0515686,79.9228688 21.8972678,79.8619527 21.8972678,79.8619527 L21.8943107,79.4589602 C21.8943107,79.4589602 23.967942,79.3429239 27.4185138,79.1496483 C27.2485401,78.4298921 27.0773836,77.7071787 26.9064637,76.98139 L26.7741043,76.9953475 L10.3629522,6.7685475 C9.97545485,5.12292568 10.3543175,3.42089438 11.4038487,2.09540737 C12.4525519,0.769979497 14.0240689,0.0110595249 15.7135149,0.0110595249 L59.6352054,0.0110595249 C62.1924988,0.0110595249 64.3895,1.7488125 64.9760688,4.23850672 L79.6437193,66.0390843 L107.310747,66.0390843 L93.3390778,6.7685475 C92.9505159,5.12292568 93.3303248,3.42089438 94.3789097,2.09540737 C95.4286775,0.769979497 96.99913,0.0110595249 98.6885759,0.0110595249 L142.612277,0.0110595249 C145.168388,0.0110595249 147.363733,1.7488125 147.952786,4.23850672 L185.863891,165.051876 C186.249496,166.691288 185.872171,168.388659 184.827726,169.708705 L184.827726,169.708705 Z" id="path16"></path>
                        </g>
                        <g id="g18" fill="#FFFFFF">
                            <path d="M187.085677,184.903799 L143.095053,184.903799 C140.397636,184.903799 137.751528,183.985114 135.645393,182.317553 C133.538036,180.649992 132.03662,178.284865 131.41724,175.659525 L120.032991,127.366228 L105.755249,127.366228 L115.829882,170.098546 C116.678567,173.698767 115.849429,177.429706 113.553814,180.332361 C111.251481,183.238682 107.81093,184.903799 104.110655,184.903799 L60.1183206,184.903799 C57.4209033,184.903799 54.77504,183.985114 52.6685379,182.316331 C50.5622801,180.64877 49.0614753,178.284865 48.4427064,175.659525 L35.1514516,119.276175 L34.3240237,115.785536 C30.3411797,115.725309 26.2057507,115.651765 22.4935035,115.557331 C12.8543904,115.355513 6.42941864,115.220276 6.42941864,115.220276 L0.00391355173,108.720942 L6.29041857,101.696418 C6.29051631,101.696418 11.5082595,101.479207 19.5921918,101.14203 L15.1865324,96.6694239 L21.4233325,89.6499085 C21.4234547,89.6499085 22.6624586,89.5889479 24.8428709,89.4814421 L21.8863403,86.4621184 L26.1187688,81.5478835 L10.5268663,14.8265103 C9.67627584,11.2163203 10.5090057,7.47946893 12.8115103,4.57291632 C15.1106676,1.66748764 18.557571,0 22.2663976,0 L66.1879981,0 C68.8976319,0 71.5552231,0.92242752 73.6716206,2.59796221 C75.7855748,4.27121607 77.2923658,6.64228004 77.9154105,9.27591462 L91.3849049,66.0277167 L105.572245,66.0277167 L93.5030127,14.827732 C92.6512739,11.2209504 93.4826111,7.48409901 95.7845782,4.57521304 C98.0884999,1.66636372 101.53467,0 105.241298,0 L149.164242,0 C151.873876,0 154.530979,0.92242752 156.646887,2.59796221 C158.762796,4.27233999 160.271542,6.64691012 160.893365,9.28397755 L198.803805,170.098546 C199.654078,173.70121 198.823352,177.432149 196.527859,180.334804 C194.228702,183.238682 190.788518,184.903799 187.085677,184.903799 Z M187.085677,178.33984 C188.76912,178.33984 190.335283,177.581191 191.3798,176.261802 C192.424316,174.941192 192.801808,173.244311 192.415764,171.604848 L154.505324,10.7914038 C153.916485,8.30171696 151.721169,6.56397187 149.164242,6.56397187 L105.241298,6.56397187 C103.551869,6.56397187 101.98143,7.32287702 100.931661,8.64831309 C99.8831131,9.97378582 99.5033001,11.6758219 99.8917869,13.3214297 L113.863504,72.5917986 L86.1965303,72.5917986 L71.5289575,10.7914038 C70.942196,8.30171696 68.7452913,6.56397187 66.1879981,6.56397187 L22.2663976,6.56397187 C20.576969,6.56397187 19.0054302,7.32287702 17.9567604,8.64831309 C16.9071133,9.97378582 16.5282776,11.6758219 16.915787,13.3214297 L33.32703,83.5481015 L33.4593354,83.5341746 C33.6302451,84.2599607 33.8013991,84.9825704 33.9714537,85.7024925 C30.5207631,85.8957585 28.4471236,86.0116937 28.4471236,86.0116937 L28.4501778,86.4147182 C28.4501778,86.4147182 30.6044466,86.4756788 34.179624,86.5762211 L35.8427869,93.5903612 L35.8425426,93.5903612 L36.2795291,95.4855167 C35.9279364,95.5037194 35.5747555,95.5228994 35.2319587,95.5412242 C27.1412951,95.9402172 21.7463385,96.2060496 21.7463385,96.2060496 L21.7502478,96.6061421 C21.7502478,96.6061421 27.1481364,96.7395469 35.2444196,96.9406316 C35.7005861,96.9550471 36.1683584,96.9676302 36.6419945,96.9810684 L38.4116859,104.497309 L38.9857423,106.955037 C33.0030467,107.159909 27.4183668,107.364659 22.628863,107.584923 C12.9899943,107.987093 6.56365424,108.254758 6.56365424,108.254758 L6.56751467,108.65766 C6.56751467,108.65766 12.9976907,108.793142 22.6434007,108.995081 C27.5743723,109.120668 33.349142,109.211437 39.5309675,109.294754 L38.9868418,109.294754 C39.1637376,109.296586 39.3502845,109.299518 39.5329221,109.301473 L41.5383932,117.762176 L54.8317248,174.153223 C55.4125002,176.618526 57.5860713,178.33984 60.1183206,178.33984 L104.110655,178.33984 C105.79422,178.33984 107.359039,177.581191 108.404655,176.261802 C109.44856,174.941192 109.827396,173.244311 109.440742,171.604848 L97.4639892,120.801902 L120.839162,120.801902 L121.067123,120.802024 L124.615058,118.196353 L137.806503,174.153223 C138.388011,176.618526 140.56256,178.33984 143.095053,178.33984 L187.085677,178.33984 L187.085677,178.33984 Z" id="path20"></path>
                        </g>
                        <path d="M144.099623,171.636006 L130.484591,113.883763 L121.067037,120.802176 L90.487511,120.763022 L90.5764123,120.802176 L90.5764123,120.803327 L102.560013,171.636006 L61.1253113,171.636006 L56.6638921,152.712228 L46.7282466,109.387682 C50.433774,109.43409 54.2186448,109.482341 58.0063944,109.536465 C59.9905525,109.560648 61.9737893,109.599341 63.9464316,109.638955 L63.9464316,106.08601 C61.9631948,106.168233 59.9692484,106.247461 57.9734595,106.313216 C51.5095723,106.539384 38.9876118,106.954986 38.9856542,106.954986 L38.4115957,104.497187 L45.1344713,104.17728 L43.600693,97.1381831 C43.6055296,97.1381831 43.6103662,97.1381831 43.6152028,97.1381831 C49.8529213,97.256104 56.8823453,97.3451205 63.9464316,97.462005 L63.9464316,94.3179839 C56.7141007,94.6137076 49.5204625,94.8805267 43.1734599,95.1578252 L43.1696597,95.1578252 C40.7350068,95.2651517 36.2823396,95.4855625 36.2794607,95.4855625 L35.8425543,93.5901906 L42.5085424,93.2161601 L41.04144,86.7725406 C47.4357722,86.9813206 55.6007611,87.0924472 63.9464316,87.2422667 L63.9464316,84.1978566 C55.4577359,84.5863969 47.153522,84.9294501 40.711745,85.3237483 L40.711745,85.3227118 L33.9724019,85.7015789 L33.9724019,85.7026153 L33.9714806,85.7026153 C33.8013935,84.9825376 33.6302699,84.259696 33.4591464,83.5337452 L33.4736562,83.5317875 L39.7491462,82.9383826 L23.7893987,13.2661061 L65.2251369,13.2661061 L79.1901319,72.5911653 L78.8740254,72.7535369 L120.786054,72.7535369 L120.786054,72.5911653 L120.750355,72.5911653 L106.765323,13.2661061 L148.201521,13.2661061 L185.535476,171.636006 L144.099623,171.636006" id="path22" fill="#DD1731"></path>
                        <polyline id="path24" fill="#FFFFFF" points="136.970242 85.7010031 126.330871 85.7010031 126.330871 93.5896148 136.970242 93.5896148 136.970242 85.7010031"></polyline>
                        <path d="M93.0141745,86.9278876 C89.4294469,87.2497519 85.2473991,87.5144983 80.764791,87.5850896 C76.2811466,87.5899262 71.4969419,87.3734307 66.71481,87.2931662 C57.4248507,87.1153635 48.1415705,87.0042369 41.0416703,86.7721952 L42.5087727,93.2159298 L35.8428998,93.5908816 L34.1795696,86.5760825 C30.6044001,86.4755503 28.4501549,86.4146321 28.4501549,86.4146321 L28.4471608,86.0116972 C28.4471608,86.0116972 30.5213718,85.8956188 33.9726322,85.7022699 L33.9726322,85.7013486 L40.7120905,85.3224815 L40.7120905,85.3234028 C47.8458469,84.8866116 57.2662793,84.5135024 66.690627,84.0708382 C71.4719528,83.8573368 76.2512057,83.5082955 80.7338137,83.388532 C85.2165369,83.3344081 89.4023849,83.4833063 92.9899915,83.7054445 C100.167277,84.1201255 104.955282,84.9493723 104.955282,84.9493723 L106.235945,85.3515011 C106.235945,85.3515011 100.182708,86.3131787 93.0141745,86.9278876" id="path26" fill="#231F20"></path>
                        <path d="M108.085484,95.5506263 C108.085484,95.5506263 102.69728,96.5056247 94.6077194,97.1153819 C90.5629389,97.4343673 85.8435677,97.6981924 80.7848284,97.7677473 C75.7252829,97.7716627 70.3274056,97.5571249 64.9295284,97.4777816 C57.5357471,97.3531815 50.1420809,97.2614012 43.6153179,97.1376073 C43.6104813,97.1376073 43.6056447,97.1376073 43.6008081,97.1376073 L45.1345865,104.176589 L38.4115957,104.497532 L36.6419754,96.9809935 C36.168334,96.9675201 35.7005656,96.954968 35.244428,96.9404582 C27.1480728,96.7393938 21.7501955,96.6060418 21.7501955,96.6060418 L21.7462802,96.2058706 C21.7462802,96.2058706 27.1412785,95.9400879 35.2318759,95.5409531 C35.577808,95.5226431 35.9345649,95.5032967 36.289249,95.4849867 C38.4280632,95.3728236 40.7351219,95.2645759 43.1697748,95.1582858 C43.1706961,95.1582858 43.1716173,95.1582858 43.1726538,95.1582858 C49.8008702,94.8683201 57.3502289,94.5909064 64.9023513,94.2787154 C70.2973496,94.0670565 75.6903903,93.7210092 80.7491296,93.6012457 C85.8077538,93.5471218 90.5310404,93.6949837 94.5806575,93.9163157 C102.67897,94.3280026 110.936661,95.1504551 110.936661,95.1504551 L108.085484,95.5506263" id="path28" fill="#231F20"></path>
                        <g id="g30" transform="translate(6.552916, 6.552916)" fill="#231F20">
                            <path d="M184.827726,169.708705 C183.783281,171.028751 182.217205,171.786949 180.532845,171.786949 L136.541958,171.786949 C134.009505,171.786949 131.83545,170.065921 131.253495,167.600889 L118.062498,111.643479 L114.51517,114.249032 L90.9111869,114.249032 L102.888002,165.051876 C103.274553,166.691288 102.895808,168.388659 101.851955,169.708705 C100.806209,171.028751 99.2414339,171.786949 97.5579022,171.786949 L53.5654779,171.786949 C51.0332607,171.786949 48.8596797,170.065921 48.2789068,167.600889 L34.9855945,111.209496 L32.9800945,102.748664 C32.7974645,102.746771 32.6109311,102.743814 32.4339787,102.741921 L32.9780837,102.741921 C26.7963416,102.658768 21.0214954,102.567926 16.090485,102.442427 C6.44480504,102.240399 0.0146080355,102.104964 0.0146080355,102.104964 L0.0107401589,101.702089 C0.0107401589,101.702089 6.43699832,101.434295 16.0759361,101.032131 C20.8668986,100.811886 26.4533189,100.607019 32.4378821,100.402033 C38.4929424,100.194327 44.9569094,99.9863846 51.4208764,99.7612907 C57.8472292,99.5476704 64.2725174,99.1987335 70.2987165,99.0789121 C76.3247973,99.0247382 81.9516706,99.1736573 86.775516,99.3960307 C96.4222605,99.810615 106.260151,100.638719 106.260151,100.638719 L102.86399,101.04183 C102.86399,101.04183 96.4454441,102.003476 86.8083988,102.618197 C81.9894031,102.940047 76.3672611,103.204884 70.3411803,103.275381 C64.314035,103.28023 57.8829509,103.063771 51.4537593,102.983575 C47.6659607,102.929519 43.8812375,102.882088 40.1756461,102.834774 L50.1102931,146.159605 L54.5717173,165.083812 L96.0075578,165.083812 L84.0240008,114.250215 L84.0240008,114.249032 L72.0672942,108.98659 L111.283186,109.16236 L138.016956,90.6336933 L139.160759,84.7813713 C138.119863,84.3813358 137.225638,83.7918099 136.473354,83.087194 L134.351345,88.9867112 L111.514549,102.472353 C112.080892,90.6249403 117.630762,87.7127959 117.630762,87.7127959 L108.862511,91.080096 C108.862511,84.3454959 112.18853,80.5886877 116.12028,78.4971955 L105.259945,78.6305012 L117.798725,71.125756 L62.6081476,71.1884464 L72.6365936,66.0390843 L58.6726128,6.71319073 L17.2367722,6.71319073 L33.1965537,76.3854768 L26.9210126,76.9798523 L26.7741043,76.9953475 L10.3629522,6.7685475 C9.97545485,5.12292568 10.3543175,3.42089438 11.4038487,2.09540737 C12.4525519,0.769979497 14.0240689,0.0110595249 15.7135149,0.0110595249 L59.6352054,0.0110595249 C62.1924988,0.0110595249 64.3895,1.7488125 64.9760688,4.23850672 L79.6437193,66.0390843 L107.310747,66.0390843 L93.3390778,6.7685475 C92.9505159,5.12292568 93.3303248,3.42089438 94.3789097,2.09540737 C95.4286775,0.769979497 96.99913,0.0110595249 98.6885759,0.0110595249 L142.612277,0.0110595249 C145.168388,0.0110595249 147.363733,1.7488125 147.952786,4.23850672 L185.863891,165.051876 C186.249496,166.691288 185.872171,168.388659 184.827726,169.708705 L184.827726,169.708705 Z M125.273071,85.7102531 L130.417229,81.6027337 C130.417229,81.6027337 127.787783,80.9222477 126.070303,81.4846866 C124.762086,81.9051851 123.976682,83.0340846 125.273071,85.7102531 L125.273071,85.7102531 Z M135.061047,74.194508 L135.976562,74.1885939 L139.652819,71.1963714 L136.979608,75.3618498 L137.068321,75.9071376 C137.099075,76.0946172 137.762646,79.8793404 140.602637,80.9648298 L144.736652,72.8693759 L138.160079,61.3991701 C136.344425,65.8361095 133.201627,71.1306057 128.543615,71.1306057 C128.458451,71.1306057 128.372104,71.1285948 128.28694,71.125756 L125.695344,71.125756 L120.263757,74.3771381 L135.061047,74.194508 Z M141.649448,6.71319073 L100.21278,6.71319073 L114.19817,66.0390843 L128.344899,66.0390843 L128.477377,66.0420414 C128.496302,66.0429877 128.517593,66.0439339 128.538884,66.0439339 C130.703476,66.0439339 133.729172,60.0691883 135.115457,54.6302677 L136.644865,48.627134 L150.4604,72.7271989 L144.261152,84.8703206 L142.544856,93.6586804 L123.932917,107.330974 L137.548553,165.083812 L178.983329,165.083812 L141.649448,6.71319073 L141.649448,6.71319073 Z" id="path32"></path>
                        </g>
                    </g>
                </g>
            </g>
        </g>
    </g>
</svg>