<?xml version="1.0" encoding="UTF-8"?>
<svg width="200px" height="200px" viewBox="0 0 200 200" version="1.1" xmlns="http://www.w3.org/2000/svg" xmlns:xlink="http://www.w3.org/1999/xlink">
    <!-- Generator: Sketch 54.1 (76490) - https://sketchapp.com -->
    <title>illinois</title>
    <desc>Created with Sketch.</desc>
    <g id="illinois" stroke="none" stroke-width="1" fill="none" fill-rule="evenodd">
        <g id="illinois_BGD">
            <g id="illinois" transform="translate(26.000000, 0.000000)">
                <g id="g10" transform="translate(74.130000, 99.659837) scale(-1, 1) rotate(-180.000000) translate(-74.130000, -99.659837) translate(0.000000, 0.154887)" fill-rule="nonzero">
                    <g id="g12">
                        <path d="M107.187419,45.7102442 L130.155912,45.7102442 L130.155912,7.62017978 L7.65443011,7.62017978 L7.65443011,45.7102442 L30.6254175,45.7102442 C34.8501956,45.7102442 38.279928,49.122034 38.279928,53.329063 L38.279928,144.746883 C38.279928,148.955246 34.8501956,152.365702 30.6254175,152.365702 L7.65443011,152.365702 L7.65443011,190.455793 L130.155912,190.455793 L130.155912,152.365702 L107.187419,152.365702 C102.957679,152.365702 99.5306289,148.955246 99.5306289,144.746883 L99.5306289,53.329063 C99.5306289,49.122034 102.957679,45.7102442 107.187419,45.7102442 Z M137.810155,144.746883 L137.810155,198.074611 L0,198.074611 L0,144.746883 L30.6254175,144.746883 L30.6254175,53.329063 L0,53.329063 L0,0 L137.810155,0 L137.810155,53.329063 L107.187419,53.329063 L107.187419,144.746883 L137.810155,144.746883 L137.810155,144.746883 Z" id="path14" fill="#FFFFFF"></path>
                        <path d="M107.187419,152.365702 L130.155912,152.365702 L130.155912,190.455793 L7.65443011,190.455793 L7.65443011,152.365702 L30.6254175,152.365702 C34.8501956,152.365702 38.279928,148.955246 38.279928,144.746883 L38.279928,53.329063 C38.279928,49.122034 34.8501956,45.7102442 30.6254175,45.7102442 L7.65443011,45.7102442 L7.65443011,7.62017978 L130.155912,7.62017978 L130.155912,45.7102442 L107.187419,45.7102442 C102.957679,45.7102442 99.5306289,49.122034 99.5306289,53.329063 L99.5306289,144.746883 C99.5306289,148.955246 102.957679,152.365702 107.187419,152.365702" id="path16" fill="#192847"></path>
                        <path d="M143.725059,2.94081068 L142.743488,2.94081068 L142.743488,0.413631143 L142.286226,0.413631143 L142.286226,2.94081068 L141.304655,2.94081068 L141.304655,3.39577826 L143.725059,3.39577826 L143.725059,2.94081068 Z M147.517248,0.413631143 L147.059986,0.413631143 L147.059986,2.94081068 L147.047918,2.94081068 L146.022096,0.413631143 L145.743179,0.413631143 L144.744176,2.94081068 L144.732107,2.94081068 L144.732107,0.413631143 L144.274846,0.413631143 L144.274846,3.39577826 L145.023092,3.39577826 L145.885319,1.29160728 L146.777047,3.39577826 L147.517248,3.39577826 L147.517248,0.413631143 L147.517248,0.413631143 Z" id="path18" fill="#192847"></path>
                    </g>
                </g>
            </g>
        </g>
    </g>
</svg>