<?xml version="1.0" encoding="UTF-8"?>
<svg width="200px" height="200px" viewBox="0 0 200 200" version="1.1" xmlns="http://www.w3.org/2000/svg" xmlns:xlink="http://www.w3.org/1999/xlink">
    <!-- Generator: Sketch 54.1 (76490) - https://sketchapp.com -->
    <title>northwest-mo-st</title>
    <desc>Created with Sketch.</desc>
    <g id="northwest-mo-st" stroke="none" stroke-width="1" fill="none" fill-rule="evenodd">
        <g id="northwest-mo-st_BGL" transform="translate(0.000000, -0.000000)">
            <g id="northwest-mo-st" transform="translate(8.000000, 0.000000)">
                <g id="g10" transform="translate(91.999998, 100.046751) scale(-1, 1) rotate(-180.000000) translate(-91.999998, -100.046751) translate(0.444444, 0.311675)" fill-rule="nonzero">
                    <g id="g12" transform="translate(0.800000, 0.000000)">
                        <path d="M157.671107,43.440681 C151.599996,26.3585559 125.814219,14.0628238 91.2008866,14.0628238 C56.8677319,14.0628238 30.7885326,26.2729796 24.6895994,43.3481589 C18.9079995,59.5266131 22.2903106,72.3736485 42.8850656,84.6822927 C56.5864875,92.8684943 60.7663096,99.0583025 67.1055983,108.614169 C72.9690648,117.459424 79.4430202,121.535205 91.1137755,121.535205 C102.87822,121.535205 109.266664,117.475453 115.143997,108.640884 C121.498664,99.0939221 125.692441,92.9139094 139.404441,84.748011 C141.062219,83.7604556 142.598219,82.7684478 144.036441,81.7721656 C141.960885,73.4148115 137.110219,55.9239506 120.151997,46.9752209 C120.151997,46.9752209 140.721774,49.0838163 150.355552,76.3419469 C150.355552,76.3419469 150.147552,50.5890145 112.559108,35.2948187 C112.559108,35.2948187 146.449774,37.6090286 157.255996,67.3452197 C157.255996,67.3452197 155.881774,33.8352137 98.3013309,22.3805511 C98.3013309,22.3805511 142.91733,20.7838994 159.896885,52.2826408 C159.518218,49.4427735 158.760885,46.5031712 157.671107,43.440681 Z M13.2839997,106.603439 C12.5808886,118.480818 19.6770662,128.562075 29.1291548,129.122195 C33.6319103,129.390233 37.8471991,127.433822 41.115999,124.045501 C48.914221,113.982944 36.6767102,100.570357 32.0743103,99.2613346 C37.5287991,100.062777 42.5464878,102.572183 46.0020433,106.924016 C43.3249767,95.8017741 29.6548437,91.3083528 29.6548437,91.3083528 C35.2353769,90.9290033 40.7548434,92.359133 45.0801767,95.9967918 C42.2996434,90.3412787 37.433688,86.4598033 31.6770659,86.1202588 C22.2204439,85.5550636 13.9874663,94.7287316 13.2839997,106.603439 Z M26.2899549,149.494865 C26.2899549,149.494865 27.5728882,143.225803 30.2868437,136.800014 C29.7291548,136.811591 29.1670215,136.800905 28.601066,136.767066 C23.9961772,136.494576 19.9639106,134.961149 16.5781329,132.555931 C18.7058662,143.143878 26.2899549,149.494865 26.2899549,149.494865 L26.2899549,149.494865 Z M66.619465,163.888773 C71.1302204,163.903021 75.2278203,161.711521 78.3020425,158.147773 C85.6739534,147.936504 72.556976,134.958477 67.8916427,133.909478 C73.3788426,134.405482 78.5340425,136.626368 82.2239979,140.776951 C78.9298647,129.824792 65.027465,126.106099 65.027465,126.106099 C70.5808871,125.414187 76.1694203,126.529973 80.691998,129.919185 C77.6007092,124.429303 72.5256871,120.829045 66.758665,120.810344 C57.2861319,120.778287 49.577421,130.396488 49.5399099,142.294348 C49.4999988,154.190428 57.1489763,163.857606 66.619465,163.888773 Z M66.0100428,184.351383 C66.0100428,184.351383 66.7087094,177.62728 69.1180427,171.387605 C68.3052427,171.480216 67.4784872,171.527412 66.6406206,171.52474 C62.5256873,171.510492 58.8093319,170.470398 55.5593764,168.676057 C58.4336874,178.697651 66.0100428,184.351383 66.0100428,184.351383 Z M115.641775,163.889664 C120.150219,163.875416 124.233775,161.653639 127.282663,158.068519 C133.832886,148.312292 121.380441,134.919296 116.705775,133.903245 C122.199997,134.360067 127.36533,136.546224 131.084441,140.671873 C127.718219,129.743758 113.791108,126.118566 113.791108,126.118566 C119.339553,125.389253 124.935108,126.464967 129.481775,129.824792 C126.351997,124.356283 121.251553,120.790754 115.48533,120.811235 C106.011553,120.844183 98.3697753,130.517595 98.4133309,142.413674 C98.4559975,154.310644 106.171553,163.925284 115.641775,163.889664 L115.641775,163.889664 Z M115.95733,184.351383 C115.95733,184.351383 123.555552,178.681622 126.419552,168.634204 C123.191997,170.408064 119.535997,171.513164 115.638219,171.526521 C114.68533,171.529193 113.752886,171.477544 112.843553,171.374247 C115.256886,177.617485 115.95733,184.351383 115.95733,184.351383 Z M134.754663,108.516215 C135.370663,120.397156 143.54133,129.627994 152.998218,129.13199 C157.503107,128.899572 161.473774,126.483667 164.344885,122.754288 C171.786662,113.982944 157.330663,99.9185175 152.614218,99.1286513 C158.12444,99.3183261 163.390218,101.254255 167.303107,105.193791 C163.41244,94.4411027 149.32533,91.4962465 149.32533,91.4962465 C154.831107,90.4997862 160.474663,91.3012288 165.176885,94.4375408 C161.787552,89.1257575 156.519996,85.8120596 150.762663,86.1123334 C141.302219,86.6037958 134.136886,96.6370554 134.754663,108.516215 L134.754663,108.516215 Z M155.678218,149.494865 C155.678218,149.494865 163.206218,143.191074 165.366218,132.673476 C161.97244,135.019921 157.958218,136.550677 153.476441,136.781314 C152.871996,136.813372 152.274663,136.822277 151.68533,136.80981 C154.397329,143.231146 155.678218,149.494865 155.678218,149.494865 Z M177.63644,108.245506 C177.63644,112.899216 175.102218,121.360668 173.038218,125.866557 C172.258662,136.642397 167.91644,144.484068 163.120885,149.980183 C159.70044,153.901018 154.027552,158.153116 150.52533,159.983077 C149.513774,146.431573 147.384885,141.302341 139.916441,133.710008 C140.577774,135.836502 141.280885,138.579217 141.37333,140.894495 C141.60533,146.655977 139.879997,155.755912 135.06933,162.952867 C133.863997,174.116962 128.943997,181.273844 123.74133,185.837614 C120.112886,189.021122 113.912886,192.395195 110.407997,193.206433 C110.240886,185.734317 107.515553,176.784875 104.453331,168.957453 C99.3253309,166.301116 95.0551087,162.088199 92.8711088,156.83786 L91.1991088,152.819071 L89.8133311,156.944719 C87.5173311,163.778353 82.8312868,168.566527 76.8663092,170.642263 C74.0767093,178.049373 71.714576,186.265941 71.5590204,193.206433 C67.9808872,192.157434 61.8537762,189.021122 58.2253319,185.837614 C52.7187542,181.008477 47.5375099,173.263871 46.7340433,160.94837 C42.1211545,156.513721 39.1027546,148.793157 40.8464879,138.544488 C41.223999,136.323601 41.8972434,133.740285 42.0694212,133.092007 C36.8937769,138.835679 31.8506659,147.068275 31.4430214,159.983077 C27.3903104,157.795138 22.2687106,153.901018 18.8475551,149.980183 C13.8041774,144.19911 9.27191088,135.816911 8.84861311,124.161265 C-0.371527991,106.700503 5.80555541,87.0393353 21.5014217,79.5929542 C11.7058664,68.1191461 10.3249775,55.0243758 15.6551996,40.108639 C23.9389327,16.9193433 56.4041764,4.45141688 91.0862199,4.45141688 C125.697775,4.45141688 158.231996,16.9193433 166.51644,40.108639 C171.831996,54.9851052 170.471996,68.0512906 160.745774,79.5021241 C172.175996,85.3324407 177.643551,96.8035774 177.63644,108.245506 L177.63644,108.245506 Z" id="path14" fill="#00674C"></path>
                        <polyline id="path16" fill="#00674C" points="125.268441 93.0510451 100.709331 93.0510451 103.895997 81.4184623 98.6559975 61.5917525 79.3215091 93.0510451 58.1353763 93.0510451 61.3242651 81.4177499 50.2989321 39.666866 40.9222212 27.5882359 66.2579539 27.5882359 74.3468426 58.2141173 93.1279977 27.5882359 107.96622 27.5882359 125.268441 93.0510451"></polyline>
                        <path d="M166.51644,40.108639 C158.231996,16.9193433 125.697775,4.45141688 91.0862199,4.45141688 C56.4041764,4.45141688 23.9389327,16.9193433 15.6551996,40.108639 C10.3249775,55.0243758 11.7058664,68.1191461 21.5014217,79.5929542 C5.80555541,87.0393353 -0.371527991,106.700503 8.84861311,124.161265 C9.27191088,135.816911 13.8041774,144.19911 18.8475551,149.980183 C22.2687106,153.901018 27.3903104,157.795138 31.4430214,159.983077 C31.8506659,147.068275 36.8937769,138.835679 42.0694212,133.092007 C41.8972434,133.740285 41.223999,136.323601 40.8464879,138.544488 C39.1027546,148.793157 42.1211545,156.513721 46.7340433,160.94837 C47.5375099,173.263871 52.7187542,181.008477 58.2253319,185.837614 C61.8537762,189.021122 67.9808872,192.157434 71.5590204,193.206433 C71.714576,186.265941 74.0767093,178.049373 76.8663092,170.642263 C82.8312868,168.566527 87.5173311,163.778353 89.8133311,156.944719 L91.1991088,152.819071 L92.8711088,156.83786 C95.0551087,162.088199 99.3253309,166.301116 104.453331,168.957453 C107.515553,176.784875 110.240886,185.734317 110.407997,193.206433 C113.912886,192.395195 120.112886,189.021122 123.74133,185.837614 C128.943997,181.273844 133.863997,174.116962 135.06933,162.952867 C139.879997,155.755912 141.60533,146.655977 141.37333,140.894495 C141.280885,138.579217 140.577774,135.836502 139.916441,133.710008 C147.384885,141.302341 149.513774,146.431573 150.52533,159.983077 C154.027552,158.153116 159.70044,153.901018 163.120885,149.980183 C167.91644,144.484068 172.258662,136.642397 173.038218,125.866557 C175.102218,121.360668 177.63644,112.899216 177.63644,108.245506 C177.643551,96.8035774 172.175996,85.3324407 160.745774,79.5021241 C170.471996,68.0512906 171.831996,54.9851052 166.51644,40.108639 Z M173.783996,84.3348228 C173.799996,84.3528998 173.810662,84.371333 173.825773,84.3894099 C179.320884,91.0385338 182.078218,99.4109372 182.078218,107.653329 C182.078218,112.262514 180.30844,120.237758 177.407996,126.978781 C176.410662,138.414476 171.650662,146.997035 166.466663,152.910791 C160.360885,159.874437 146.596441,167.058924 146.596441,167.058924 C146.596441,167.058924 146.56533,158.219012 144.848885,150.68189 C143.878219,155.200245 142.135108,160.02582 139.364441,164.489855 C137.86933,176.185574 132.377774,184.178628 126.668441,189.187644 C117.537775,197.197617 106.084442,198.776459 106.084442,198.776459 C106.084442,198.776459 106.991108,187.219657 100.890664,172.071502 C97.2915531,169.954803 94.0817754,167.134616 91.6337755,163.696427 C88.9402644,168.33767 85.0278201,171.934366 80.3482647,174.045722 C75.7694203,183.72982 75.8715537,199.110394 75.8715537,199.110394 C75.8715537,199.110394 61.8680873,194.934878 55.2968875,189.187644 C49.3163543,183.956896 43.6207989,175.441123 42.4267545,162.882518 C39.9152879,160.057878 37.9611546,156.435358 36.8694213,152.193945 C35.5187547,158.372177 35.6573324,167.317167 35.6573324,167.317167 C28.3430215,163.537029 19.5642662,157.604573 15.5010663,152.910791 C10.1072886,146.680911 5.12014209,137.578304 4.45103989,125.330481 C1.50103996,119.416725 0.0888888867,113.234041 0.0888888867,107.257951 C0.0656249761,95.6539525 5.46215097,84.7730338 14.9041774,78.2714645 C10.3621331,71.526969 8.10798202,64.068121 8.1336798,56.2916346 C8.13541313,50.5371879 9.31457754,44.641153 11.4704886,38.6090509 C16.1927107,25.4555082 27.4927104,15.8354367 41.6635545,9.5167744 C55.8819542,3.18524447 73.2121759,0.00800051629 91.0862199,0 C108.925331,0.00800051629 126.25333,3.18524447 140.480885,9.5167744 C154.657774,15.8354367 165.976885,25.4520353 170.699551,38.6090509 C172.855107,44.639372 174.034662,50.5371879 174.03644,56.2898537 C174.049773,60.7527312 173.310218,65.1102635 171.822218,69.2875603 C171.816885,69.2990477 171.816885,69.310535 171.813329,69.3220224 C171.98044,69.3116036 172.146662,69.2962871 172.31644,69.2962871 C176.501329,69.2962871 179.894218,72.6954723 179.894218,76.8887089 C179.894218,80.5780162 177.266662,83.6491441 173.783996,84.3348228 L173.783996,84.3348228 Z" id="path18" fill="#BDBCBC"></path>
                        <path d="M173.832885,77.2038539 C174.114662,77.2038539 174.32444,77.2839091 174.32444,77.6143706 C174.32444,77.9928296 173.905773,77.9607719 173.672885,77.9607719 L172.96444,77.9607719 L172.96444,77.2038539 L173.832885,77.2038539 Z M174.991107,75.2625819 L174.162662,75.2625819 L173.439996,76.6399945 L172.96444,76.6399945 L172.96444,75.2625819 L172.242662,75.2625819 L172.242662,78.5243641 L173.825773,78.5243641 C174.677329,78.5243641 175.087996,78.2992478 175.087996,77.5253214 C175.087996,76.9224585 174.774218,76.6804228 174.194662,76.6399945 L174.991107,75.2625819 Z M175.705773,76.9054501 C175.705773,78.2589085 174.782218,79.127138 173.487107,79.127138 C172.169773,79.127138 171.269329,78.2589085 171.269329,76.9054501 C171.269329,75.5536836 172.169773,74.6837622 173.487107,74.6837622 C174.782218,74.6837622 175.705773,75.5536836 175.705773,76.9054501 Z M170.465774,76.9054501 C170.465774,78.5806432 171.807996,79.9341907 173.487107,79.9341907 C175.159107,79.9341907 176.510218,78.5806432 176.510218,76.9054501 C176.510218,75.2305242 175.159107,73.8788467 173.487107,73.8788467 C171.807996,73.8788467 170.465774,75.2305242 170.465774,76.9054501 L170.465774,76.9054501 Z" id="path20" fill="#00674C"></path>
                        <path d="M69.1180427,171.387605 C66.7087094,177.62728 66.0100428,184.351383 66.0100428,184.351383 C66.0100428,184.351383 58.4336874,178.697651 55.5593764,168.676057 C58.8093319,170.470398 62.5256873,171.510492 66.6406206,171.52474 C67.4784872,171.527412 68.3052427,171.480216 69.1180427,171.387605" id="path22" fill="#FFFFFF"></path>
                        <path d="M30.2868437,136.800014 C27.5728882,143.225803 26.2899549,149.494865 26.2899549,149.494865 C26.2899549,149.494865 18.7058662,143.143878 16.5781329,132.555931 C19.9639106,134.961149 23.9961772,136.494576 28.601066,136.767066 C29.1670215,136.800905 29.7291548,136.811591 30.2868437,136.800014" id="path24" fill="#FFFFFF"></path>
                        <path d="M74.3468426,58.2141173 L66.2579539,27.5882359 L40.9222212,27.5882359 L50.2989321,39.666866 L61.3242651,81.4177499 L58.1353763,93.0510451 L79.3215091,93.0510451 L98.6559975,61.5917525 L103.895997,81.4184623 L100.709331,93.0510451 L125.268441,93.0510451 L107.96622,27.5882359 L93.1279977,27.5882359 L74.3468426,58.2141173 Z M98.3013309,22.3805511 C155.881774,33.8352137 157.255996,67.3452197 157.255996,67.3452197 C146.449774,37.6090286 112.559108,35.2948187 112.559108,35.2948187 C150.147552,50.5890145 150.355552,76.3419469 150.355552,76.3419469 C140.721774,49.0838163 120.151997,46.9752209 120.151997,46.9752209 C137.110219,55.9239506 141.960885,73.4148115 144.036441,81.7721656 C142.598219,82.7684478 141.062219,83.7604556 139.404441,84.748011 C125.692441,92.9139094 121.498664,99.0939221 115.143997,108.640884 C109.266664,117.475453 102.87822,121.535205 91.1137755,121.535205 C79.4430202,121.535205 72.9690648,117.459424 67.1055983,108.614169 C60.7663096,99.0583025 56.5864875,92.8684943 42.8850656,84.6822927 C22.2903106,72.3736485 18.9079995,59.5266131 24.6895994,43.3481589 C30.7885326,26.2729796 56.8677319,14.0628238 91.2008866,14.0628238 C125.814219,14.0628238 151.599996,26.3585559 157.671107,43.440681 C158.760885,46.5031712 159.518218,49.4427735 159.896885,52.2826408 C142.91733,20.7838994 98.3013309,22.3805511 98.3013309,22.3805511 L98.3013309,22.3805511 Z" id="path26" fill="#FFFFFF"></path>
                        <path d="M31.6770659,86.1202588 C37.433688,86.4598033 42.2996434,90.3412787 45.0801767,95.9967918 C40.7548434,92.359133 35.2353769,90.9290033 29.6548437,91.3083528 C29.6548437,91.3083528 43.3249767,95.8017741 46.0020433,106.924016 C42.5464878,102.572183 37.5287991,100.062777 32.0743103,99.2613346 C36.6767102,100.570357 48.914221,113.982944 41.115999,124.045501 C37.8471991,127.433822 33.6319103,129.390233 29.1291548,129.122195 C19.6770662,128.562075 12.5808886,118.480818 13.2839997,106.603439 C13.9874663,94.7287316 22.2204439,85.5550636 31.6770659,86.1202588" id="path28" fill="#FFFFFF"></path>
                        <path d="M66.758665,120.810344 C72.5256871,120.829045 77.6007092,124.429303 80.691998,129.919185 C76.1694203,126.529973 70.5808871,125.414187 65.027465,126.106099 C65.027465,126.106099 78.9298647,129.824792 82.2239979,140.776951 C78.5340425,136.626368 73.3788426,134.405482 67.8916427,133.909478 C72.556976,134.958477 85.6739534,147.936504 78.3020425,158.147773 C75.2278203,161.711521 71.1302204,163.903021 66.619465,163.888773 C57.1489763,163.857606 49.4999988,154.190428 49.5399099,142.294348 C49.577421,130.396488 57.2861319,120.778287 66.758665,120.810344" id="path30" fill="#FFFFFF"></path>
                        <path d="M115.48533,120.811235 C121.251553,120.790754 126.351997,124.356283 129.481775,129.824792 C124.935108,126.464967 119.339553,125.389253 113.791108,126.118566 C113.791108,126.118566 127.718219,129.743758 131.084441,140.671873 C127.36533,136.546224 122.199997,134.360067 116.705775,133.903245 C121.380441,134.919296 133.832886,148.312292 127.282663,158.068519 C124.233775,161.653639 120.150219,163.875416 115.641775,163.889664 C106.171553,163.925284 98.4559975,154.310644 98.4133309,142.413674 C98.3697753,130.517595 106.011553,120.844183 115.48533,120.811235" id="path32" fill="#FFFFFF"></path>
                        <path d="M150.762663,86.1123334 C156.519996,85.8120596 161.787552,89.1257575 165.176885,94.4375408 C160.474663,91.3012288 154.831107,90.4997862 149.32533,91.4962465 C149.32533,91.4962465 163.41244,94.4411027 167.303107,105.193791 C163.390218,101.254255 158.12444,99.3183261 152.614218,99.1286513 C157.330663,99.9185175 171.786662,113.982944 164.344885,122.754288 C161.473774,126.483667 157.503107,128.899572 152.998218,129.13199 C143.54133,129.627994 135.370663,120.397156 134.754663,108.516215 C134.136886,96.6370554 141.302219,86.6037958 150.762663,86.1123334" id="path34" fill="#FFFFFF"></path>
                        <path d="M126.419552,168.634204 C123.555552,178.681622 115.95733,184.351383 115.95733,184.351383 C115.95733,184.351383 115.256886,177.617485 112.843553,171.374247 C113.752886,171.477544 114.68533,171.529193 115.638219,171.526521 C119.535997,171.513164 123.191997,170.408064 126.419552,168.634204" id="path36" fill="#FFFFFF"></path>
                        <path d="M165.366218,132.673476 C163.206218,143.191074 155.678218,149.494865 155.678218,149.494865 C155.678218,149.494865 154.397329,143.231146 151.68533,136.80981 C152.274663,136.822277 152.871996,136.813372 153.476441,136.781314 C157.958218,136.550677 161.97244,135.019921 165.366218,132.673476" id="path38" fill="#FFFFFF"></path>
                    </g>
                </g>
            </g>
        </g>
    </g>
</svg>