<?xml version="1.0" encoding="UTF-8"?>
<svg width="200px" height="200px" viewBox="0 0 200 200" version="1.1" xmlns="http://www.w3.org/2000/svg" xmlns:xlink="http://www.w3.org/1999/xlink">
    <!-- Generator: Sketch 54.1 (76490) - https://sketchapp.com -->
    <title>ohio</title>
    <desc>Created with Sketch.</desc>
    <g id="ohio" stroke="none" stroke-width="1" fill="none" fill-rule="evenodd">
        <g id="ohio_BGD">
            <g id="ohio" transform="translate(0.000000, 14.000000)">
                <g id="g10" transform="translate(100.000000, 85.997048) scale(-1, 1) rotate(-180.000000) translate(-100.000000, -85.997048) translate(0.000000, 0.497048)">
                    <g id="g12">
                        <path d="M122.51814,23.5794087 C122.51814,23.5794087 122.418225,17.6471219 119.812993,14.6640334 C118.00371,1.84915438 105.134175,-3.0846514 94.5863267,2.31619235 C89.377213,4.9841754 84.0445549,11.4023963 83.2229515,21.0672737 C72.8270024,17.2718983 67.406108,4.4314328 66.5424456,2.16112737 C65.1389688,-1.52980249 63.7855849,0.184335523 61.8158972,2.30142104 C52.7863615,12.0060756 50.9259059,20.4440839 51.0298046,28.3596955 C43.8109019,25.2130964 36.66194,21.0761851 30.1743115,15.6394933 C27.7797799,13.6331473 24.9791724,16.3734004 26.9332651,18.8112063 C27.1772483,19.1150037 39.6160665,34.4585983 69.9719814,42.0590707 C38.5005222,39.2885053 18.5672232,26.2468179 18.2183287,25.9902103 C15.1492317,23.7360332 12.7863625,27.5335014 15.5058224,29.6519149 C32.3855519,41.9153407 53.0353404,47.9567245 73.4980572,49.899003 C47.2439482,49.9557118 21.7521007,37.8296699 20.9195607,37.4298725 C20.6766577,37.311729 20.4591387,37.2360497 20.2484383,37.1896024 C9.41299555,33.5081848 0,38.5187501 0,50.9986823 L0,129.637128 C0,140.034427 7.89475086,150.599152 17.6450291,154.331135 C23.6476619,157.065988 31.320168,159.912232 40.6682184,162.850966 C45.6384799,164.644722 50.6279143,164.40776 54.6149522,162.452654 C55.3425809,164.611641 57.3876779,166.707844 59.453028,167.175017 C72.0459054,170.021937 85.42177,170.993413 99.139238,170.993413 C112.786495,170.993413 128.577887,169.334679 137.934174,167.324215 C140.887085,166.689616 142.763878,164.645397 143.47814,162.400671 C147.459912,164.342274 152.436789,164.572485 157.394089,162.783456 C166.742274,159.846747 174.413498,157.21181 180.41586,154.481684 C190.14548,150.758477 198.062442,140.267338 198.062442,129.848436 L198.062442,54.408775 C198.062442,48.7231043 194.46413,41.2623787 188.726409,38.1279315 C191.205396,36.4652143 193.719489,34.6524211 196.262611,32.6777376 C198.762527,30.7368094 196.135016,27.1912229 193.550037,29.0173832 C193.533835,29.0295351 179.118983,39.1825138 159.70295,44.2626824 C172.922865,39.3607416 187.266831,31.4989359 198.971809,19.798278 C201.205733,17.564354 198.313582,14.4114089 195.894004,16.4428013 C195.894004,16.4428013 188.110037,22.9791724 175.700924,29.4643706 C168.899911,33.0187334 160.758815,36.5327248 151.785313,38.9575686 C163.349194,33.6804042 176.914764,25.1901428 189.7897,11.5321516 C191.960839,9.22943437 188.812822,6.13132812 186.542443,8.33620232 C186.542443,8.33620232 182.20624,12.5487929 174.626156,17.8768603 C167.536198,22.8618391 157.646578,28.7945984 145.840334,33.1887924 C145.072739,25.4337884 143.084553,16.1310376 138.669364,9.71463267 C137.516959,8.04111372 135.756284,8.13583102 134.788182,9.92195756 C131.936537,15.1919659 127.885904,20.5872737 122.51814,23.5794087 L122.51814,23.5794087" id="path14" fill="#FFFFFF" fill-rule="nonzero"></path>
                        <path d="M98.6700397,43.7966571 C50.4789186,49.7808595 17.609451,28.3860921 16.8449616,27.8082693 C51.4240662,52.9303615 97.8821916,47.8905642 97.8821916,47.8905642 C64.4952558,61.1191883 19.9045396,39.4699062 19.9045396,39.4699062 C29.0965056,44.5327246 37.5210792,48.1782942 45.1750875,50.7423447 C49.6650789,61.2529267 56.3357285,67.7157789 56.3357285,67.7157789 C56.3357285,67.7157789 50.6764544,68.1282683 39.199864,58.8016863 C43.814885,78.5586478 59.1168255,89.9375505 59.1168255,89.9375505 C59.1168255,89.9375505 51.1062941,93.7127403 49.6814165,98.3156094 C42.5078808,97.129449 41.1590201,102.194765 40.790615,103.474765 C41.0693661,102.882023 42.0825643,101.856538 45.7573659,101.856538 C51.7315093,101.856538 54.1711379,105.553415 61.5820407,105.553415 C66.717568,105.553415 71.1095341,104.571812 74.8604201,102.95831 C78.5991542,104.721685 88.795272,108.685229 98.5606726,104.956622 C112.637297,110.783457 119.656368,102.202192 119.656368,102.202192 C119.656368,102.202192 125.158478,105.71139 131.291136,105.237466 C137.424469,104.764217 140.299743,101.886242 145.548688,101.886242 C148.895861,101.886242 150.361515,104.223457 150.361515,104.223457 C150.361515,104.223457 149.394764,97.4507993 144.478646,97.5675925 C143.64084,95.4504617 141.322528,91.1851454 135.274258,86.8408417 C149.9443,75.5233736 150.260249,60.3808255 150.260249,60.3808255 C150.260249,60.3808255 146.277127,65.7236102 141.249617,67.0838802 C146.760503,61.5736018 147.507844,55.0703784 147.594933,52.4124206 C159.937211,50.6727413 176.614342,45.0490453 194.865818,30.8787165 C194.865818,30.8787165 162.767253,53.5609101 129.221938,48.6785473 C144.18295,48.2059735 175.522696,40.0168766 197.361008,18.1859236 C197.361008,18.1859236 165.602021,44.8992394 127.804891,44.4259229 C138.986663,42.2217711 164.710882,34.8151215 188.131641,9.96941747 C188.131641,9.96941747 170.390544,27.2384128 143.794764,36.338902 C143.794764,36.338902 143.186494,20.297721 136.79257,11.0076622 C128.989026,25.4237968 119.875102,27.1115605 119.875102,27.1115605 C119.875102,27.1115605 121.562866,20.3605058 117.68101,15.6347675 C116.583963,9.55881833 112.280166,2.63897377 103.091305,2.88264634 C85.6398291,3.34704464 85.2590696,23.8359488 85.2590696,23.8359488 C81.4751034,23.3850458 71.6745974,20.4812822 64.3024456,3.04140414 C54.0266653,13.1788014 52.628927,24.009991 53.5361337,31.864168 C45.0161001,28.5076786 36.4230202,23.8481007 28.7109529,17.3860586 C28.7109529,17.3860586 48.116792,41.5917627 98.6700397,43.7966571 L98.6700397,43.7966571" id="path16" fill="#231F20" fill-rule="nonzero"></path>
                        <path d="M131.195271,27.8987335 C131.804891,24.9978728 131.703625,22.3850121 131.703625,22.3850121 C131.703625,22.3850121 134.027338,24.1146998 134.962359,27.8995436 L131.195271,27.8987335 L131.195271,27.8987335 Z M90.4918121,27.8987335 C91.0528247,23.8428348 92.0060736,18.108354 94.4931622,15.6213329 C96.8006727,13.3138225 98.9502085,12.8398984 100.626495,13.4717971 C102.302107,14.1028182 103.403879,15.7792401 106.917128,15.7792401 C112.892487,15.7792401 114.568098,14.1028182 114.568098,14.1028182 C114.568098,14.1028182 111.927086,7.43567914 104.451643,6.8657551 C97.3495334,6.32515765 88.507002,10.5585145 86.6977194,27.8973833 L90.4918121,27.8987335 Z M85.5291118,27.8987335 C85.3292806,26.718109 85.402192,25.9725901 85.402192,25.9725901 C84.4631203,26.2420922 83.0818545,26.7935183 81.8315591,27.8987335 L85.5291118,27.8987335 L85.5291118,27.8987335 Z M72.9707999,27.8987335 C72.4806733,26.0685901 72.4266649,24.6919825 72.4266649,24.6919825 C72.4266649,24.6919825 71.2567071,25.7876787 70.3338379,27.8966407 L72.9707999,27.8987335 L72.9707999,27.8987335 L72.9707999,27.8987335 Z" id="path18" fill="#E3B97A"></path>
                        <path d="M64.0506313,35.5664464 C62.4955259,32.1194929 62.6265638,28.6742946 62.6265638,28.6742946 C62.6265638,28.6742946 61.0000322,30.9224634 60.028488,34.3451806 C61.3786989,34.7821763 62.720471,35.1885223 64.0506313,35.5664464 L64.0506313,35.5664464 Z M134.962359,27.8987335 C135.474765,29.9699571 135.569954,32.6555941 134.64236,36.0095181 C137.265819,35.1231721 138.942106,30.0348347 138.942106,30.0348347 C138.942106,30.0348347 139.719153,33.3502101 140.090461,37.6856699 C137.789026,38.1893661 135.514596,39.123172 133.137549,39.526615 C132.504976,37.6856699 131.34852,35.8454675 128.194427,34.017957 C129.849786,32.4989697 130.730123,30.1149697 131.195271,27.9000837 L134.962359,27.8987335 Z M70.3338379,27.8987335 C69.4224455,29.9794085 68.7513907,33.0498557 69.6870869,37.0274421 C70.4135003,37.1969611 71.134513,37.359729 71.8494497,37.5142607 C76.5353567,38.4100581 81.3650613,39.1176362 86.3142594,39.6213323 C87.067002,38.194902 89.3529092,33.7882186 89.8781412,31.8684211 C90.0718965,31.1601005 90.2440484,29.6938389 90.4918121,27.8973833 L86.6977194,27.8987335 C86.5984788,28.85259 86.5201666,29.8470204 86.464808,30.8826321 C85.9409261,29.7479149 85.6681835,28.7157461 85.5291118,27.8940077 L81.8315591,27.8987335 C80.1714748,29.364995 78.7409263,31.8043536 78.8752723,35.8515434 C75.2675087,34.0651468 73.6722344,30.5182102 72.9707999,27.9000837 L70.3338379,27.8987335 L70.3338379,27.8987335 Z M125.769448,49.5021085 C125.570292,47.9688764 125.219237,46.4121507 124.656875,44.8668343 C123.947339,42.915847 124.189026,42.5930791 123.023794,41.0996783 C125.307001,40.8741931 127.370799,40.5313745 129.597296,40.2141425 C129.233414,39.7521003 127.933161,38.1313071 127.307339,37.6851299 L115.673246,41.9833914 L115.673246,45.6513744 C115.673246,45.6513744 117.965229,46.6355431 120.30717,49.4973827 L125.769448,49.5021085 L125.769448,49.5021085 Z M101.656031,49.5021085 C101.107846,46.2547161 101.451474,43.1128428 102.54447,40.51848 C98.1610102,40.4760159 93.8430356,40.2747669 89.6060737,39.9251298 C90.0064113,37.1078472 92.3436264,36.3246573 92.3436264,36.3246573 C99.9945967,40.4656868 113.207761,42.4567753 113.207761,42.4567753 L113.631052,45.6466486 C112.208605,46.72729 110.824639,48.0311212 109.516959,49.5029186 L101.656031,49.5021085 L101.656031,49.5021085 L101.656031,49.5021085 Z" id="path20" fill="#E3B97A"></path>
                        <path d="M100.648774,66.1057199 C106.03274,67.8838802 111.24928,68.1512219 116.658225,68.0283527 C113.886917,70.5350193 104.97485,72.2666649 100.648774,66.1057199 L100.648774,66.1057199 Z M120.30717,49.5021085 C121.518984,50.9778215 122.742951,52.9599312 123.670545,55.5680661 C123.670545,55.5680661 123.631389,58.6350028 122.26025,61.1624626 C127.487592,59.3228002 129.58717,55.3180071 130.426326,52.6279143 C127.578056,52.2861084 126.017887,51.851543 126.017887,51.851543 L125.913246,50.9435937 C125.878815,50.4667667 125.831558,49.9860241 125.769448,49.5034587 L120.30717,49.5021085 Z M109.516959,49.5021085 C108.471221,50.6788173 107.47409,51.9628004 106.543795,53.323813 C106.19004,55.6862096 103.749533,61.8544457 97.3313056,57.5765049 C92.725061,54.5052476 92.2929935,53.5960155 92.2929935,53.5960155 C98.5572971,51.9979059 101.746495,49.9936528 101.746495,49.9936528 C101.71409,49.8280494 101.683711,49.6635262 101.656031,49.4994756 L109.516959,49.5021085 L109.516959,49.5021085 Z M143.22025,71.1048083 C143.618562,70.2251459 143.811642,69.7066649 143.811642,69.7066649 C143.811642,69.7066649 142.952233,70.3007577 141.616874,71.1061586 L143.22025,71.1048083 Z M135.369448,71.1048083 C140.723034,63.9912895 141.978056,55.9243193 141.978056,55.9243193 C141.978056,55.9243193 140.205229,58.3283023 137.581769,58.8016863 C138.289279,56.8849944 138.824638,54.9380577 139.222275,53.006581 C137.490629,53.051678 135.906832,53.0269016 134.48506,52.9599312 C131.798815,60.3241166 126.921178,62.8362516 122.404048,63.3884204 L121.49063,67.399762 C121.49063,67.399762 124.72101,67.2027663 127.150039,69.5486902 C127.592908,69.9773822 127.998647,70.5100404 128.366579,71.1048083 L135.369448,71.1048083 L135.369448,71.1048083 Z M118.021938,71.1048083 C118.812486,68.4799983 119.970967,64.6387157 120.353752,63.4058381 C119.398478,64.0930954 118.168436,64.5076777 116.583963,64.4259224 C116.583963,64.4259224 121.426495,62.8913402 121.07274,56.7495007 C117.065314,57.7592559 111.356622,56.7447074 108.43409,55.9229691 C105.599322,63.4820575 99.1075081,61.3589183 99.1075081,61.3589183 L96.5225292,70.5816016 C90.433753,70.2075932 85.8025295,70.5113906 82.3115591,71.1095341 L118.021938,71.1048083 Z M75.1432893,71.1048083 C77.7100403,67.7367072 81.9402511,63.36999 87.1581413,62.3723866 C92.1086897,61.4246061 94.9670862,63.2581925 94.9670862,63.2581925 C94.9670862,63.2581925 95.9540904,60.3665808 95.9837951,60.3665808 C93.4595757,59.2244373 90.6356095,57.4332475 87.7799134,54.5532476 C79.2236267,56.0263952 66.7935173,56.3180408 50.6537709,51.9757624 C52.6542434,57.6930281 56.8623108,65.0619393 65.7117283,71.1007577 L75.1432893,71.1048083 Z M52.8855345,71.1048083 C51.3446738,70.4965383 50.5184797,70.0226143 50.5184797,70.0226143 C50.5184797,70.0226143 50.5537878,70.4128252 50.6848932,71.1054835 L52.8855345,71.1048083 L52.8855345,71.1048083 L52.8855345,71.1048083 Z" id="path22" fill="#E3B97A"></path>
                        <path d="M50.6848932,71.1048083 C51.3385979,74.5539222 54.3684037,85.4967067 67.2413148,93.1307994 C62.7048761,97.6661579 57.1492306,99.0737528 53.471256,99.4774659 C55.5205387,100.193078 57.3944965,101.017381 59.1168255,101.254343 C85.7978038,104.921516 95.8534997,74.5755256 95.8534997,74.5755256 C95.8534997,74.5755256 93.1773816,90.1704619 81.3583102,99.286411 C83.6259895,100.883035 89.3117277,103.777888 98.2521494,101.120673 C112.509027,96.8830356 117.032908,76.3118968 117.032908,76.3118968 C117.032908,76.3118968 117.163204,93.4129934 103.943964,102.306158 C105.687086,103.060926 111.468014,105.066664 118.235946,99.0379722 C118.235946,99.0379722 123.89468,102.44658 130.185988,102.043542 C133.768773,101.814006 137.193583,99.4167064 140.720334,98.2913056 C136.966748,97.2529933 131.350545,94.9259048 126.676115,89.7789007 C136.319997,84.8303776 141.55814,74.7969602 143.22025,71.1081839 L141.616874,71.1048083 C139.069026,72.6433737 134.788182,74.9508842 131.449111,75.365399 C132.952571,74.0428673 134.249448,72.5961163 135.369448,71.108859 L128.366579,71.1048083 C130.38717,74.3709686 131.291136,79.5058208 131.291136,79.5058208 C131.291136,79.5058208 128.614343,76.4887745 117.239491,73.7134159 C117.239491,73.7134159 117.570968,72.6089433 118.021938,71.108859 L82.3115591,71.1048083 C74.5606732,72.4361163 72.4266649,75.2067492 72.4266649,75.2067492 C72.4266649,75.2067492 73.4028674,73.3846395 75.1432893,71.1021079 L65.7117283,71.1048083 C67.0237283,71.9959476 68.4381417,72.862783 69.9618548,73.6891121 C61.9791377,74.111053 55.9854838,72.3335003 52.8852645,71.1061586 L50.6848932,71.1048083 L50.6848932,71.1048083" id="path24" fill="#E3B97A"></path>
                        <path d="M111.532149,20.2349362 C116.30447,22.5424467 115.993246,29.4657208 115.993246,29.4657208 C120.126917,20.6067843 114.568098,16.8230207 114.568098,16.8230207 C114.568098,16.8230207 110.426326,18.0859405 106.759153,17.9280333 C103.091305,17.7700586 99.836622,15.6213329 99.836622,15.6213329 C99.836622,15.6213329 93.4332466,17.0641008 97.3313056,29.7020077 C97.3313056,29.7020077 97.4285208,21.3562864 101.986158,19.4464805 L103.24928,21.7531809 L104.609618,19.9195944 L106.127255,22.3850121 L107.797466,20.393451 L109.795103,22.7004214 L111.532149,20.2349362 L111.532149,20.2349362 Z M122.850967,36.8958641 L114.252149,40.7204716 C103.416706,39.0426994 99.1081832,36.4833746 99.1081832,36.4833746 C99.1081832,36.4833746 97.5675925,32.8910709 102.468858,29.8794929 C102.468858,29.8794929 102.404048,35.7334 104.477297,37.6743282 L106.661938,36.2571468 L108.492824,38.7969611 L110.678141,37.4380413 L112.390883,39.5052817 L114.634934,37.9106151 L116.583963,38.8557627 C116.583963,38.8557627 120.422613,36.8478641 119.064301,31.5914929 C122.844216,33.5993916 122.850967,36.8958641 122.850967,36.8958641 L122.850967,36.8958641 Z M90.8259893,68.1883527 L87.79004,68.6015173 C87.79004,68.6015173 88.5184788,64.9335342 92.6595757,63.8900237 C91.4572129,65.8815849 90.8259893,68.1883527 90.8259893,68.1883527 L90.8259893,68.1883527 Z M121.745145,72.8999138 L124.21063,73.8477619 C124.21063,73.8477619 124.368604,69.9551037 121.745145,69.0747662 C122.061094,70.6842176 121.745145,72.8999138 121.745145,72.8999138 L121.745145,72.8999138 L121.745145,72.8999138 Z" id="path26" fill="#FFFFFF"></path>
                        <path d="M166.638983,132.303119 C164.781768,132.945144 163.276283,131.425482 163.276283,128.908689 L163.276283,75.3410952 C163.276283,72.8249771 164.781768,70.3966227 166.638983,69.9166227 C168.496873,69.4379729 170.002359,71.089956 170.002359,73.6060741 L170.002359,126.584301 C170.002359,129.101094 168.496873,131.661769 166.638983,132.303119 L166.638983,132.303119 Z M152.707507,53.787678 C153.630376,69.9807577 145.71949,80.7986478 138.919828,86.7868333 C142.828688,89.8119809 144.915439,93.2010103 146.014511,95.4234575 C150.339237,96.3942592 152.195777,100.951221 152.364553,103.31409 C152.72641,108.378731 149.703287,106.777381 148.735186,105.592571 C148.05333,104.756116 146.598477,104.164723 145.548688,104.164723 C144.126916,104.164723 142.912401,104.411137 141.646579,104.798647 L141.646579,148.054005 C141.646579,155.604384 147.76776,159.460587 155.317464,156.667 C164.529279,153.775524 172.068181,151.203372 177.934173,148.516452 C185.484552,145.722866 191.605059,137.398815 191.605059,129.848436 L191.605059,54.408775 C191.605059,47.3763364 184.754763,40.9013998 179.233751,43.8887415 C169.447422,49.1835262 160.456367,52.1943616 152.707507,53.787678 L152.707507,53.787678 Z M137.259068,160.978224 L137.259068,106.293331 C131.283035,108.141769 126.366917,108.157297 120.034427,105.00658 L119.776537,105.219913 C118.483035,106.271727 117.099744,107.098056 115.655693,107.721854 L115.655693,163.848097 C123.023119,163.266831 130.236621,162.301431 137.259068,160.978224 L137.259068,160.978224 Z M111.267508,164.147169 L111.267508,108.987677 C107.089955,109.656706 102.657888,108.980926 98.5201663,107.393753 C95.5186474,108.414512 92.5124028,108.796622 89.6641328,108.781094 L89.6641328,119.051474 C87.2290274,118.942107 84.8094494,118.790883 82.406749,118.598478 L82.406749,107.932487 C79.2310529,107.226326 76.5792386,106.215694 74.815188,105.439997 C70.9880151,106.945483 66.5978042,107.831896 61.5820407,107.831896 C61.318547,107.831896 61.059104,107.825145 60.803239,107.812993 L60.803239,160.937717 C67.8258211,162.26835 75.0386479,163.241852 82.406749,163.830544 L82.406749,140.539406 C84.8094494,140.731811 87.2290274,140.882359 89.6641328,140.992402 L89.6641328,164.28354 C92.7986475,164.423962 95.957466,164.495523 99.139238,164.495523 C103.220251,164.495523 107.265483,164.378055 111.267508,164.147169 Z M31.4229866,132.091811 C29.5659064,131.450461 28.0601512,128.889786 28.0601512,126.372993 L28.0601512,72.0864117 C28.0601512,69.5702936 29.5659064,68.0499561 31.4229866,68.6919814 C33.2806068,69.3333316 34.786362,71.8933315 34.786362,74.4107998 L34.786362,128.696706 C34.786362,131.214174 33.2806068,132.733836 31.4229866,132.091811 L31.4229866,132.091811 Z M36.9809949,59.3209099 C39.6872226,70.904302 46.3966233,81.5783946 55.1313404,89.5459893 C52.5279312,91.1581412 49.8475599,93.1841327 48.2890115,95.8751031 C43.1637458,95.624639 39.9248598,98.2474237 38.6009779,102.844217 C37.807729,106.260926 39.2249779,106.794259 42.8523196,104.444217 C43.2096529,104.286242 44.1062605,104.135018 45.7573659,104.135018 C49.5619903,104.135018 52.68037,105.961179 56.4150534,107.046073 L56.4150534,148.121515 C56.4150534,155.671895 50.2945473,159.528097 42.7441677,156.734511 C33.5335013,153.843034 25.9944635,151.053498 20.1281345,148.366579 C12.5780925,145.572992 6.45727579,137.187507 6.45727579,129.637128 L6.45727579,50.9986823 C6.45727579,43.4477626 12.5780925,39.5923028 20.1281345,42.3858217 C31.30113,47.8852984 38.9319821,51.2890451 43.0205559,52.5967919 C43.2157289,52.6682181 43.4098217,52.7452476 43.6025643,52.82437 C45.4788849,56.9546652 47.6571802,60.4335512 49.579408,63.1183782 C44.4150537,60.384201 39.9702268,56.4928931 35.4654506,52.8317286 C36.1711383,55.8533657 36.0968092,56.5867328 36.9809949,59.3209099 L36.9809949,59.3209099 L36.9809949,59.3209099 Z" id="path28" fill="#00674E"></path>
                        <path d="M166.638983,132.303119 C164.781768,132.945144 163.276283,131.425482 163.276283,128.908689 L163.276283,75.3410952 C163.276283,72.8249771 164.781768,70.3966227 166.638983,69.9166227 C168.496873,69.4379729 170.002359,71.089956 170.002359,73.6060741 L170.002359,126.584301 C170.002359,129.101094 168.496873,131.661769 166.638983,132.303119 L166.638983,132.303119 Z" id="path28-path" fill="#FFFFFF"></path>
                        <path d="M31.4229866,132.091811 C29.5659064,131.450461 28.0601512,128.889786 28.0601512,126.372993 L28.0601512,72.0864117 C28.0601512,69.5702936 29.5659064,68.0499561 31.4229866,68.6919814 C33.2806068,69.3333316 34.786362,71.8933315 34.786362,74.4107998 L34.786362,128.696706 C34.786362,131.214174 33.2806068,132.733836 31.4229866,132.091811 L31.4229866,132.091811 Z" id="path28-path" fill="#FFFFFF"></path>
                    </g>
                </g>
            </g>
        </g>
    </g>
</svg>