<?xml version="1.0" encoding="UTF-8"?>
<svg width="200px" height="200px" viewBox="0 0 200 200" version="1.1" xmlns="http://www.w3.org/2000/svg" xmlns:xlink="http://www.w3.org/1999/xlink">
    <!-- Generator: Sketch 54.1 (76490) - https://sketchapp.com -->
    <title>oklahoma-st</title>
    <desc>Created with Sketch.</desc>
    <defs>
        <polygon id="path-1" points="8.92857143e-05 0.0600086957 199.888988 0.0600086957 199.888988 102.70139 8.92857143e-05 102.70139"></polygon>
    </defs>
    <g id="oklahoma-st" stroke="none" stroke-width="1" fill="none" fill-rule="evenodd">
        <g id="oklahoma-st_BGD">
            <g id="Group-28" transform="translate(0.000000, 49.000000)">
                <g id="Group-3" transform="translate(0.000000, 0.238542)">
                    <mask id="mask-2" fill="white">
                        <use xlink:href="#path-1"></use>
                    </mask>
                    <g id="Clip-2"></g>
                    <path d="M194.440565,22.3533287 C194.278958,22.7913026 178.267054,66.1635577 176.852173,70.1462243 C174.475387,76.8412243 170.170625,80.144091 166.978661,81.7365606 C163.426875,83.5072649 160.241458,83.6451954 159.349792,83.6451954 L159.309315,83.6451954 L128.708125,83.6502707 L127.912292,83.6502707 L127.283423,83.1609461 L121.709315,78.8215113 L120.548006,82.0151084 C120.259315,82.8170157 118.621815,87.0247896 114.718542,91.0832881 C110.92122,95.0328157 104.149792,99.740662 93.4602083,99.740662 C77.9786607,99.740662 69.8313393,99.7442446 69.7509821,99.7442446 L68.8078274,99.7836533 L68.2003869,99.1501287 L66.460506,97.5887084 L56.2247917,88.7175722 L54.9060417,87.6033809 L55.6102083,86.0312128 L56.6352083,83.6466881 L7.61824405,83.6556446 L4.18074405,83.6565403 L5.46199405,80.4560765 L23.0554464,32.6279519 C25.4349107,25.8762272 29.8661607,22.5784359 33.1655655,21.0005954 C36.5560417,19.3794649 39.4414583,19.2024243 40.524494,19.2012301 L40.5316369,19.2012301 L40.5328274,19.2012301 L79.843244,19.2066041 C81.3584226,15.8956765 83.4899702,13.0060041 86.195625,10.6005809 C88.7569345,8.32353449 91.8000893,6.5143171 95.2384821,5.22338377 C100.75247,3.15383014 105.586399,3.09262725 106.120327,3.09262725 L128.978065,3.09053739 L129.733125,3.09053739 L130.344137,3.53537797 L143.705446,13.2741026 L145.299494,14.350378 L144.489375,16.0452504 L143.194137,19.2095896 L192.261994,19.2128736 L195.716161,19.2134707 L194.440565,22.3533287 Z M192.261994,16.2990186 L147.526577,16.296033 L148.853065,13.3394852 L145.412887,10.9167461 L132.051577,1.17832 L130.676875,0.0599489855 L128.97747,0.176383768 L106.119732,0.179369275 C105.161696,0.179369275 100.089077,0.291922899 94.2203274,2.49463014 C90.4468155,3.91125333 87.0988988,5.90467652 84.2688393,8.42026493 C81.730744,10.6770099 79.6468155,13.3156012 78.0468155,16.2921519 L40.533125,16.2879722 L40.5304464,16.2879722 L40.5224107,16.2879722 C39.2420536,16.2888678 35.8405655,16.4939722 31.9155655,18.370662 C29.5780655,19.4887345 27.4747917,21.0020881 25.6640774,22.8683287 C23.3227083,25.2809171 21.5250893,28.2335838 20.3212202,31.6454214 L8.92857143e-05,86.571291 L52.2197321,86.5608417 L51.3099107,88.4088707 L54.3265774,90.9223693 L64.5426488,99.7767867 L66.2634821,101.321488 L67.7149702,102.70139 L69.7524702,102.6581 C69.8328274,102.6581 77.979256,102.654517 93.4602083,102.654517 C98.6783631,102.654517 103.532827,101.60541 107.886994,99.5364533 C111.23372,97.9466707 114.235208,95.7830736 116.809315,93.1062678 C120.527768,89.2397374 122.374196,85.3003606 123.066161,83.5657809 L125.50247,85.4627722 L126.917649,86.5641258 L128.70872,86.5641258 L159.31497,86.5590504 L159.349792,86.5590504 C160.697708,86.5590504 164.265268,86.3431983 168.271815,84.3455954 C170.540268,83.2140881 172.586101,81.695062 174.353065,79.8303142 C176.628661,77.4284736 178.390268,74.4987954 179.589077,71.1236794 C180.997411,67.1583287 197.002768,23.8027925 197.164077,23.3657142 L199.889077,16.2999142 L192.261994,16.2990186 Z" id="Fill-1" fill="#C7C8CA" mask="url(#mask-2)"></path>
                </g>
                <path d="M174.66372,69.6028322 C172.546458,75.5651887 168.753304,78.4868061 165.944077,79.8879046 C162.846161,81.4329046 160.11372,81.5523249 159.350327,81.5523249 L159.314911,81.5523249 L128.708065,81.5576988 L120.679494,75.3072409 L120.655982,75.2439481 L120.606875,75.290522 L118.362232,81.4621626 C118.103304,82.1816699 116.624137,85.9834148 113.046458,89.7036554 C109.561042,93.3283597 103.333958,97.6480901 93.4601488,97.6480901 C77.7991369,97.6480901 69.7503274,97.6519713 69.7503274,97.6519713 L67.9955655,96.0765191 L57.744375,87.1925452 L59.5652083,82.9549162 L60.1628274,81.564267 L60.1663988,81.5535191 L7.6178869,81.5636699 L14.1866369,65.1556206 L21.5077679,65.1863713 L21.8470536,65.1869684 L21.5190774,65.0433655 L15.5622321,60.9215742 L25.2464583,33.6438901 C27.3601488,27.645409 31.263125,24.7312554 34.1652083,23.3438901 C37.2122321,21.8866641 39.804494,21.7711249 40.5262202,21.7705278 L40.529494,21.7705278 L40.5324702,21.7705278 L81.3809821,21.7759017 C82.7747321,18.1864264 84.9101488,15.0967249 87.7366369,12.5838235 C90.084256,10.4966554 92.881875,8.83551913 96.0527083,7.64549594 C101.183661,5.71924667 105.629494,5.66222348 106.120565,5.66222348 L128.978304,5.65983507 L142.339613,15.3979626 L139.727708,21.7785887 L192.261637,21.7824699 C192.261637,21.7824699 176.099137,65.5604554 174.66372,69.6028322 L174.66372,69.6028322 Z M192.261637,19.4516843 L143.19378,19.4478032 L144.489315,16.2834641 L145.299137,14.5885916 L143.705982,13.5123162 L130.34378,3.77389014 L129.733065,3.32875101 L128.977708,3.32875101 L106.11997,3.33113942 C105.586637,3.33113942 100.752411,3.39264087 95.238125,5.46189594 C91.7997321,6.75282928 88.7571726,8.56174812 86.1955655,10.8393916 C83.4902083,13.2448148 81.3580655,16.1341887 79.8428869,19.4451162 L40.5330655,19.4400409 L40.531875,19.4400409 L40.5247321,19.4400409 C39.4413988,19.4409365 36.5565774,19.6179771 33.1649107,21.2394061 C29.866994,22.8172467 25.4351488,26.115038 23.0553869,32.8664641 L5.46133929,80.6942901 L4.18098214,83.8944554 L7.61848214,83.8941568 L56.6351488,83.8854988 L55.610744,86.2697249 L54.9059821,87.841893 L56.2253274,88.9560843 L66.460744,97.826922 L68.2003274,99.3889394 L68.8074702,100.022166 L69.7512202,99.9830554 C69.8315774,99.9830554 77.9788988,99.9791742 93.4601488,99.9791742 C104.150327,99.9791742 110.921161,95.2716264 114.719077,91.3220988 C118.622054,87.2633017 120.259554,83.0558264 120.548244,82.2539191 L121.708958,79.0600235 L127.283363,83.3994583 L127.912232,83.8890814 L128.708661,83.8890814 L159.309554,83.8840061 L159.350327,83.8840061 C160.241994,83.8840061 163.427411,83.7454786 166.978304,81.9744757 C170.171161,80.3826032 174.475625,77.0797365 176.852411,70.3847365 C178.266994,66.4020699 194.278899,23.0298148 194.440208,22.5918409 L195.715804,19.4516843 L192.261637,19.4516843 Z" id="Fill-4" fill="#F89728"></path>
                <path d="M180.853542,33.7478754 L113.845208,33.7436957 L114.521399,32.1810812 L116.923482,25.4783188 L117.012768,25.3544203 L116.888958,25.4150261 L101.299375,25.4150261 L96.8874702,37.8884754 L119.228244,55.4617681 L120.932113,56.7106058 L120.92378,56.714487 L120.240149,58.2750116 L112.572292,79.3592609 C112.572292,79.3592609 108.389554,91.4711652 93.4600893,91.4711652 C77.6154464,91.4711652 72.1020536,91.4738522 72.1020536,91.4738522 L66.8952083,86.7994435 L65.2202083,85.3998377 L65.8958036,83.8276696 L68.9029464,75.3751014 L16.8577083,75.3846551 L17.5294345,73.8193536 L19.0395536,69.5659014 L85.758006,69.5664986 L85.0862798,71.1306058 L82.4731845,78.4854029 L82.3847917,78.5857159 L82.5133631,78.5510841 L98.0639583,78.5439188 L102.719613,65.4211217 L80.415744,48.4261217 L78.751756,47.2468464 L79.424375,45.678858 L86.9187202,24.5575884 C91.4273512,11.8435072 106.121101,11.8393275 106.121101,11.8393275 L126.673185,11.8366406 L126.917232,12.0504029 L133.14372,16.5665797 L134.768423,17.6607681 L134.118125,19.1675536 L131.002054,27.9553942 L183.02497,27.9589768 L182.350565,29.5290551 L180.853542,33.7478754 Z M178.851161,39.3895884 C176.922887,44.8247043 170.298185,63.4877072 168.862768,67.5297855 C166.038363,75.484371 159.335685,75.3756986 159.335685,75.3756986 L130.814851,75.3804754 L124.88747,70.7711507 L123.219315,69.5644087 L123.891637,67.9958232 L134.572887,37.9016116 L148.189554,37.9037014 L147.516339,39.4746754 L136.86872,69.498429 L136.782113,69.6112812 L136.905625,69.560229 L150.171101,69.5673942 C154.976458,69.5306725 156.404137,64.6747449 157.302946,62.1397507 C158.222887,59.5465391 165.898185,37.9037014 165.898185,37.9037014 L179.495804,37.9010145 C179.495804,37.9010145 179.185982,38.4458696 178.851161,39.3895884 L178.851161,39.3895884 Z M31.0514583,35.7033826 C33.7818155,27.9533043 40.5312202,27.9479304 40.5312202,27.9479304 L69.2526488,27.9533043 L74.9874702,32.5050087 L76.6693155,33.7478754 C76.6693155,33.7478754 76.3475893,34.328258 75.9958036,35.3218348 C74.3249702,40.0356522 69.3588988,54.0496232 67.4044345,59.5551971 C65.3091964,65.4605304 55.8350893,65.4127623 55.8350893,65.4127623 L30.6005655,65.405 L22.5841964,59.5662435 L31.0514583,35.7033826 Z M139.727649,21.7786783 L142.339851,15.3980522 L128.977946,5.65962609 L106.120208,5.66231304 C105.629435,5.66231304 101.184196,5.71933623 96.0520536,7.64468986 C92.8821131,8.83531014 90.0841964,10.4967449 87.736875,12.583913 C84.9103869,15.097113 82.7749702,18.1862174 81.3809226,21.7759913 L40.5324107,21.7709159 L40.5297321,21.7709159 L40.5264583,21.7709159 C39.8047321,21.771513 37.2124702,21.8864551 34.1654464,23.3433826 C31.2633631,24.7316435 27.3603869,27.6449014 25.2463988,33.6430841 L15.5624702,60.9216638 L21.5190179,65.0434551 L21.8463988,65.187058 L21.5083036,65.1861623 L14.186875,65.1557101 L7.618125,81.5631623 L60.1666369,81.5539072 L60.1627679,81.5643565 L59.5654464,82.9547072 L57.7443155,87.1929333 L67.9952083,96.0766087 L69.7496726,97.6520609 C69.7496726,97.6520609 77.7984821,97.6481797 93.4600893,97.6481797 C103.334196,97.6481797 109.56128,93.3278522 113.046696,89.7037449 C116.624077,85.9838029 118.103542,82.1814609 118.362173,81.4622522 L120.60622,75.2900145 L120.655923,75.2440377 L120.679137,75.3079275 L128.708304,81.558087 L159.314851,81.552713 L159.34997,81.552713 C160.113661,81.552713 162.846101,81.4326957 165.94372,79.8876957 C168.753542,78.4865971 172.546696,75.5646812 174.663958,69.6029217 C176.099077,65.5602464 192.26128,21.7825594 192.26128,21.7825594 L139.727649,21.7786783 Z" id="Fill-6" fill="#231F20"></path>
                <polygon id="Fill-8" fill="#231F20" points="53.8922917 59.5553165 63.0521131 33.8077049 63.138125 33.7223194 63.0113393 33.746502 45.253006 33.7447107 36.1098512 59.4994875 36.0220536 59.6138325 36.1509226 59.5627803"></polygon>
                <path d="M179.867113,82.0119438 L179.330506,82.0134365 L179.330506,81.4267843 L179.901042,81.4246945 C180.170387,81.4246945 180.220685,81.595167 180.220685,81.7142887 C180.221875,81.9274539 180.103423,82.0119438 179.867113,82.0119438 M180.617411,82.7469757 C180.616815,82.3349757 180.520685,82.2686974 180.337351,82.1916713 C180.55878,82.1155409 180.679018,81.9071525 180.679018,81.6641322 C180.679018,81.4742539 180.572173,81.0443409 179.988542,81.0443409 L178.881696,81.0470278 L178.885863,83.2413757 L179.332292,83.2413757 L179.332292,82.3854307 L179.804018,82.3830423 C180.143899,82.3830423 180.160863,82.4958945 180.160863,82.7968336 C180.161458,83.0255235 180.182589,83.1377786 180.212054,83.2383901 L180.71622,83.2383901 L180.71622,83.1828597 C180.617411,83.146138 180.617411,83.0658278 180.617411,82.7469757" id="Fill-10" fill="#231F20"></path>
                <path d="M180.961667,83.4358814 C180.628333,83.7714525 180.184583,83.9562554 179.711667,83.9562554 L179.706607,83.9562554 C178.734583,83.9562554 177.940238,83.1612148 177.93875,82.185551 C177.936071,81.205409 178.729524,80.4067858 179.709583,80.4046959 C180.682798,80.4046959 181.47625,81.2021249 181.478036,82.1810728 C181.480417,82.6536786 181.297083,83.0994148 180.961667,83.4358814 M179.705417,80.0183713 C178.517321,80.0216554 177.551845,80.9922438 177.553929,82.185551 C177.55631,83.3746786 178.521488,84.3428786 179.706607,84.3428786 L179.711667,84.3428786 C180.285774,84.3428786 180.827738,84.1171742 181.235476,83.7081597 C181.642024,83.2994438 181.864345,82.7575742 181.862262,82.1810728 C181.860774,80.9877655 180.895595,80.0183713 179.705417,80.0183713" id="Fill-12" fill="#231F20"></path>
                <path d="M36.1098214,59.4993383 L45.2526786,33.7445614 L63.0107143,33.7460542 L63.1377976,33.7221701 L63.052381,33.8075557 L53.8922619,59.5551672 L36.1508929,59.5635267 L36.0217262,59.6139817 L36.1098214,59.4993383 Z M55.8354167,65.413031 C55.8354167,65.413031 65.3092262,65.4605006 67.4044643,59.5551672 C69.358631,54.0495933 74.325,40.0359209 75.996131,35.3221035 C76.3479167,34.3282281 76.6696429,33.747547 76.6696429,33.747547 L74.9875,32.5046803 L69.2520833,27.9529759 L40.53125,27.9479006 C40.53125,27.9479006 33.7815476,27.9529759 31.0514881,35.7039499 L22.5842262,59.5665122 L30.6002976,65.4052687 L55.8354167,65.413031 Z" id="Fill-14" fill="#F89728"></path>
                <path d="M131.001786,27.9550061 L134.118452,19.1671655 L134.768452,17.6606786 L133.144048,16.5664901 L126.917857,12.0506119 L126.673512,11.8374467 L106.121131,11.8395365 C106.121131,11.8395365 91.427381,11.8434177 86.9184524,24.5574988 L79.4241071,45.679067 L78.7517857,47.2464583 L80.4157738,48.4257336 L102.71994,65.4210322 L98.0636905,78.5435307 L82.5130952,78.551293 L82.3845238,78.5853278 L82.4735119,78.4856119 L85.0860119,71.1302177 L85.7577381,69.5661104 L19.0392857,69.5661104 L17.5294643,73.8195626 L16.8580357,75.3848641 L68.9032738,75.3750119 L65.8955357,83.8278786 L65.2199405,85.4000467 L66.8955357,86.799951 L72.1017857,91.4740612 C72.1017857,91.4740612 77.6154762,91.4710757 93.460119,91.4710757 C108.389881,91.4710757 112.572024,79.360067 112.572024,79.360067 L120.239881,58.2755191 L120.92381,56.7140988 L120.931845,56.7105162 L119.227976,55.4616786 L96.8877976,37.8880872 L101.299107,25.4152351 L116.889286,25.4152351 L117.012798,25.3546293 L116.923512,25.4785278 L114.521131,32.1812901 L113.84494,33.7436061 L180.853274,33.7474872 L182.350595,29.5292641 L183.024702,27.9585887 L131.001786,27.9550061 Z" id="Fill-16" fill="#F89728"></path>
                <path d="M157.302679,62.1396612 C156.403571,64.6740583 154.97619,69.53118 150.171429,69.5673046 L136.905357,69.5598409 L136.781845,69.6114901 L136.868452,69.4980409 L147.516369,39.4742872 L148.189583,37.9036119 L134.572619,37.901522 L123.892262,67.9960322 L123.219345,69.5640206 L124.8875,70.7707626 L130.814583,75.3806843 L159.336012,75.3759075 C159.336012,75.3759075 166.038988,75.48458 168.863095,67.530293 C170.298512,63.4879162 176.922321,44.8240177 178.85119,39.3897974 C179.186607,38.4463771 179.495833,37.9009249 179.495833,37.9009249 L165.897917,37.9030148 C165.897917,37.9030148 158.222619,59.5467481 157.302679,62.1396612" id="Fill-18" fill="#F89728"></path>
                <path d="M177.856726,30.8285568 L125.491845,30.8285568 L131.001667,27.9550061 L134.118333,19.166867 L134.768929,17.6609771 L133.143929,16.5664901 L126.918036,12.0503133 L126.673393,11.8371481 L119.330536,18.5999191 L103.722798,18.5999191 C97.2745833,18.5999191 94.331131,24.349409 93.1117857,27.9621713 C92.0915476,30.9820119 88.5802381,41.1906554 88.5802381,41.1906554 L96.887381,37.8883858 L101.299881,25.4149365 L116.888869,25.4149365 L117.012381,25.3546293 L116.92369,25.4785278 L114.52131,32.1809916 L113.844821,33.7439046 L180.853155,33.7477858 L182.351369,29.5289655 L183.024583,27.9585887 L177.856726,30.8285568 Z" id="Fill-20" fill="#F37021"></path>
                <path d="M69.2522024,27.9532446 L69.2522024,27.9532446 L70.8551786,30.8342591 C70.8551786,30.8342591 62.7027976,53.7363838 61.7206548,56.5078301 C60.423631,60.1677635 57.442381,62.4704852 52.893869,62.4704852 L32.387619,62.4704852 L36.0218452,59.6139519 L36.1099405,59.499607 L45.2527976,33.7448301 L63.011131,33.7457258 L63.1382143,33.7224388 L70.8551786,30.8342591 L46.2703571,30.8226157 C39.4911905,30.8578446 38.4935714,33.7054214 37.0069643,37.8860272 L30.9882143,54.8419171 L22.5840476,59.5664823 L30.6007143,65.4049403 L55.8355357,65.4127026 C55.8355357,65.4127026 65.3090476,65.4604707 67.404881,59.5551374 C69.3581548,54.049862 74.325119,40.0355925 75.9953571,35.3220736 C76.3480357,34.3284968 76.6697619,33.7478157 76.6697619,33.7478157 L74.9870238,32.504949 L69.2522024,27.9532446 Z" id="Fill-22" fill="#F37021"></path>
                <path d="M112.493869,60.3824513 L88.5804762,41.1907151 L78.7522024,47.2462194 L80.4158929,48.4257933 L102.72006,65.4210919 L102.72631,65.4034774 L112.485536,60.415889 C112.485536,60.415889 109.525119,68.39406 106.911131,75.3870136 C104.296845,82.3796687 100.817381,84.5555064 95.937619,84.5555064 C91.0578571,84.5555064 71.3632143,84.5468484 71.3632143,84.5468484 L82.3846429,78.5859846 L82.473631,78.4856716 L85.086131,71.1305759 L85.7578571,69.5667672 L80.0215476,72.561231 L22.942381,72.5615296 L16.8578571,75.3846252 L68.9033929,75.3753701 L65.8953571,83.8276397 L65.2200595,85.3995093 L66.8953571,86.7994136 L72.1016071,91.4741209 C72.1016071,91.4741209 77.6152976,91.4714339 93.4599405,91.4714339 C108.389702,91.4714339 112.572143,79.3595296 112.572143,79.3595296 L120.239405,58.2749817 L120.923631,56.7144571 L112.493869,60.3824513 Z" id="Fill-24" fill="#F37021"></path>
                <path d="M171.598571,40.8632348 C171.598571,40.8632348 163.211667,64.4815826 162.875655,65.4008203 C160.904226,70.793542 157.070595,72.4645304 151.677143,72.4645304 L133.336667,72.4645304 L136.782202,69.6118783 L136.868512,69.4981304 L147.516131,39.4746754 L148.189643,37.9034029 L140.339643,40.8211391 L131.572083,65.4002232 L123.219405,69.5641101 L124.88756,70.7711507 L130.814643,75.3804754 L159.336071,75.3756986 C159.336071,75.3756986 166.03875,75.484371 168.863452,67.5300841 C170.297976,63.4871101 176.922679,44.8244058 178.85125,39.3895884 C179.186071,38.4461681 179.495893,37.9010145 179.495893,37.9010145 L171.598571,40.8632348 Z" id="Fill-26" fill="#F37021"></path>
            </g>
        </g>
    </g>
</svg>