<?xml version="1.0" encoding="UTF-8"?>
<svg width="200px" height="200px" viewBox="0 0 200 200" version="1.1" xmlns="http://www.w3.org/2000/svg" xmlns:xlink="http://www.w3.org/1999/xlink">
    <!-- Generator: Sketch 54.1 (76490) - https://sketchapp.com -->
    <title>oral-roberts</title>
    <desc>Created with Sketch.</desc>
    <g id="oral-roberts" stroke="none" stroke-width="1" fill="none" fill-rule="evenodd">
        <g id="oral-roberts_BGD" transform="translate(0.000000, -0.000000)">
            <g id="oral-roberts" transform="translate(0.000000, 51.000000)">
                <g id="g10" transform="translate(100.000000, 48.838030) scale(-1, 1) rotate(-180.000000) translate(-100.000000, -48.838030) translate(0.000000, 0.343184)" fill-rule="nonzero">
                    <g id="g12" transform="translate(-0.000000, 0.000000)">
                        <path d="M185.738567,46.6121977 C185.117306,49.379497 183.956719,52.1879025 182.313965,55.0433937 C178.468973,61.7268873 172.043913,68.6024544 163.733073,75.5753795 C159.047751,79.5064392 154.04668,83.2267923 149.047009,86.6291101 C147.297341,87.8197731 145.670734,88.887027 144.207339,89.8166053 C143.691752,90.144117 143.232234,90.4317062 142.833822,90.6775684 C142.589229,90.8285085 142.415908,90.9340478 142.318903,90.9923723 L133.282158,96.4257571 L137.243952,73.1293607 L148.97047,62.2304963 L148.900887,79.9898788 L141.251075,76.0189488 L147.132504,71.8308096 L158.987689,63.1503511 L161.846261,67.0649389 L158.509669,63.5500294 L161.410219,60.7891942 L164.746811,64.3041038 L164.424336,69.1428256 L153.059561,68.3833782 L160.734028,60.8092388 C161.384964,60.166813 161.999445,59.5348789 162.578447,58.91364 L166.119024,62.22241 L169.385606,65.8026517 C162.769267,71.8556428 154.281897,78.5033468 146.887372,83.6936042 L137.958226,89.9610211 L140.307733,71.0081843 L145.113796,71.6055815 L148.026594,75.4798811 L146.512841,76.6210331 C138.680038,82.5247728 128.033486,85.6180118 115.567321,86.6321091 C107.36993,87.2989503 99.4921823,87.0010206 92.9346613,86.2481719 L83.8469131,85.2048357 L96.9547951,69.9682812 L100.624012,73.1334022 L100.411829,77.9782301 L98.7570172,77.9055603 C98.4400948,77.8915638 98.148445,77.8767107 97.6136327,77.8435797 C96.7503232,77.7900987 95.7604864,77.7170199 94.6534987,77.6211735 C91.5292907,77.3506697 88.0653356,76.9521203 84.3441869,76.4003633 C73.73411,74.8271439 63.1232878,72.3379561 53.169687,68.7162296 C49.8871017,67.5218251 46.7231311,66.2183853 43.6918332,64.8004402 L32.3885842,59.5131386 L44.2939219,55.7789457 C54.7908036,52.4865249 64.03539,48.9790638 75.2490558,43.2362213 C92.2416446,34.5338253 106.706209,23.736335 117.220668,10.6274947 L121.240858,5.61534693 L126.94539,13.686507 C136.030064,43.0635252 141.385461,60.6296889 144.058692,69.7573938 C145.263515,73.8712424 145.942489,76.3315626 146.256579,77.6989957 C146.446735,78.5268683 146.544304,79.1019729 146.558528,79.7042216 C146.595052,81.2506622 145.997147,82.6899871 144.819538,83.7138346 L144.222837,84.2326233 L143.492496,84.5345586 C143.236596,84.6403522 142.979288,84.7447873 142.720581,84.8478704 L134.708165,88.0404557 L136.155812,79.5279108 L142.720581,84.8478704 C136.190529,87.4498009 128.818298,89.1766764 120.75589,90.1407985 C108.028681,91.6627489 94.5160855,91.2313311 81.5234086,89.5966731 C78.9648507,89.2747712 76.6367908,88.9293149 74.581087,88.5828272 C73.3319597,88.3722874 72.4402953,88.2058446 71.9481917,88.105932 L62.2573152,86.1383761 L69.3072136,80.0604707 C53.3404562,77.4467643 35.3886097,72.8274528 15.480776,65.8046063 L0.120722861,60.3860712 L15.9416683,56.5194664 C16.0504935,56.4928697 16.2806183,56.435225 16.6264582,56.3463896 C17.2139802,56.1954738 17.9060968,56.0130719 18.6972203,55.7990444 C20.9704524,55.184053 23.5730088,54.4408093 26.4601359,53.5682444 C34.7244111,51.0705656 43.5938712,48.0421223 52.7092297,44.4758047 C78.6327101,34.3334318 101.312673,21.9502668 117.845442,7.36956223 C118.94206,6.40242454 119.764524,5.67707127 120.312833,5.19350243 C132.076428,13.3498411 144.151453,19.0967041 156.537908,22.4340914 C159.511659,21.9961097 162.548284,21.4092794 165.562885,20.6904727 L183.876654,16.1193576 C183.956667,15.6922967 183.975737,15.2377914 183.934703,14.7441847 L184.848485,0.24283004 C189.942407,6.49729189 193.407319,10.9785176 195.24322,13.686507 C196.350586,15.3198919 198.991211,19.7505007 199.152972,20.219774 C199.671296,21.7155905 199.946828,24.2426495 199.514414,27.1213234 C198.845174,31.5765951 196.618691,36.0306649 192.521273,40.1367562 C190.785613,41.8758376 188.488307,44.0642113 185.738567,46.6121977 Z" id="Combined-Shape" fill="#FFFFFF"></path>
                        <path d="M83.6783989,74.0699153 L72.910557,83.3531588 C72.910557,83.3531588 113.651401,91.6248447 141.644352,80.0520772 C156.956637,66.7391569 157.753243,66.7923503 157.753243,66.7923503 L118.477985,64.1746164 L83.6783989,74.0699153" id="path14" fill="#15213B"></path>
                        <path d="M95.2792161,75.6802851 C95.2792161,75.6802851 90.4374234,80.5480341 86.598331,83.9382864 C86.598331,83.9382864 120.504987,89.2291547 144.062824,78.4116895 C152.842899,68.6744259 152.41528,67.2724153 152.41528,67.2724153 L107.992283,60.9408543 L95.2792161,75.6802851" id="path16" fill="#15213B"></path>
                        <path d="M17.0899727,61.230659 C17.0899727,61.230659 82.122439,45.336865 121.046344,11.0088014 C119.10178,15.3968981 107.091859,77.3182449 107.091859,77.3182449 C107.091859,77.3182449 76.429376,82.1637012 17.0899727,61.230659" id="path18" fill="#15213B"></path>
                        <path d="M121.046785,11.0088014 C121.046785,11.0088014 142.830002,25.3021073 159.556075,27.6206116 L158.77534,28.302613 L133.284181,39.4206981 L124.365019,39.6193457 L121.046785,11.0088014" id="path20" fill="#15213B"></path>
                        <path d="M132.009921,27.8545302 C140.930184,29.7723845 153.233046,29.3774951 166.88445,26.1210209 L179.881421,44.1895647 C181.159429,55.2999247 143.090321,81.4077367 143.090321,81.4077367 L144.083764,73.388554 C125.819806,87.1539495 91.9016876,82.0400982 91.9016876,82.0400982 L98.9351377,73.8639839 C98.9351377,73.8639839 69.1519186,72.769215 43.5130767,60.2323445 C43.5130767,60.2323445 92.6868313,48.3631507 121.034,12.3253604 L132.009921,27.8545302" id="path22" fill="#C1B572"></path>
                        <path d="M121.068386,10.9819023 L120.403152,11.8270154 C92.5437773,47.2456476 43.7502509,59.3377682 43.306982,59.4556324 L41.2272991,60.0096385 L43.1610625,60.9547596 C64.9594895,71.6141896 91.2809789,74.0621901 97.2808695,74.5548361 L90.3441848,82.617942 L91.7815576,82.83513 C91.8670814,82.8481525 100.459577,84.1192764 111.176502,83.679603 C120.602854,83.2926817 133.560149,81.4677724 143.062327,75.1000134 L142.073734,83.079908 L143.543509,82.0712197 C143.639172,82.0058867 153.201525,75.430872 162.483502,67.5794362 C175.11898,56.8897677 181.241867,48.9891114 180.679349,44.0977454 L180.655544,43.8889447 L167.257845,25.2652912 L166.734122,25.3960014 C153.865878,28.4654819 141.697914,29.0431491 132.483608,27.1326228 L121.068386,10.9819023 Z M45.7415445,60.406713 C54.727053,57.588345 96.2382728,44.5314593 120.996528,13.6642496 L131.535131,28.5749809 L131.841738,28.640336 C141.195131,30.6530996 153.50174,30.0767346 166.546763,27.0268319 L179.102008,44.4811353 C179.653725,52.919023 155.338738,71.8393235 144.107569,79.722543 L145.113796,71.6055815 L143.600378,72.7464809 C127.951288,84.5415129 100.153631,82.1957055 93.4863024,81.4302501 L100.624012,73.1334022 L98.9704052,73.0607855 C98.7255162,73.0499702 70.2776145,71.8839089 45.7415445,60.406713 L45.7415445,60.406713 Z" id="path24" fill="#15213B"></path>
                        <path d="M141.74244,75.5648488 L139.825869,86.834789 C139.825869,86.834789 178.609806,63.5157686 181.275591,44.1041463 L180.519764,43.6026715 L178.054562,45.867254 L173.867864,55.622396 L161.846261,67.0649389 L149.991077,75.7453974 L144.057974,79.9708524 L144.083764,73.3887747 L141.74244,75.5648488" id="path26" fill="#15213B"></path>
                        <path d="M173.949641,49.6258873 C173.949641,49.6258873 173.514968,55.0043813 164.133582,64.2631249 L166.511716,64.422043 L173.369269,58.3608635 L177.287934,52.0385727 L179.576798,45.3768152 L173.949641,49.6258873" id="path28" fill="#15213B"></path>
                        <path d="M187.863348,20.8844496 L166.01224,26.3393346 C166.01224,26.3393346 170.177998,28.4183142 163.082829,32.5026632 C163.082829,32.5026632 187.659237,25.6559648 187.863348,20.8844496" id="path30" fill="#C1B572"></path>
                        <path d="M188.644524,19.9271668 L163.888472,26.1062769 L165.682268,27.0019127 C165.685133,27.0032149 166.472481,27.420419 166.48747,28.1247351 C166.497609,28.5886876 166.149783,29.8827442 162.714504,31.8610315 L157.621871,34.791547 L163.280548,33.2156094 C167.471655,32.0480251 188.385748,25.9689231 188.601982,20.9160125 L188.644524,19.9271668 Z M167.520588,26.7255939 L186.517891,21.9829708 C184.10493,24.5539121 174.930519,28.1212036 166.815017,30.6323299 C167.6103,29.7640192 167.990969,28.9153746 167.965841,28.0722259 C167.949309,27.5289689 167.762612,27.0815924 167.520588,26.7255939 L167.520588,26.7255939 Z" id="path32" fill="#15213B"></path>
                        <path d="M143.452034,39.5041301 L181.377426,25.976869 C181.377426,25.976869 190.243025,22.75635 189.537454,14.2767464 L193.757876,21.9233765 C193.891452,21.7168051 195.919556,28.7656826 188.544011,36.156256 C182.097766,42.6167172 168.641435,54.4651634 168.641435,54.4651634 L172.804989,42.1527647 L168.280604,37.8094454 L143.452034,39.5041301" id="path34" fill="#C1B572"></path>
                        <path d="M188.458487,10.7092784 L188.760907,14.3412406 C189.030262,17.5814257 187.847036,20.3896405 185.245173,22.6871103 C183.251676,24.4473487 181.132537,25.2357369 181.110936,25.2429765 L137.867418,40.6679843 L167.988985,38.6113196 L171.90765,42.3734843 L166.969753,56.977614 L169.15568,55.0520567 C169.29146,54.9333096 182.704808,43.1122326 189.095728,36.708717 C196.774353,29.0138376 194.602093,21.8800934 194.577626,21.8094852 C194.525827,21.6592194 194.45926,21.5324601 194.377704,21.4318562 L188.458487,10.7092784 Z M149.036649,38.3409381 L181.638847,26.7118872 C181.726575,26.6803243 189.038198,23.9409739 190.201145,17.0927305 L193.137829,22.4137933 C193.533046,23.6648317 193.991304,29.5942417 187.993617,35.6051193 C183.197893,40.4104046 174.405474,48.3002456 170.319509,51.9359381 L173.701666,41.9333695 L168.5709,37.0071299 L149.036649,38.3409381 L149.036649,38.3409381 Z" id="path36" fill="#15213B"></path>
                        <path d="M152.952228,39.6754085 C152.952228,39.6754085 165.084263,38.5201624 168.035274,41.4888403 C170.986286,44.457739 170.334718,47.324886 169.462507,50.0275968 C170.045304,48.8507202 171.446748,46.1711849 171.446748,46.1711849 L172.670972,42.5500599 L168.280163,37.8094454 L162.704806,38.1899659 L152.952228,39.6754085" id="path38" fill="#15213B"></path>
                        <path d="M142.511933,63.5153271 L132.272884,62.8333037 L120.675373,58.0840811 C122.248746,48.4637988 132.669424,41.0840407 145.273382,41.0840407 C145.394834,41.0840407 145.515626,41.0844821 145.636858,41.0860272 C154.156835,41.1809366 161.637962,44.6274723 166.084097,49.8037872 L145.830829,63.2857788 L142.511933,63.5153271" id="path40" fill="#9B8B20"></path>
                        <path d="M143.411035,63.5755835 L139.592663,60.8680168 L128.978014,60.1601692 C130.133026,54.3492856 134.28115,48.8504995 140.544666,45.7659438 C149.365519,41.4210794 159.410817,43.325227 164.542906,49.8439582 L143.411035,63.5755835" id="path42" fill="#FFFFFF"></path>
                        <polyline id="path44" fill="#15213B" points="165.600932 49.1773851 141.304681 65.1038457 142.114953 66.3418617 166.410763 50.4154011 165.600932 49.1773851"></polyline>
                        <path d="M149.896516,59.509488 C143.61206,61.3741268 131.903457,59.7189508 131.785531,59.7023969 L131.574366,61.1668711 C132.06701,61.2388257 143.720508,62.8860557 150.316861,60.9287147 L149.896516,59.509488" id="path46" fill="#15213B"></path>
                        <path d="M129.295642,58.8320997 C129.295642,58.8320997 129.937071,56.0742089 132.413954,52.5117954 C128.864497,54.6375454 126.069985,58.6168981 126.069985,58.6168981 L129.295642,58.8320997" id="path48" fill="#15213B"></path>
                        <path d="M172.500806,45.4843056 L173.701446,41.9327073 L173.699903,41.931383 L173.712687,41.8947436 L168.627328,37.0506116 L168.617409,37.0512738 L168.571341,37.0073506 L149.046568,38.3396138 L177.234372,28.3004499 L177.25443,28.2933869 L180.178991,27.2517672 L180.175464,27.240047 L181.110715,26.9028537 C181.110715,26.9028537 181.240103,26.8611157 181.466918,26.7732693 L181.638626,26.7114457 C181.665959,26.7019548 182.380127,26.4344206 183.389439,25.8683191 C184.764433,25.1130389 186.509294,23.9125232 187.882965,22.1666095 C188.247103,21.7039592 188.53299,21.3212315 188.755837,21.0055805 C189.385803,21.3227766 190.185274,22.2486951 190.578287,24.8123968 C191.443885,32.3351371 176.618071,42.7478246 172.500806,45.4843056" id="path50" fill="#9B8B20"></path>
                        <path d="M181.466918,26.7730044 C181.863457,26.6189422 182.558889,26.3254514 183.389439,25.8687385 C182.380127,26.4348621 181.665738,26.701712 181.638626,26.7117106 L181.466918,26.7730044 Z M149.033784,38.3442489 L149.046568,38.3400552 L168.571341,37.007792 L168.617189,37.0517152 L149.033784,38.3442489 Z M172.469286,45.5054947 L173.699903,41.9316037 L173.701446,41.9331488 L172.500806,45.4838642 C172.490226,45.4909272 172.479425,45.498211 172.469286,45.5054947 L172.469286,45.5054947 Z" id="path52" fill="#132935"></path>
                        <path d="M168.627548,37.0510531 C168.627548,37.0510531 172.498161,38.0449532 173.712687,41.8949643 L172.757378,43.9099131 L169.988876,41.9497028 L166.368221,38.5025048 L168.627548,37.0510531" id="path54" fill="#15213B"></path>
                        <path d="M174.822292,39.7352235 C173.97014,38.1517815 172.662817,37.205336 171.661439,36.6771541 C171.661439,36.6771541 174.926331,36.3198092 175.868195,36.9579094 L174.822292,39.7352235" id="path56" fill="#15213B"></path>
                        <path d="M187.64535,21.9328675 C187.64535,21.9328675 193.931349,27.4192933 187.330808,36.3067867 C189.898285,36.1593461 192.516679,30.5155913 192.516679,30.5155913 L193.844282,22.6658992 L191.143229,17.1867129 L189.537454,14.2770112 L188.53828,19.8706847 L187.64535,21.9328675" id="path58" fill="#15213B"></path>
                        <path d="M177.234372,28.3006265 L181.110715,26.9030303 C181.110715,26.9030303 185.204616,25.5707671 187.882965,22.166168 C190.562417,18.7622753 189.030924,19.6771357 189.030924,19.6771357 L187.028829,21.1685377 L185.425258,22.8373762 L183.653064,24.4514762 L181.808351,25.1953011 L179.459974,26.0347196 L177.234372,28.3006265" id="path60" fill="#15213B"></path>
                        <path d="M167.227868,30.1952831 C167.316037,30.0888963 168.656644,28.4235673 167.581205,26.7598054 L185.748177,22.2090318 C185.748177,22.2090318 183.886932,24.1700588 180.952232,25.3001429 L167.227868,30.1952831" id="path62" fill="#9B8B20"></path>
                        <path d="M167.223239,30.2006245 C167.223239,30.2006245 167.224561,30.1990795 167.227647,30.195548 L180.952011,25.2995248 C180.856569,25.3370251 180.760244,25.3723844 180.661936,25.4076553 C177.561258,26.514608 167.223239,30.2006245 167.223239,30.2006245" id="path64" fill="#132935"></path>
                        <path d="M166.039131,27.3172988 C166.039131,27.3172988 134.783933,35.5777501 107.451808,33.8742366 C107.451808,33.8742366 126.09379,28.356932 127.960105,22.124452 C129.475948,17.0631541 141.971458,24.3702735 141.971458,24.3702735 L154.165211,28.3972796 L166.217453,26.9577687 L166.27851,27.2223673 L166.039131,27.3172988" id="path66" fill="#15213B"></path>
                        <path d="M137.534801,32.6064676 C135.955697,33.1114298 120.889183,38.3179833 115.063866,47.8636624 C115.063866,47.8636624 105.257947,40.7134526 98.7371986,34.5730347 C98.7371986,34.5730347 111.75511,25.6250862 120.881909,13.4848267 L127.615364,22.9484423 C127.615364,22.9484423 125.765361,28.2911356 107.451808,33.8737951 C107.451808,33.8737951 124.383976,34.1033435 137.534801,32.6064676" id="path68" fill="#9B8B20"></path>
                        <path d="M45.6727728,60.3819924 C68.1046931,53.5869203 93.0719088,38.4863923 93.0719088,38.4863923 C114.593045,57.0089562 130.003197,60.8898681 141.463385,64.6312852 C141.463385,64.6312852 111.917781,72.9663175 45.6727728,60.3819924" id="path70" fill="#9B8B20"></path>
                        <path d="M144.02976,60.7662651 C144.02976,60.7662651 121.646553,59.6505278 108.875956,50.4838242 C111.179808,53.9864227 128.221966,64.6220149 141.784981,64.587362 C146.843669,61.6230984 144.02976,60.7662651 144.02976,60.7662651" id="path72" fill="#15213B"></path>
                        <path d="M160.701609,52.8430954 C159.290026,49.9896331 156.442392,47.9437836 153.040176,47.7171046 C147.95636,47.3783001 143.55982,51.2311806 143.221252,56.3227391 C143.052629,58.8676355 143.929027,61.241695 145.484987,63.0204739 L160.701609,52.8430954" id="path74" fill="#FFFFFF"></path>
                        <path d="M152.421011,46.750353 C147.116993,46.750353 142.635811,50.8844301 142.278727,56.2593926 C142.098642,58.9742431 142.984298,61.5970535 144.774346,63.6435652 L145.320552,64.2686429 L161.916356,53.168436 L161.54781,52.423949 C159.943137,49.178268 156.706678,47.0136714 153.103217,46.7733078 C152.873978,46.7582989 152.646502,46.750353 152.421011,46.750353 M145.683147,61.7502329 C144.571117,60.1950429 144.035932,58.3195889 144.163997,56.3854235 C144.467739,51.8224882 148.423876,48.355867 152.977577,48.6611221 C155.636308,48.8379185 158.050151,50.3017305 159.451595,52.5418132 L145.683147,61.7502329" id="path76" fill="#15213B"></path>
                        <path d="M154.26903,56.0766368 L154.269912,56.0766368 L147.314711,57.624543 C146.874969,56.7586602 146.649257,55.7709403 146.719131,54.730689 C146.923021,51.6483405 149.58528,49.3162177 152.662814,49.5203833 C155.290686,49.6960761 157.367504,51.6662188 157.792919,54.1559353 L154.26903,56.0766368" id="path78" fill="#15213B"></path>
                        <path d="M161.248256,51.9233571 L168.293388,47.454669 L166.703704,52.5029666 C166.703704,52.5029666 166.237952,50.3933291 163.387453,52.282247 C160.536293,54.171165 161.248256,51.9233571 161.248256,51.9233571" id="path80" fill="#15213B"></path>
                        <path d="M146.729491,63.3453731 L139.476941,68.4038237 C139.476941,68.4038237 142.043095,64.2869627 142.487687,61.5014819 L144.029981,60.7664858 L144.941647,62.984938 L146.729491,63.3453731" id="path82" fill="#15213B"></path>
                        <path d="M94.0920224,37.8092247 C94.0920224,37.8092247 108.474787,28.5972956 122.3918,13.5852762 L121.034,12.3249278 L92.5268048,34.2521084 L94.0920224,37.8092247" id="path84" fill="#15213B"></path>
                    </g>
                </g>
            </g>
        </g>
    </g>
</svg>