<?xml version="1.0" encoding="UTF-8"?>
<svg width="200px" height="200px" viewBox="0 0 200 200" version="1.1" xmlns="http://www.w3.org/2000/svg" xmlns:xlink="http://www.w3.org/1999/xlink">
    <!-- Generator: Sketch 54.1 (76490) - https://sketchapp.com -->
    <title>st-cloud-st</title>
    <desc>Created with Sketch.</desc>
    <g id="st-cloud-st" stroke="none" stroke-width="1" fill="none" fill-rule="evenodd">
        <g id="st-cloud-st_BGL">
            <g id="st-cloud-st" transform="translate(0.000000, 28.000000)">
                <g id="g10" transform="translate(99.842020, 72.872040) scale(-1, 1) rotate(-180.000000) translate(-99.842020, -72.872040) translate(0.000000, 0.834127)" fill-rule="nonzero">
                    <g id="g12">
                        <path d="M93.3565853,0 C102.457501,0 111.738765,0.822966172 120.943441,2.44174401 C169.690991,11.026856 196.452444,38.2972502 197.567136,39.4535219 L199.395888,41.3516577 L176.585146,76.0702667 L189.946283,90.4146581 L180.965556,129.750392 L144.112477,139.900154 L140.673614,137.151339 L140.520692,137.189254 C135.33649,138.473298 117.848086,142.710897 110.432983,143.306158 C104.994121,143.739649 99.6599027,143.959554 94.5784495,143.959554 C45.5282137,143.959554 25.3430641,123.273046 18.7110264,116.475068 C-7.56269175,89.5403453 -2.12726693,57.8455594 10.5084863,38.8907415 C22.3321321,21.1503312 46.3028108,0.00148104894 93.3516564,0 L93.3565853,0" id="path14" fill="#FFFFFF"></path>
                        <path d="M55.5924157,70.3850851 L55.5924157,65.5445165 C55.5924157,65.5445165 52.2008202,67.9768703 52.3613257,72.6822099 C52.5281503,77.6989554 58.1373761,81.0980075 58.1373761,81.0980075 C58.1373761,81.0980075 58.8941533,76.7057169 59.332068,75.4018307 C60.3539953,72.3414832 62.2274866,70.3850851 62.2274866,70.3850851 L55.5924157,70.3850851 Z M65.2823996,79.0580707 C64.0556066,87.3711195 67.5927945,91.8374701 70.1623995,93.9316248 C53.2005042,89.2293185 46.2164917,80.1569648 45.9000304,71.4070124 C45.5791458,62.5503934 54.9407885,54.5378817 69.493458,50.3381978 C64.1789557,54.8341219 62.9852749,62.987297 62.9852749,62.987297 L76.7589238,62.987297 C76.7589238,62.987297 78.1205668,59.7610096 80.4187026,58.2207884 C82.7068542,56.7076131 90.6181336,57.20379 90.4413248,61.6336162 C90.2403769,67.089793 67.2235054,65.9345323 65.2823996,79.0580707 L65.2823996,79.0580707 Z" id="path16" fill="#231F20"></path>
                        <path d="M155.311213,72.425401 C155.311213,72.425401 150.297627,68.1699825 147.752287,66.8971863 C145.193045,65.6235055 138.993993,63.2465071 138.993993,63.2465071 L138.728591,71.9164595 L147.411055,69.3655591 L147.665083,77.7823677 C147.665083,77.7823677 149.855289,77.0004404 151.491939,75.7420518 C153.697311,74.0476443 155.311213,72.425401 155.311213,72.425401 L155.311213,72.425401 Z M97.1716879,11.2228496 C63.2370284,11.4667296 52.8425895,16.835513 40.4527004,23.709952 C25.1565239,32.2137117 11.2169223,50.2379766 10.7059587,69.8741215 C10.2122841,88.6266013 25.1565239,131.853393 87.9793975,133.131118 C120.654657,133.78957 143.581671,125.477912 143.581671,125.477912 L147.411055,128.283093 L172.144072,121.142872 L178.268558,93.5935522 L162.968716,76.2480866 C162.968716,76.2480866 155.546284,82.4303297 142.301418,88.0755744 L142.301418,77.5277074 C142.301418,77.5277074 132.612951,80.5850217 132.362714,80.079998 C132.139017,79.6391765 132.296995,59.0091612 132.343757,53.2494142 C155.860976,60.4695088 166.283724,71.4070124 166.283724,71.4070124 L185.401575,43.6093512 C185.401575,43.6093512 152.679933,10.7968023 97.1716879,11.2228496 L97.1716879,11.2228496 Z M172.404419,76.423758 L186.339332,91.3847686 L178.187673,127.092572 L144.856868,136.271719 L141.457184,133.553235 C141.457184,133.553235 118.671466,139.333962 110.170361,140.013899 C54.1162704,144.499206 31.1462867,124.492509 21.0727325,114.170108 C-6.12806304,86.2841053 3.73617684,54.9995563 13.2543441,40.7197462 C39.2041696,1.78219269 88.2089077,0.0276461289 120.370803,5.69362387 C168.660975,14.1962714 195.189885,41.7426846 195.189885,41.7426846 L172.404419,76.423758 L172.404419,76.423758 Z" id="path18" fill="#231F20"></path>
                        <path d="M113.481451,56.6104251 L110.170361,55.8511202 C110.170361,55.8511202 111.52897,60.4448642 111.019397,65.8762701 C110.524231,71.15033 105.582557,75.9962066 105.582557,75.9962066 L109.832162,76.0826521 L110.170361,78.5486236 L113.481451,77.2719096 L113.481451,56.6104251 Z M114.759049,84.4155429 C112.484168,84.795069 109.412572,85.1787656 109.412572,85.1787656 L109.412572,96.564421 C104.957091,97.0279913 100.275511,97.2561113 95.3781967,97.1643578 C93.3516564,97.1327622 91.408023,97.0492235 89.5206297,96.9352266 C92.5508982,96.1147527 96.4568696,94.6416406 99.116838,92.0655901 C103.709065,87.6386708 102.519302,82.1218305 102.519302,82.1218305 L89.5172174,81.8597136 C89.5172174,81.8597136 89.2580072,85.0948478 86.4499188,85.9433786 C85.2329837,86.3151953 78.883284,87.1400926 78.883284,83.0554166 C78.883284,76.7624625 103.642335,80.8802507 104.301419,63.494722 C104.689034,53.4320366 99.0057479,48.9074237 92.1979124,47.231468 C94.5735205,47.2066971 96.9865379,47.2807571 99.4608506,47.4278661 C106.936743,47.9235375 113.728275,48.8679925 119.858828,50.101231 L119.858828,82.8845477 C119.858828,82.8845477 117.824831,83.9054639 114.759049,84.4155429 L114.759049,84.4155429 Z" id="path20" fill="#231F20"></path>
                        <path d="M167.539964,117.565116 L172.91374,94.6154795 L161.948811,82.8845477 C161.948811,82.8845477 134.944704,102.524231 95.3781967,101.75608 C56.0974394,100.990835 38.5969027,85.556396 41.0545329,68.6038529 C43.6029057,50.9981662 69.360251,40.2877715 102.771056,42.5833797 C141.781987,45.2666023 165.260027,64.5251169 165.260027,64.5251169 L178.777879,44.3730795 C178.777879,44.3730795 151.799048,16.8502997 98.4404399,16.0593993 C63.9232843,15.5499522 49.4633795,22.2512475 34.9263814,33.1517211 C25.7493832,40.0409469 17.1119111,52.2142167 15.5465399,64.268308 C10.8713425,100.230519 43.319051,126.339839 85.6872016,128.022746 C123.667611,129.543125 144.597785,119.865779 144.597785,119.865779 C144.597785,119.865779 147.411055,122.924104 148.17314,122.924104 C148.945336,122.924104 167.539964,117.565116 167.539964,117.565116" id="path22" fill="#CE0F3E"></path>
                        <path d="M184.369032,12.3904073 L183.093834,12.3904073 L183.093834,16.1072982 L182.958605,16.1072982 L181.789569,13.5066031 L180.890991,13.5066031 L179.711844,16.154186 L179.542492,16.154186 L179.542492,12.3904073 L178.335541,12.3904073 L178.335541,17.1465399 L180.400627,17.1465399 L181.359869,14.8183251 L182.355762,17.1465399 L184.369032,17.1465399 L184.369032,12.3904073 Z M177.577247,16.1137437 L176.213582,16.1137437 L176.213582,12.3904073 L174.935857,12.3904073 L174.935857,16.1137437 L173.575983,16.1137437 L173.575983,17.1465399 L177.577247,17.1465399 L177.577247,16.1137437 L177.577247,16.1137437 Z" id="path24" fill="#231F20"></path>
                    </g>
                </g>
            </g>
        </g>
    </g>
</svg>